<svg t="1625574326031" class="icon" viewBox="0 0 1024 1024" version="1.1" xmlns="http://www.w3.org/2000/svg"
  p-id="40244" width="200" height="200">
  <path
    d="M763.2384 943.2576H236.1344c-73.5232 0-133.12-59.5968-133.12-133.12V285.184c0-73.5232 59.5968-133.12 133.12-133.12h547.584c73.5232 0 133.12 59.5968 133.12 133.12v504.4736c0 84.8384-68.7616 153.6-153.6 153.6z"
    fill="#80B7F9" p-id="40245"></path>
  <path
    d="M331.8272 250.8288c-22.3232 0-40.3968-18.0736-40.3968-40.3968V114.5344c0-22.3232 18.0736-40.3968 40.3968-40.3968s40.3968 18.0736 40.3968 40.3968V210.432c0 22.3232-18.0736 40.3968-40.3968 40.3968zM691.712 250.8288c-22.3232 0-40.3968-18.0736-40.3968-40.3968V114.5344c0-22.3232 18.0736-40.3968 40.3968-40.3968s40.3968 18.0736 40.3968 40.3968V210.432c0 22.3232-18.0736 40.3968-40.3968 40.3968z"
    fill="#80B7F9" p-id="40246"></path>
  <path
    d="M291.4304 152.064v58.368c0 22.3232 18.0736 40.3968 40.3968 40.3968s40.3968-18.0736 40.3968-40.3968V152.064H291.4304zM651.3152 152.064v58.368c0 22.3232 18.0736 40.3968 40.3968 40.3968s40.3968-18.0736 40.3968-40.3968V152.064h-80.7936z"
    fill="#3E8BF8" p-id="40247"></path>
  <path
    d="M792.1152 394.1888H227.7376c-22.6304 0-40.96-18.3296-40.96-40.96s18.3296-40.96 40.96-40.96h564.3776c22.6304 0 40.96 18.3296 40.96 40.96s-18.3296 40.96-40.96 40.96zM301.0048 561.9712H232.8576c-22.6304 0-40.96-18.3296-40.96-40.96s18.3296-40.96 40.96-40.96h68.1472c22.6304 0 40.96 18.3296 40.96 40.96s-18.3808 40.96-40.96 40.96zM545.4336 561.9712H477.2864c-22.6304 0-40.96-18.3296-40.96-40.96s18.3296-40.96 40.96-40.96h68.1472c22.6304 0 40.96 18.3296 40.96 40.96s-18.3296 40.96-40.96 40.96zM789.9136 561.9712h-68.1472c-22.6304 0-40.96-18.3296-40.96-40.96s18.3296-40.96 40.96-40.96h68.1472c22.6304 0 40.96 18.3296 40.96 40.96s-18.3296 40.96-40.96 40.96zM301.0048 695.3984H232.8576c-22.6304 0-40.96-18.3296-40.96-40.96s18.3296-40.96 40.96-40.96h68.1472c22.6304 0 40.96 18.3296 40.96 40.96s-18.3808 40.96-40.96 40.96zM545.4336 695.3984H477.2864c-22.6304 0-40.96-18.3296-40.96-40.96s18.3296-40.96 40.96-40.96h68.1472c22.6304 0 40.96 18.3296 40.96 40.96s-18.3296 40.96-40.96 40.96zM789.9136 695.3984h-68.1472c-22.6304 0-40.96-18.3296-40.96-40.96s18.3296-40.96 40.96-40.96h68.1472c22.6304 0 40.96 18.3296 40.96 40.96s-18.3296 40.96-40.96 40.96zM301.0048 832H232.8576c-22.6304 0-40.96-18.3296-40.96-40.96s18.3296-40.96 40.96-40.96h68.1472c22.6304 0 40.96 18.3296 40.96 40.96s-18.3808 40.96-40.96 40.96zM545.4336 832H477.2864c-22.6304 0-40.96-18.3296-40.96-40.96s18.3296-40.96 40.96-40.96h68.1472c22.6304 0 40.96 18.3296 40.96 40.96s-18.3296 40.96-40.96 40.96z"
    fill="#FFFFFF" p-id="40248"></path>
</svg>