<svg t="1623674630446" class="icon" viewBox="0 0 1024 1024" version="1.1" xmlns="http://www.w3.org/2000/svg" p-id="45131" width="200" height="200"><path d="M721.454545 768H349.090909c-25.6 0-46.545455-20.945455-46.545454-46.545455V349.090909c0-25.6 20.945455-46.545455 46.545454-46.545454h372.363636c25.6 0 46.545455 20.945455 46.545455 46.545454v372.363636c0 25.6-20.945455 46.545455-46.545455 46.545455z" fill="#F5CB2B" p-id="45132" data-spm-anchor-id="a313x.7781069.0.i18" class="selected"></path><path d="M721.454545 786.618182H302.545455c-34.909091 0-65.163636-27.927273-65.163637-65.163637V302.545455c0-34.909091 27.927273-65.163636 65.163637-65.163637h418.90909c34.909091 0 65.163636 27.927273 65.163637 65.163637v418.90909c0 34.909091-30.254545 65.163636-65.163637 65.163637z m-418.90909-512c-16.290909 0-30.254545 13.963636-30.254546 30.254545v418.909091c0 16.290909 13.963636 30.254545 30.254546 30.254546h418.90909c16.290909 0 30.254545-13.963636 30.254546-30.254546V302.545455c0-16.290909-13.963636-30.254545-30.254546-30.254546H302.545455z" fill="#6A3906" p-id="45133" data-spm-anchor-id="a313x.7781069.0.i15" class=""></path><path d="M512 423.563636h-165.236364c-9.309091 0-18.618182-6.981818-18.618181-18.618181s6.981818-18.618182 18.618181-18.618182H512c9.309091 0 18.618182 6.981818 18.618182 18.618182s-9.309091 18.618182-18.618182 18.618181zM677.236364 530.618182H346.763636c-9.309091 0-18.618182-6.981818-18.618181-18.618182s6.981818-18.618182 18.618181-18.618182h332.8c9.309091 0 18.618182 6.981818 18.618182 18.618182s-11.636364 18.618182-20.945454 18.618182zM677.236364 635.345455H346.763636c-9.309091 0-18.618182-6.981818-18.618181-18.618182s6.981818-18.618182 18.618181-18.618182h332.8c9.309091 0 18.618182 6.981818 18.618182 18.618182s-11.636364 18.618182-20.945454 18.618182z" fill="#6A3906" p-id="45134" data-spm-anchor-id="a313x.7781069.0.i17" class=""></path></svg>