<svg t="1625152596318" class="icon" viewBox="0 0 1112 1024" version="1.1" xmlns="http://www.w3.org/2000/svg"
  p-id="20816" width="200" height="200">
  <path
    d="M913.10313271 842.97192031L913.10313271 671.58829619l60.50617031 0 0 171.3767335L913.10313271 842.96503057zM913.10313271 424.7476499l60.50617031 0 0 171.37673349-60.50617031 1e-8L913.10313271 424.7476499zM913.10313271 177.90011299l60.50617031 0 0 171.38362412-60.50617031 0L913.10313271 177.90011299zM258.83452285 87.40267051l328.14710508-1e-8-1e-8 466.54928526 94.9620296-100.08803584 94.96891933 100.08803584L776.91257597 87.40267051l106.04770841-1e-8 0 846.14937101L258.83452285 933.55204063 258.83452285 87.40267051zM127.45304229 87.40267051l85.19919169-1e-8 0 846.14937101L127.45304229 933.55204063 127.45304229 87.40267051z"
    fill="#2acd9f" p-id="20817"></path>
</svg>