<svg t="1625575224995" class="icon" viewBox="0 0 1024 1024" version="1.1" xmlns="http://www.w3.org/2000/svg"
  p-id="42119" width="200" height="200">
  <path d="M84.3776 798.1056a431.9744 144.1792 0 1 0 863.9488 0 431.9744 144.1792 0 1 0-863.9488 0Z" fill="#A5ADF6"
    p-id="42120"></path>
  <path
    d="M826.2144 392.1408c0-171.1104-138.7008-309.8624-309.8624-309.8624s-309.8624 138.752-309.8624 309.8624c0 152.1152 164.4032 316.5696 275.968 414.5664 22.272 19.5584 55.552 19.6096 77.7728 0.0512 129.6896-114.1248 265.984-259.1744 265.984-414.6176z"
    fill="#A5ADF6" p-id="42121"></path>
  <path
    d="M516.352 653.9264c-62.5152 0-121.9072 4.4544-175.5648 12.4416 46.6944 53.76 98.2016 102.0928 141.7216 140.288 22.272 19.5584 55.552 19.6096 77.7728 0.0512 48.2304-42.4448 97.3312-89.1392 140.032-139.0592-55.808-8.7552-118.1696-13.7216-183.9616-13.7216z"
    fill="#635DF7" p-id="42122"></path>
  <path
    d="M516.352 549.5808c-86.1696 0-156.3136-70.0928-156.3136-156.3136s70.0928-156.3136 156.3136-156.3136 156.3136 70.144 156.3136 156.3136-70.144 156.3136-156.3136 156.3136z m0-230.7072c-41.0112 0-74.3936 33.3824-74.3936 74.3936s33.3824 74.3936 74.3936 74.3936 74.3936-33.3824 74.3936-74.3936-33.3824-74.3936-74.3936-74.3936z"
    fill="#FFFFFF" p-id="42123"></path>
</svg>