<svg t="1625576671292" class="icon" viewBox="0 0 1024 1024" version="1.1" xmlns="http://www.w3.org/2000/svg" p-id="4244"
  width="200" height="200">
  <path d="M509.518 168.809m-93.895 0a93.895 93.895 0 1 0 187.79 0 93.895 93.895 0 1 0-187.79 0Z" fill="#3D75FF"
    p-id="4245"></path>
  <path d="M499.102 169.345m-93.895 0a93.895 93.895 0 1 0 187.79 0 93.895 93.895 0 1 0-187.79 0Z" fill="#3C74FE"
    p-id="4246"></path>
  <path d="M488.819 170.61m-93.895 0a93.895 93.895 0 1 0 187.79 0 93.895 93.895 0 1 0-187.79 0Z" fill="#3C73FC"
    p-id="4247"></path>
  <path d="M478.682 172.587m-93.895 0a93.895 93.895 0 1 0 187.79 0 93.895 93.895 0 1 0-187.79 0Z" fill="#3B72FB"
    p-id="4248"></path>
  <path d="M468.702 175.259m-93.895 0a93.895 93.895 0 1 0 187.79 0 93.895 93.895 0 1 0-187.79 0Z" fill="#3B71FA"
    p-id="4249"></path>
  <path d="M458.891 178.609m-93.895 0a93.895 93.895 0 1 0 187.79 0 93.895 93.895 0 1 0-187.79 0Z" fill="#3A70F8"
    p-id="4250"></path>
  <path d="M449.259 182.619m-93.895 0a93.895 93.895 0 1 0 187.79 0 93.895 93.895 0 1 0-187.79 0Z" fill="#3A6FF7"
    p-id="4251"></path>
  <path d="M439.818 187.273m-93.895 0a93.895 93.895 0 1 0 187.79 0 93.895 93.895 0 1 0-187.79 0Z" fill="#396DF6"
    p-id="4252"></path>
  <path d="M430.58 192.554m-93.895 0a93.895 93.895 0 1 0 187.79 0 93.895 93.895 0 1 0-187.79 0Z" fill="#396CF4"
    p-id="4253"></path>
  <path d="M421.555 198.443m-93.895 0a93.895 93.895 0 1 0 187.79 0 93.895 93.895 0 1 0-187.79 0Z" fill="#386BF3"
    p-id="4254"></path>
  <path d="M412.755 204.924m-93.895 0a93.895 93.895 0 1 0 187.79 0 93.895 93.895 0 1 0-187.79 0Z" fill="#386AF1"
    p-id="4255"></path>
  <path d="M404.192 211.98m-93.895 0a93.895 93.895 0 1 0 187.79 0 93.895 93.895 0 1 0-187.79 0Z" fill="#3769F0"
    p-id="4256"></path>
  <path d="M395.876 219.593m-93.895 0a93.895 93.895 0 1 0 187.79 0 93.895 93.895 0 1 0-187.79 0Z" fill="#3668EF"
    p-id="4257"></path>
  <path d="M387.819 227.747m-93.895 0a93.895 93.895 0 1 0 187.79 0 93.895 93.895 0 1 0-187.79 0Z" fill="#3667ED"
    p-id="4258"></path>
  <path d="M380.032 236.423m-93.895 0a93.895 93.895 0 1 0 187.79 0 93.895 93.895 0 1 0-187.79 0Z" fill="#3566EC"
    p-id="4259"></path>
  <path d="M372.527 245.606m-93.895 0a93.895 93.895 0 1 0 187.79 0 93.895 93.895 0 1 0-187.79 0Z" fill="#3565EB"
    p-id="4260"></path>
  <path d="M365.315 255.277m-93.895 0a93.895 93.895 0 1 0 187.79 0 93.895 93.895 0 1 0-187.79 0Z" fill="#3464E9"
    p-id="4261"></path>
  <path d="M358.407 265.42m-93.895 0a93.895 93.895 0 1 0 187.79 0 93.895 93.895 0 1 0-187.79 0Z" fill="#3463E8"
    p-id="4262"></path>
  <path d="M351.815 276.017m-93.895 0a93.895 93.895 0 1 0 187.79 0 93.895 93.895 0 1 0-187.79 0Z" fill="#3362E7"
    p-id="4263"></path>
  <path d="M345.55 287.052m-93.895 0a93.895 93.895 0 1 0 187.79 0 93.895 93.895 0 1 0-187.79 0Z" fill="#3360E5"
    p-id="4264"></path>
  <path d="M339.622 298.506m-93.895 0a93.895 93.895 0 1 0 187.79 0 93.895 93.895 0 1 0-187.79 0Z" fill="#325FE4"
    p-id="4265"></path>
  <path d="M334.045 310.363m-93.895 0a93.895 93.895 0 1 0 187.79 0 93.895 93.895 0 1 0-187.79 0Z" fill="#325EE3"
    p-id="4266"></path>
  <path d="M328.829 322.606m-93.895 0a93.895 93.895 0 1 0 187.79 0 93.895 93.895 0 1 0-187.79 0Z" fill="#315DE1"
    p-id="4267"></path>
  <path d="M323.984 335.217m-93.895 0a93.895 93.895 0 1 0 187.79 0 93.895 93.895 0 1 0-187.79 0Z" fill="#305CE0"
    p-id="4268"></path>
  <path d="M319.524 348.18m-93.895 0a93.895 93.895 0 1 0 187.79 0 93.895 93.895 0 1 0-187.79 0Z" fill="#305BDE"
    p-id="4269"></path>
  <path d="M315.458 361.476m-93.895 0a93.895 93.895 0 1 0 187.79 0 93.895 93.895 0 1 0-187.79 0Z" fill="#2F5ADD"
    p-id="4270"></path>
  <path d="M311.798 375.089m-93.895 0a93.895 93.895 0 1 0 187.79 0 93.895 93.895 0 1 0-187.79 0Z" fill="#2F59DC"
    p-id="4271"></path>
  <path d="M308.556 389.002m-93.895 0a93.895 93.895 0 1 0 187.79 0 93.895 93.895 0 1 0-187.79 0Z" fill="#2E58DA"
    p-id="4272"></path>
  <path d="M305.743 403.198m-93.895 0a93.895 93.895 0 1 0 187.79 0 93.895 93.895 0 1 0-187.79 0Z" fill="#2E57D9"
    p-id="4273"></path>
  <path d="M303.37 417.658m-93.895 0a93.895 93.895 0 1 0 187.79 0 93.895 93.895 0 1 0-187.79 0Z" fill="#2D56D8"
    p-id="4274"></path>
  <path d="M301.449 432.367m-93.895 0a93.895 93.895 0 1 0 187.79 0 93.895 93.895 0 1 0-187.79 0Z" fill="#2D55D6"
    p-id="4275"></path>
  <path d="M299.991 447.307m-93.895 0a93.895 93.895 0 1 0 187.79 0 93.895 93.895 0 1 0-187.79 0Z" fill="#2C54D5"
    p-id="4276"></path>
  <path d="M299.006 462.46m-93.895 0a93.895 93.895 0 1 0 187.79 0 93.895 93.895 0 1 0-187.79 0Z" fill="#2C52D4"
    p-id="4277"></path>
  <path d="M298.508 477.81m-93.895 0a93.895 93.895 0 1 0 187.79 0 93.895 93.895 0 1 0-187.79 0Z" fill="#2B51D2"
    p-id="4278"></path>
  <path d="M298.506 493.348m-93.895 0a93.895 93.895 0 1 0 187.79 0 93.895 93.895 0 1 0-187.79 0Z" fill="#2A50D1"
    p-id="4279"></path>
  <path d="M299.007 508.849m-93.895 0a93.895 93.895 0 1 0 187.79 0 93.895 93.895 0 1 0-187.79 0Z" fill="#2A4FD0"
    p-id="4280"></path>
  <path d="M300.001 524.143m-93.895 0a93.895 93.895 0 1 0 187.79 0 93.895 93.895 0 1 0-187.79 0Z" fill="#294ECE"
    p-id="4281"></path>
  <path d="M301.476 539.213m-93.895 0a93.895 93.895 0 1 0 187.79 0 93.895 93.895 0 1 0-187.79 0Z" fill="#294DCD"
    p-id="4282"></path>
  <path d="M303.421 554.043m-93.895 0a93.895 93.895 0 1 0 187.79 0 93.895 93.895 0 1 0-187.79 0Z" fill="#284CCB"
    p-id="4283"></path>
  <path d="M305.823 568.615m-93.895 0a93.895 93.895 0 1 0 187.79 0 93.895 93.895 0 1 0-187.79 0Z" fill="#284BCA"
    p-id="4284"></path>
  <path d="M308.671 582.913m-93.895 0a93.895 93.895 0 1 0 187.79 0 93.895 93.895 0 1 0-187.79 0Z" fill="#274AC9"
    p-id="4285"></path>
  <path d="M311.953 596.918m-93.895 0a93.895 93.895 0 1 0 187.79 0 93.895 93.895 0 1 0-187.79 0Z" fill="#2749C7"
    p-id="4286"></path>
  <path d="M315.658 610.615m-93.895 0a93.895 93.895 0 1 0 187.79 0 93.895 93.895 0 1 0-187.79 0Z" fill="#2648C6"
    p-id="4287"></path>
  <path d="M319.773 623.985m-93.895 0a93.895 93.895 0 1 0 187.79 0 93.895 93.895 0 1 0-187.79 0Z" fill="#2647C5"
    p-id="4288"></path>
  <path d="M324.287 637.012m-93.895 0a93.895 93.895 0 1 0 187.79 0 93.895 93.895 0 1 0-187.79 0Z" fill="#2546C3"
    p-id="4289"></path>
  <path d="M329.188 649.679m-93.895 0a93.895 93.895 0 1 0 187.79 0 93.895 93.895 0 1 0-187.79 0Z" fill="#2444C2"
    p-id="4290"></path>
  <path d="M334.464 661.968m-93.895 0a93.895 93.895 0 1 0 187.79 0 93.895 93.895 0 1 0-187.79 0Z" fill="#2443C1"
    p-id="4291"></path>
  <path d="M340.104 673.863m-93.895 0a93.895 93.895 0 1 0 187.79 0 93.895 93.895 0 1 0-187.79 0Z" fill="#2342BF"
    p-id="4292"></path>
  <path d="M346.096 685.347m-93.895 0a93.895 93.895 0 1 0 187.79 0 93.895 93.895 0 1 0-187.79 0Z" fill="#2341BE"
    p-id="4293"></path>
  <path d="M352.428 696.401m-93.895 0a93.895 93.895 0 1 0 187.79 0 93.895 93.895 0 1 0-187.79 0Z" fill="#2240BD"
    p-id="4294"></path>
  <path d="M359.088 707.01m-93.895 0a93.895 93.895 0 1 0 187.79 0 93.895 93.895 0 1 0-187.79 0Z" fill="#223FBB"
    p-id="4295"></path>
  <path d="M366.064 717.156m-93.895 0a93.895 93.895 0 1 0 187.79 0 93.895 93.895 0 1 0-187.79 0Z" fill="#213EBA"
    p-id="4296"></path>
  <path d="M373.346 726.822m-93.895 0a93.895 93.895 0 1 0 187.79 0 93.895 93.895 0 1 0-187.79 0Z" fill="#213DB8"
    p-id="4297"></path>
  <path d="M380.92 735.991m-93.895 0a93.895 93.895 0 1 0 187.79 0 93.895 93.895 0 1 0-187.79 0Z" fill="#203CB7"
    p-id="4298"></path>
  <path d="M388.776 744.646m-93.895 0a93.895 93.895 0 1 0 187.79 0 93.895 93.895 0 1 0-187.79 0Z" fill="#203BB6"
    p-id="4299"></path>
  <path d="M396.902 752.77m-93.895 0a93.895 93.895 0 1 0 187.79 0 93.895 93.895 0 1 0-187.79 0Z" fill="#1F3AB4"
    p-id="4300"></path>
  <path d="M405.285 760.345m-93.895 0a93.895 93.895 0 1 0 187.79 0 93.895 93.895 0 1 0-187.79 0Z" fill="#1F39B3"
    p-id="4301"></path>
  <path d="M413.914 767.355m-93.895 0a93.895 93.895 0 1 0 187.79 0 93.895 93.895 0 1 0-187.79 0Z" fill="#1E37B2"
    p-id="4302"></path>
  <path d="M422.778 773.783m-93.895 0a93.895 93.895 0 1 0 187.79 0 93.895 93.895 0 1 0-187.79 0Z" fill="#1D36B0"
    p-id="4303"></path>
  <path d="M431.864 779.611m-93.895 0a93.895 93.895 0 1 0 187.79 0 93.895 93.895 0 1 0-187.79 0Z" fill="#1D35AF"
    p-id="4304"></path>
  <path d="M441.16 784.822m-93.895 0a93.895 93.895 0 1 0 187.79 0 93.895 93.895 0 1 0-187.79 0Z" fill="#1C34AE"
    p-id="4305"></path>
  <path d="M450.656 789.399m-93.895 0a93.895 93.895 0 1 0 187.79 0 93.895 93.895 0 1 0-187.79 0Z" fill="#1C33AC"
    p-id="4306"></path>
  <path d="M460.339 793.326m-93.895 0a93.895 93.895 0 1 0 187.79 0 93.895 93.895 0 1 0-187.79 0Z" fill="#1B32AB"
    p-id="4307"></path>
  <path d="M470.198 796.584m-93.895 0a93.895 93.895 0 1 0 187.79 0 93.895 93.895 0 1 0-187.79 0Z" fill="#1B31AA"
    p-id="4308"></path>
  <path d="M480.22 799.157m-93.895 0a93.895 93.895 0 1 0 187.79 0 93.895 93.895 0 1 0-187.79 0Z" fill="#1A30A8"
    p-id="4309"></path>
  <path d="M490.395 801.029m-93.895 0a93.895 93.895 0 1 0 187.79 0 93.895 93.895 0 1 0-187.79 0Z" fill="#1A2FA7"
    p-id="4310"></path>
  <path d="M500.709 802.181m-93.895 0a93.895 93.895 0 1 0 187.79 0 93.895 93.895 0 1 0-187.79 0Z" fill="#192EA5"
    p-id="4311"></path>
  <path d="M511.152 802.596m-93.895 0a93.895 93.895 0 1 0 187.79 0 93.895 93.895 0 1 0-187.79 0Z" fill="#192DA4"
    p-id="4312"></path>
  <path d="M521.61 802.264m-93.895 0a93.895 93.895 0 1 0 187.79 0 93.895 93.895 0 1 0-187.79 0Z" fill="#182CA3"
    p-id="4313"></path>
  <path d="M531.931 801.198m-93.895 0a93.895 93.895 0 1 0 187.79 0 93.895 93.895 0 1 0-187.79 0Z" fill="#172BA1"
    p-id="4314"></path>
  <path d="M542.109 799.415m-93.895 0a93.895 93.895 0 1 0 187.79 0 93.895 93.895 0 1 0-187.79 0Z" fill="#1729A0"
    p-id="4315"></path>
  <path d="M552.133 796.932m-93.895 0a93.895 93.895 0 1 0 187.79 0 93.895 93.895 0 1 0-187.79 0Z" fill="#16289F"
    p-id="4316"></path>
  <path d="M561.992 793.767m-93.895 0a93.895 93.895 0 1 0 187.79 0 93.895 93.895 0 1 0-187.79 0Z" fill="#16279D"
    p-id="4317"></path>
  <path d="M571.674 789.936m-93.895 0a93.895 93.895 0 1 0 187.79 0 93.895 93.895 0 1 0-187.79 0Z" fill="#15269C"
    p-id="4318"></path>
  <path d="M581.168 785.457m-93.895 0a93.895 93.895 0 1 0 187.79 0 93.895 93.895 0 1 0-187.79 0Z" fill="#15259B"
    p-id="4319"></path>
  <path d="M590.464 780.347m-93.895 0a93.895 93.895 0 1 0 187.79 0 93.895 93.895 0 1 0-187.79 0Z" fill="#142499"
    p-id="4320"></path>
  <path d="M599.548 774.624m-93.895 0a93.895 93.895 0 1 0 187.79 0 93.895 93.895 0 1 0-187.79 0Z" fill="#142398"
    p-id="4321"></path>
  <path d="M608.411 768.304m-93.895 0a93.895 93.895 0 1 0 187.79 0 93.895 93.895 0 1 0-187.79 0Z" fill="#132297"
    p-id="4322"></path>
  <path d="M617.041 761.404m-93.895 0a93.895 93.895 0 1 0 187.79 0 93.895 93.895 0 1 0-187.79 0Z" fill="#132195"
    p-id="4323"></path>
  <path d="M625.426 753.942m-93.895 0a93.895 93.895 0 1 0 187.79 0 93.895 93.895 0 1 0-187.79 0Z" fill="#122094"
    p-id="4324"></path>
  <path d="M633.555 745.935m-93.895 0a93.895 93.895 0 1 0 187.79 0 93.895 93.895 0 1 0-187.79 0Z" fill="#111F92"
    p-id="4325"></path>
  <path d="M641.417 737.401m-93.895 0a93.895 93.895 0 1 0 187.79 0 93.895 93.895 0 1 0-187.79 0Z" fill="#111E91"
    p-id="4326"></path>
  <path d="M649.001 728.355m-93.895 0a93.895 93.895 0 1 0 187.79 0 93.895 93.895 0 1 0-187.79 0Z" fill="#101D90"
    p-id="4327"></path>
  <path d="M656.295 718.817m-93.895 0a93.895 93.895 0 1 0 187.79 0 93.895 93.895 0 1 0-187.79 0Z" fill="#101B8E"
    p-id="4328"></path>
  <path d="M663.287 708.802m-93.895 0a93.895 93.895 0 1 0 187.79 0 93.895 93.895 0 1 0-187.79 0Z" fill="#0F1A8D"
    p-id="4329"></path>
  <path d="M669.967 698.328m-93.895 0a93.895 93.895 0 1 0 187.79 0 93.895 93.895 0 1 0-187.79 0Z" fill="#0F198C"
    p-id="4330"></path>
  <path d="M676.323 687.412m-93.895 0a93.895 93.895 0 1 0 187.79 0 93.895 93.895 0 1 0-187.79 0Z" fill="#0E188A"
    p-id="4331"></path>
  <path d="M682.345 676.071m-93.895 0a93.895 93.895 0 1 0 187.79 0 93.895 93.895 0 1 0-187.79 0Z" fill="#0E1789"
    p-id="4332"></path>
  <path d="M688.019 664.323m-93.895 0a93.895 93.895 0 1 0 187.79 0 93.895 93.895 0 1 0-187.79 0Z" fill="#0D1688"
    p-id="4333"></path>
  <path d="M693.336 652.184m-93.895 0a93.895 93.895 0 1 0 187.79 0 93.895 93.895 0 1 0-187.79 0Z" fill="#0D1586"
    p-id="4334"></path>
  <path d="M698.284 639.673m-93.895 0a93.895 93.895 0 1 0 187.79 0 93.895 93.895 0 1 0-187.79 0Z" fill="#0C1485"
    p-id="4335"></path>
  <path d="M702.851 626.805m-93.895 0a93.895 93.895 0 1 0 187.79 0 93.895 93.895 0 1 0-187.79 0Z" fill="#0B1384"
    p-id="4336"></path>
  <path d="M707.026 613.599m-93.895 0a93.895 93.895 0 1 0 187.79 0 93.895 93.895 0 1 0-187.79 0Z" fill="#0B1282"
    p-id="4337"></path>
  <path d="M710.799 600.071m-93.895 0a93.895 93.895 0 1 0 187.79 0 93.895 93.895 0 1 0-187.79 0Z" fill="#0A1181"
    p-id="4338"></path>
  <path d="M714.156 586.238m-93.895 0a93.895 93.895 0 1 0 187.79 0 93.895 93.895 0 1 0-187.79 0Z" fill="#0A107F"
    p-id="4339"></path>
  <path d="M717.089 572.119m-93.895 0a93.895 93.895 0 1 0 187.79 0 93.895 93.895 0 1 0-187.79 0Z" fill="#090E7E"
    p-id="4340"></path>
  <path d="M719.584 557.729m-93.895 0a93.895 93.895 0 1 0 187.79 0 93.895 93.895 0 1 0-187.79 0Z" fill="#090D7D"
    p-id="4341"></path>
  <path d="M721.63 543.087m-93.895 0a93.895 93.895 0 1 0 187.79 0 93.895 93.895 0 1 0-187.79 0Z" fill="#080C7B"
    p-id="4342"></path>
  <path d="M723.217 528.209m-93.895 0a93.895 93.895 0 1 0 187.79 0 93.895 93.895 0 1 0-187.79 0Z" fill="#080B7A"
    p-id="4343"></path>
  <path d="M724.333 513.113m-93.895 0a93.895 93.895 0 1 0 187.79 0 93.895 93.895 0 1 0-187.79 0Z" fill="#070A79"
    p-id="4344"></path>
  <path d="M724.966 497.815m-93.895 0a93.895 93.895 0 1 0 187.79 0 93.895 93.895 0 1 0-187.79 0Z" fill="#070977"
    p-id="4345"></path>
  <path d="M725.105 482.334m-93.895 0a93.895 93.895 0 1 0 187.79 0 93.895 93.895 0 1 0-187.79 0Z" fill="#060876"
    p-id="4346"></path>
</svg>