<svg t="1625576348465" class="icon" viewBox="0 0 1024 1024" version="1.1" xmlns="http://www.w3.org/2000/svg" p-id="2667" width="200" height="200"><path d="M376.076278 655.771692h19.358574c0 15.728841 3.226429 30.651075 8.87268 44.766703 5.646251 14.115627 14.51893 27.021343 25.408128 37.91054 10.889198 10.889198 23.794914 19.358574 37.910541 25.408129 14.115627 5.646251 29.037861 8.87268 44.766702 8.872679 15.728841 0 30.651075-3.226429 44.766703-8.872679 14.115627-5.646251 27.021343-14.51893 37.91054-25.408129 10.889198-10.889198 19.358574-23.794914 25.408128-37.91054 5.646251-14.115627 8.87268-29.037861 8.87268-44.766703 0-15.728841-3.226429-30.651075-8.87268-44.766702-5.646251-14.115627-14.51893-27.021343-25.408128-37.910541-10.889198-10.889198-23.794914-19.358574-37.91054-25.408128-14.115627-5.646251-29.037861-8.87268-44.766703-8.87268-15.728841 0-30.651075 3.226429-44.766702 8.87268-14.115627 5.646251-27.021343 14.51893-37.910541 25.408128-10.889198 10.889198-19.358574 23.794914-25.408128 37.910541-5.646251 14.115627-8.87268 29.037861-8.87268 44.766702h-19.358574c0-18.148663 3.629733-35.490719 10.485895-52.026167 6.856162-16.535449 16.938752-31.457683 29.441164-43.960095 12.502412-12.502412 27.82795-22.585003 43.960095-29.441165 16.535449-6.856162 33.877504-10.082591 52.026168-10.485894 18.148663 0 35.490719 3.629733 52.026167 10.485894 16.535449 6.856162 31.457683 16.938752 43.960095 29.441165 12.502412 12.502412 22.585003 27.82795 29.441165 43.960095 6.856162 16.535449 10.082591 33.877504 10.485894 52.026167 0 18.148663-3.629733 35.490719-10.485894 52.026168-6.856162 16.535449-16.938752 31.457683-29.441165 43.960095-12.502412 12.502412-27.82795 22.585003-43.960095 29.441164-16.535449 6.856162-33.877504 10.082591-52.026167 10.485895-18.148663 0-35.490719-3.629733-52.026168-10.485895-16.535449-6.856162-31.457683-16.938752-43.960095-29.441164-12.502412-12.502412-22.585003-27.82795-29.441164-43.960095-6.856162-16.535449-10.485894-33.877504-10.485895-52.026168z" fill="#F2F2F2" p-id="2668"></path><path d="M356.717704 655.771692h19.358574c0 18.148663 3.629733 35.490719 10.485895 52.026168 6.856162 16.535449 16.938752 31.457683 29.441164 43.960095 12.502412 12.502412 27.82795 22.585003 43.960095 29.441164 16.535449 6.856162 33.877504 10.082591 52.026168 10.485895 18.148663 0 35.490719-3.629733 52.026167-10.485895 16.535449-6.856162 31.457683-16.938752 43.960095-29.441164 12.502412-12.502412 22.585003-27.82795 29.441165-43.960095 6.856162-16.535449 10.082591-33.877504 10.485894-52.026168 0-18.148663-3.629733-35.490719-10.485894-52.026167-6.856162-16.535449-16.938752-31.457683-29.441165-43.960095-12.502412-12.502412-27.82795-22.585003-43.960095-29.441165-16.535449-6.856162-33.877504-10.082591-52.026167-10.485894-18.148663 0-35.490719 3.629733-52.026168 10.485894-16.535449 6.856162-31.457683 16.938752-43.960095 29.441165-12.502412 12.502412-22.585003 27.82795-29.441164 43.960095-6.856162 16.535449-10.082591 33.877504-10.485895 52.026167h-19.358574c0-20.568485 4.033036-40.733666 11.695806-59.285632s19.358574-35.894023 33.877504-50.412953c14.51893-14.51893 31.860986-25.811432 50.412953-33.877505 18.551967-7.662769 38.717148-11.695805 59.285633-11.695805s40.733666 4.033036 59.285632 11.695805 35.894023 19.358574 50.412953 33.877505c14.51893 14.51893 25.811432 31.860986 33.877505 50.412953 7.662769 18.551967 11.695805 38.717148 11.695805 59.285632s-4.033036 40.733666-11.695805 59.285633-19.358574 35.894023-33.877505 50.412953c-14.51893 14.51893-31.860986 25.811432-50.412953 33.877504-18.551967 7.662769-38.717148 11.695805-59.285632 11.695806s-40.733666-4.033036-59.285633-11.695806-35.894023-19.358574-50.412953-33.877504c-14.51893-14.51893-25.811432-31.860986-33.877504-50.412953-7.662769-18.551967-11.695805-38.717148-11.695806-59.285633z" fill="" p-id="2669"></path><path d="M337.359131 655.771692h19.358573c0 20.568485 4.033036 40.733666 11.695806 59.285633s19.358574 35.894023 33.877504 50.412953c14.51893 14.51893 31.860986 25.811432 50.412953 33.877504 18.551967 7.662769 38.717148 11.695805 59.285633 11.695806s40.733666-4.033036 59.285632-11.695806 35.894023-19.358574 50.412953-33.877504c14.51893-14.51893 25.811432-31.860986 33.877505-50.412953 7.662769-18.551967 11.695805-38.717148 11.695805-59.285633s-4.033036-40.733666-11.695805-59.285632-19.358574-35.894023-33.877505-50.412953c-14.51893-14.51893-31.860986-25.811432-50.412953-33.877505-18.551967-7.662769-38.717148-11.695805-59.285632-11.695805s-40.733666 4.033036-59.285633 11.695805-35.894023 19.358574-50.412953 33.877505c-14.51893 14.51893-25.811432 31.860986-33.877504 50.412953-7.662769 18.551967-11.695805 38.717148-11.695806 59.285632H337.359131c0-22.988307 4.43634-45.573309 13.309019-66.948401 8.87268-20.971788 21.778396-40.330362 37.910541-56.865811 16.132145-16.132145 35.490719-29.037861 56.865811-37.910541 20.971788-8.87268 43.960095-13.30902 66.948401-13.309019 22.988307 0 45.573309 4.43634 66.948402 13.309019 20.971788 8.87268 40.330362 21.778396 56.865811 37.910541 16.132145 16.132145 29.037861 35.490719 37.91054 56.865811 8.87268 20.971788 13.30902 43.960095 13.30902 66.948401 0 22.988307-4.43634 45.573309-13.30902 66.948402-8.87268 20.971788-21.778396 40.330362-37.91054 56.865811-16.132145 16.132145-35.490719 29.037861-56.865811 37.91054-20.971788 8.87268-43.960095 13.30902-66.948402 13.30902-22.988307 0-45.573309-4.43634-66.948401-13.30902-20.971788-8.87268-40.330362-21.778396-56.865811-37.91054-16.132145-16.132145-29.037861-35.490719-37.910541-56.865811-8.87268-21.375092-13.30902-43.960095-13.309019-66.948402z" fill="#F2F2F2" p-id="2670"></path><path d="M318.000557 655.771692H337.359131c0 22.988307 4.43634 45.573309 13.309019 66.948402 8.87268 20.971788 21.778396 40.330362 37.910541 56.865811 16.132145 16.132145 35.490719 29.037861 56.865811 37.91054 20.971788 8.87268 43.960095 13.30902 66.948401 13.30902 22.988307 0 45.573309-4.43634 66.948402-13.30902 20.971788-8.87268 40.330362-21.778396 56.865811-37.91054 16.132145-16.132145 29.037861-35.490719 37.91054-56.865811 8.87268-20.971788 13.30902-43.960095 13.30902-66.948402 0-22.988307-4.43634-45.573309-13.30902-66.948401-8.87268-20.971788-21.778396-40.330362-37.91054-56.865811-16.132145-16.132145-35.490719-29.037861-56.865811-37.910541-20.971788-8.87268-43.960095-13.30902-66.948402-13.309019-22.988307 0-45.573309 4.43634-66.948401 13.309019-20.971788 8.87268-40.330362 21.778396-56.865811 37.910541-16.132145 16.132145-29.037861 35.490719-37.910541 56.865811-8.87268 20.971788-13.30902 43.960095-13.309019 66.948401h-19.358574c0-25.408128 4.839643-50.816257 14.922234-74.207866 9.679287-23.39161 24.198217-44.766702 41.943577-62.915366 18.148663-18.148663 39.523755-32.26429 62.915365-41.943577 23.39161-9.679287 48.799738-14.51893 74.207867-14.922234 25.408128 0 50.816257 4.839643 74.207866 14.922234 23.39161 9.679287 44.766702 24.198217 62.915366 41.943577 18.148663 18.148663 32.26429 39.523755 41.943577 62.915366 9.679287 23.39161 14.51893 48.799738 14.922234 74.207866 0 25.408128-4.839643 50.816257-14.922234 74.207867-9.679287 23.39161-24.198217 44.766702-41.943577 62.915365-18.148663 18.148663-39.523755 32.26429-62.915366 41.943577-23.39161 9.679287-48.799738 14.51893-74.207866 14.922234-25.408128 0-50.816257-4.839643-74.207867-14.922234-23.39161-9.679287-44.766702-24.198217-62.915365-41.943577-18.148663-18.148663-32.26429-39.523755-41.943577-62.915365-10.082591-23.39161-14.922234-48.799738-14.922234-74.207867z" fill="" p-id="2671"></path><path d="M298.641983 655.771692h19.358574c0 25.408128 4.839643 50.816257 14.922234 74.207867 9.679287 23.39161 24.198217 44.766702 41.943577 62.915365 18.148663 18.148663 39.523755 32.26429 62.915365 41.943577 23.39161 9.679287 48.799738 14.51893 74.207867 14.922234 25.408128 0 50.816257-4.839643 74.207866-14.922234 23.39161-9.679287 44.766702-24.198217 62.915366-41.943577 18.148663-18.148663 32.26429-39.523755 41.943577-62.915365 9.679287-23.39161 14.51893-48.799738 14.922234-74.207867 0-25.408128-4.839643-50.816257-14.922234-74.207866-9.679287-23.39161-24.198217-44.766702-41.943577-62.915366-18.148663-18.148663-39.523755-32.26429-62.915366-41.943577-23.39161-9.679287-48.799738-14.51893-74.207866-14.922234-25.408128 0-50.816257 4.839643-74.207867 14.922234-23.39161 9.679287-44.766702 24.198217-62.915365 41.943577-18.148663 18.148663-32.26429 39.523755-41.943577 62.915366-9.679287 23.39161-14.51893 48.799738-14.922234 74.207866h-19.358574c0-27.82795 5.646251-56.059204 16.132145-81.467332 10.485894-25.811432 26.618039-49.606346 46.379916-69.368223 19.761878-19.761878 43.556791-35.490719 69.368224-46.379917 25.811432-10.889198 53.639382-16.132145 81.467332-16.132145 27.82795 0 56.059204 5.646251 81.467332 16.132145 25.811432 10.485894 49.606346 26.618039 69.368223 46.379917 19.761878 19.761878 35.490719 43.556791 46.379917 69.368223 10.889198 25.811432 16.132145 53.639382 16.132145 81.467332 0 27.82795-5.646251 56.059204-16.132145 81.467332-10.485894 25.811432-26.618039 49.606346-46.379917 69.368224-19.761878 19.761878-43.556791 35.490719-69.368223 46.379916-25.811432 10.889198-53.639382 16.132145-81.467332 16.132145-27.82795 0-56.059204-5.646251-81.467332-16.132145-25.811432-10.485894-49.606346-26.618039-69.368224-46.379916-19.761878-19.761878-35.490719-43.556791-46.379916-69.368224-10.485894-25.811432-16.132145-53.639382-16.132145-81.467332z" fill="#F2F2F2" p-id="2672"></path><path d="M279.283409 655.771692h19.358574c0 27.82795 5.646251 56.059204 16.132145 81.467332 10.485894 25.811432 26.618039 49.606346 46.379916 69.368224 19.761878 19.761878 43.556791 35.490719 69.368224 46.379916 25.811432 10.889198 53.639382 16.132145 81.467332 16.132145 27.82795 0 56.059204-5.646251 81.467332-16.132145 25.811432-10.485894 49.606346-26.618039 69.368223-46.379916 19.761878-19.761878 35.490719-43.556791 46.379917-69.368224 10.889198-25.811432 16.132145-53.639382 16.132145-81.467332 0-27.82795-5.646251-56.059204-16.132145-81.467332-10.485894-25.811432-26.618039-49.606346-46.379917-69.368223-19.761878-19.761878-43.556791-35.490719-69.368223-46.379917-25.811432-10.889198-53.639382-16.132145-81.467332-16.132145-27.82795 0-56.059204 5.646251-81.467332 16.132145-25.811432 10.485894-49.606346 26.618039-69.368224 46.379917-19.761878 19.761878-35.490719 43.556791-46.379916 69.368223-10.889198 25.811432-16.132145 53.639382-16.132145 81.467332h-19.358574c0-30.651075 6.049554-60.898847 17.745359-89.130101 11.695805-28.231254 29.037861-54.042686 50.412953-75.417777 21.375092-21.375092 47.186524-38.717148 75.417778-50.412953a232.746521 232.746521 0 0 1 178.260202 0c28.231254 11.695805 54.042686 29.037861 75.417777 50.412953 21.375092 21.375092 38.717148 47.186524 50.412953 75.417777a232.746521 232.746521 0 0 1 0 178.260202c-11.695805 28.231254-29.037861 54.042686-50.412953 75.417778-21.375092 21.375092-47.186524 38.717148-75.417777 50.412953a232.746521 232.746521 0 0 1-178.260202 0c-28.231254-11.695805-54.042686-29.037861-75.417778-50.412953-21.375092-21.375092-38.717148-47.186524-50.412953-75.417778-11.695805-28.231254-17.745359-58.479025-17.745359-89.130101z" fill="" p-id="2673"></path><path d="M259.924835 655.771692h19.358574c0 30.651075 6.049554 60.898847 17.745359 89.130101 11.695805 28.231254 29.037861 54.042686 50.412953 75.417778 21.375092 21.375092 47.186524 38.717148 75.417778 50.412953a232.746521 232.746521 0 0 0 178.260202 0c28.231254-11.695805 54.042686-29.037861 75.417777-50.412953 21.375092-21.375092 38.717148-47.186524 50.412953-75.417778a232.746521 232.746521 0 0 0 0-178.260202c-11.695805-28.231254-29.037861-54.042686-50.412953-75.417777-21.375092-21.375092-47.186524-38.717148-75.417777-50.412953a232.746521 232.746521 0 0 0-178.260202 0c-28.231254 11.695805-54.042686 29.037861-75.417778 50.412953-21.375092 21.375092-38.717148 47.186524-50.412953 75.417777-11.695805 28.231254-17.745359 58.479025-17.745359 89.130101h-19.358574c0-33.070897 6.452858-66.141794 19.358574-96.389566 12.502412-30.651075 31.457683-58.479025 54.849293-81.870635 23.39161-23.39161 51.21956-41.943577 81.870635-54.849293 30.651075-12.502412 63.318669-18.95527 96.389566-19.358574 33.070897 0 66.141794 6.452858 96.389566 19.358574 30.651075 12.502412 58.479025 31.457683 81.870636 54.849293 23.39161 23.39161 41.943577 51.21956 54.849293 81.870635 12.502412 30.651075 18.95527 63.318669 19.358574 96.389566 0 33.070897-6.452858 66.141794-19.358574 96.389566-12.502412 30.651075-31.457683 58.479025-54.849293 81.870636-23.39161 23.39161-51.21956 41.943577-81.870636 54.849293-30.651075 12.502412-63.318669 18.95527-96.389566 19.358574-33.070897 0-66.141794-6.452858-96.389566-19.358574-30.651075-12.502412-58.479025-31.457683-81.870635-54.849293-23.39161-23.39161-41.943577-51.21956-54.849293-81.870636-12.905716-30.247772-19.358574-63.318669-19.358574-96.389566z" fill="#F2F2F2" p-id="2674"></path><path d="M240.566261 655.771692h19.358574c0 33.070897 6.452858 66.141794 19.358574 96.389566 12.502412 30.651075 31.457683 58.479025 54.849293 81.870636 23.39161 23.39161 51.21956 41.943577 81.870635 54.849293 30.651075 12.502412 63.318669 18.95527 96.389566 19.358574 33.070897 0 66.141794-6.452858 96.389566-19.358574 30.651075-12.502412 58.479025-31.457683 81.870636-54.849293 23.39161-23.39161 41.943577-51.21956 54.849293-81.870636 12.502412-30.651075 18.95527-63.318669 19.358574-96.389566 0-33.070897-6.452858-66.141794-19.358574-96.389566-12.502412-30.651075-31.457683-58.479025-54.849293-81.870635-23.39161-23.39161-51.21956-41.943577-81.870636-54.849293-30.651075-12.502412-63.318669-18.95527-96.389566-19.358574-33.070897 0-66.141794 6.452858-96.389566 19.358574-30.651075 12.502412-58.479025 31.457683-81.870635 54.849293-23.39161 23.39161-41.943577 51.21956-54.849293 81.870635-12.502412 30.651075-18.95527 63.318669-19.358574 96.389566H240.566261c0-35.490719 6.856162-70.981438 20.568485-104.052335 13.712323-32.667594 33.877504-62.915365 58.882329-87.92019 25.004825-25.004825 55.252596-45.170006 87.92019-58.882329 32.667594-13.712323 68.561616-20.568485 104.052335-20.568484s70.981438 6.856162 104.052335 20.568484c32.667594 13.712323 62.915365 33.877504 87.92019 58.882329 25.004825 25.004825 45.170006 55.252596 58.882329 87.92019 13.712323 32.667594 20.568485 68.561616 20.568484 104.052335s-6.856162 70.981438-20.568484 104.052335c-13.712323 32.667594-33.877504 62.915365-58.882329 87.92019-25.004825 25.004825-55.252596 45.170006-87.92019 58.882329-32.667594 13.712323-68.561616 20.568485-104.052335 20.568485s-70.981438-6.856162-104.052335-20.568485c-32.667594-13.712323-62.915365-33.877504-87.92019-58.882329-25.004825-25.004825-45.170006-55.252596-58.882329-87.92019-13.712323-33.070897-20.568485-68.561616-20.568485-104.052335z" fill="" p-id="2675"></path><path d="M221.207687 655.771692H240.566261c0 35.490719 6.856162 70.981438 20.568485 104.052335 13.712323 32.667594 33.877504 62.915365 58.882329 87.92019 25.004825 25.004825 55.252596 45.170006 87.92019 58.882329 32.667594 13.712323 68.561616 20.568485 104.052335 20.568485s70.981438-6.856162 104.052335-20.568485c32.667594-13.712323 62.915365-33.877504 87.92019-58.882329 25.004825-25.004825 45.170006-55.252596 58.882329-87.92019 13.712323-32.667594 20.568485-68.561616 20.568484-104.052335s-6.856162-70.981438-20.568484-104.052335c-13.712323-32.667594-33.877504-62.915365-58.882329-87.92019-25.004825-25.004825-55.252596-45.170006-87.92019-58.882329-32.667594-13.712323-68.561616-20.568485-104.052335-20.568484s-70.981438 6.856162-104.052335 20.568484c-32.667594 13.712323-62.915365 33.877504-87.92019 58.882329-25.004825 25.004825-45.170006 55.252596-58.882329 87.92019-13.712323 32.667594-20.568485 68.561616-20.568485 104.052335h-19.358574c0-37.910541 7.662769-76.224385 22.181699-111.3118 14.51893-35.087415 36.297326-67.351705 62.915366-94.373048C333.326094 423.065501 365.590384 401.690409 400.677799 387.171479c35.087415-14.51893 73.40126-22.181699 111.311801-22.181699 37.910541 0 76.224385 7.662769 111.3118 22.181699 35.087415 14.51893 67.351705 36.297326 94.373048 62.915365 27.021343 27.021343 48.396435 59.285633 62.915365 94.373048 14.51893 35.087415 22.181699 73.40126 22.181699 111.3118 0 37.910541-7.662769 76.224385-22.181699 111.311801-14.51893 35.087415-36.297326 67.351705-62.915365 94.373047-27.021343 27.021343-59.285633 48.396435-94.373048 62.915366-35.087415 14.51893-73.40126 22.181699-111.3118 22.181699-37.910541 0-76.224385-7.662769-111.311801-22.181699-35.087415-14.51893-67.351705-36.297326-94.373047-62.915366-27.021343-27.021343-48.396435-59.285633-62.915366-94.373047-14.51893-35.087415-22.181699-73.40126-22.181699-111.311801z" fill="#F2F2F2" p-id="2676"></path><path d="M201.849113 655.771692h19.358574c0 37.910541 7.662769 76.224385 22.181699 111.311801 14.51893 35.087415 36.297326 67.351705 62.915366 94.373047 27.021343 27.021343 59.285633 48.396435 94.373047 62.915366 35.087415 14.51893 73.40126 22.181699 111.311801 22.181699 37.910541 0 76.224385-7.662769 111.3118-22.181699 35.087415-14.51893 67.351705-36.297326 94.373048-62.915366 27.021343-27.021343 48.396435-59.285633 62.915365-94.373047 14.51893-35.087415 22.181699-73.40126 22.181699-111.311801 0-37.910541-7.662769-76.224385-22.181699-111.3118-14.51893-35.087415-36.297326-67.351705-62.915365-94.373048-27.021343-27.021343-59.285633-48.396435-94.373048-62.915365-35.087415-14.51893-73.40126-22.181699-111.3118-22.181699-37.910541 0-76.224385 7.662769-111.311801 22.181699-35.087415 14.51893-67.351705 36.297326-94.373047 62.915365-27.021343 27.021343-48.396435 59.285633-62.915366 94.373048-14.51893 35.087415-22.181699 73.40126-22.181699 111.3118h-19.358574c0-40.330362 8.066072-81.064028 23.39161-118.571265 15.728841-37.507237 38.717148-71.788045 67.351705-100.422602 28.634557-28.634557 62.915365-51.622864 100.422603-67.351706 37.507237-15.728841 78.240903-23.794914 118.571265-23.39161 40.330362 0 81.064028 8.066072 118.571265 23.39161 37.507237 15.728841 71.788045 38.717148 100.422603 67.351706 28.634557 28.634557 51.622864 62.915365 67.351705 100.422602 15.728841 37.507237 23.794914 78.240903 23.39161 118.571265 0 40.330362-8.066072 81.064028-23.39161 118.571266-15.728841 37.507237-38.717148 71.788045-67.351705 100.422602-28.634557 28.634557-62.915365 51.622864-100.422603 67.351705-37.507237 15.728841-78.240903 23.794914-118.571265 23.39161-40.330362 0-81.064028-8.066072-118.571265-23.39161-37.507237-15.728841-71.788045-38.717148-100.422603-67.351705-28.634557-28.634557-51.622864-62.915365-67.351705-100.422602-15.325538-37.507237-23.39161-78.240903-23.39161-118.571266z" fill="" p-id="2677"></path><path d="M182.490539 655.771692h19.358574c0 40.330362 8.066072 81.064028 23.39161 118.571266 15.728841 37.507237 38.717148 71.788045 67.351705 100.422602 28.634557 28.634557 62.915365 51.622864 100.422603 67.351705 37.507237 15.728841 78.240903 23.794914 118.571265 23.39161 40.330362 0 81.064028-8.066072 118.571265-23.39161 37.507237-15.728841 71.788045-38.717148 100.422603-67.351705 28.634557-28.634557 51.622864-62.915365 67.351705-100.422602 15.728841-37.507237 23.794914-78.240903 23.39161-118.571266 0-40.330362-8.066072-81.064028-23.39161-118.571265-15.728841-37.507237-38.717148-71.788045-67.351705-100.422602-28.634557-28.634557-62.915365-51.622864-100.422603-67.351706-37.507237-15.728841-78.240903-23.794914-118.571265-23.39161-40.330362 0-81.064028 8.066072-118.571265 23.39161-37.507237 15.728841-71.788045 38.717148-100.422603 67.351706-28.634557 28.634557-51.622864 62.915365-67.351705 100.422602-15.728841 37.507237-23.794914 78.240903-23.39161 118.571265H182.490539c0-42.750184 8.469376-86.306975 25.004825-126.234034 16.535449-39.927059 41.13697-76.224385 71.384741-106.87546C309.127877 392.414426 345.828507 367.812905 385.755565 351.277456c39.927059-16.535449 83.080547-25.004825 126.234035-25.004824 42.750184 0 86.306975 8.469376 126.234034 25.004824 39.927059 16.535449 76.224385 41.13697 106.87546 71.384742 30.247772 30.247772 54.849293 66.948402 71.384742 106.87546 16.535449 39.927059 25.004825 83.080547 25.004824 126.234034 0 42.750184-8.469376 86.306975-25.004824 126.234035-16.535449 39.927059-41.13697 76.224385-71.384742 106.87546-30.247772 30.247772-66.948402 54.849293-106.87546 71.384741-39.927059 16.535449-83.080547 25.004825-126.234034 25.004825-42.750184 0-86.306975-8.469376-126.234035-25.004825-39.927059-16.535449-76.224385-41.13697-106.87546-71.384741-30.247772-30.247772-54.849293-66.948402-71.384741-106.87546-16.535449-39.927059-25.004825-83.48385-25.004825-126.234035z" fill="#F2F2F2" p-id="2678"></path><path d="M143.773391 655.771692h19.358574c0 45.573309 8.87268 91.146619 26.618039 133.4935 17.342056 42.346881 43.556791 81.064028 75.821081 113.328318s70.981438 58.075722 113.328319 75.821081 88.323494 26.618039 133.493499 26.61804c45.573309 0 91.146619-8.87268 133.4935-26.61804 42.346881-17.342056 81.064028-43.556791 113.328318-75.821081s58.075722-70.981438 75.821081-113.328318 26.618039-88.323494 26.61804-133.4935c0-45.573309-8.87268-91.146619-26.61804-133.493499-17.342056-42.346881-43.556791-81.064028-75.821081-113.328318S688.233283 350.874153 645.886403 333.128793 557.562909 306.510754 512.392903 306.510754c-45.573309 0-91.146619 8.87268-133.493499 26.618039-42.750184 17.745359-81.467332 43.556791-113.731622 75.821082S207.09206 479.931312 189.346701 522.278193C172.004645 564.625073 163.131965 610.198383 163.131965 655.771692H143.773391c0-47.993131 9.275983-96.389566 27.82795-141.156268 18.551967-44.766702 45.976613-85.500368 79.854118-119.377873 33.877504-33.877504 74.61117-61.302151 119.377872-79.854117 44.766702-18.551967 93.163137-28.231254 141.156269-27.82795 47.993131 0 96.389566 9.275983 141.156268 27.82795 44.766702 18.551967 85.500368 45.976613 119.377873 79.854117 33.877504 33.877504 61.302151 74.61117 79.854117 119.377873 18.551967 44.766702 28.231254 93.163137 27.82795 141.156268 0 47.993131-9.275983 96.389566-27.82795 141.156269-18.551967 44.766702-45.976613 85.500368-79.854117 119.377872-33.877504 33.877504-74.61117 61.302151-119.377873 79.854118-44.766702 18.551967-93.163137 28.231254-141.156268 27.82795-47.993131 0-96.389566-9.275983-141.156269-27.82795-44.766702-18.551967-85.500368-45.976613-119.377872-79.854118-33.877504-33.877504-61.302151-74.61117-79.854118-119.377872-18.551967-44.766702-27.82795-93.163137-27.82795-141.156269z" fill="#F2F2F2" p-id="2679"></path><path d="M163.131965 655.771692h19.358574c0 42.750184 8.469376 86.306975 25.004825 126.234035 16.535449 39.927059 41.13697 76.224385 71.384741 106.87546C309.127877 919.128959 345.828507 943.73048 385.755565 960.265928c39.927059 16.535449 83.080547 25.004825 126.234035 25.004825 42.750184 0 86.306975-8.469376 126.234034-25.004825 39.927059-16.535449 76.224385-41.13697 106.87546-71.384741 30.247772-30.247772 54.849293-66.948402 71.384742-106.87546 16.535449-39.927059 25.004825-83.080547 25.004824-126.234035 0-42.750184-8.469376-86.306975-25.004824-126.234034-16.535449-39.927059-41.13697-76.224385-71.384742-106.87546-30.247772-30.247772-66.948402-54.849293-106.87546-71.384742-39.927059-16.535449-83.080547-25.004825-126.234034-25.004824-42.750184 0-86.306975 8.469376-126.234035 25.004824-39.927059 16.535449-76.224385 41.13697-106.87546 71.384742-30.247772 30.247772-54.849293 66.948402-71.384741 106.87546-16.535449 39.927059-25.004825 83.080547-25.004825 126.234034H163.131965c0-45.573309 8.87268-91.146619 26.618039-133.493499 17.342056-42.346881 43.556791-81.064028 75.821081-113.328318S336.552523 350.874153 378.899404 333.128793 467.222897 306.510754 512.392903 306.510754c45.573309 0 91.146619 8.87268 133.4935 26.618039 42.346881 17.342056 81.064028 43.556791 113.328318 75.821082s58.075722 70.981438 75.821081 113.328318 26.618039 88.323494 26.61804 133.493499c0 45.573309-8.87268 91.146619-26.61804 133.4935-17.342056 42.346881-43.556791 81.064028-75.821081 113.328318s-70.981438 58.075722-113.328318 75.821081-88.323494 26.618039-133.4935 26.61804c-45.573309 0-91.146619-8.87268-133.493499-26.61804-42.346881-17.342056-81.064028-43.556791-113.328319-75.821081s-58.075722-70.981438-75.821081-113.328318-26.618039-88.323494-26.618039-133.4935z" fill="" p-id="2680"></path><path d="M200.114907 460.306558L482.600865 0.044363l16.499151 10.126954-282.485957 460.262195z" fill="#F2F2F2" p-id="2681"></path><path d="M216.597926 470.381083L499.083884 10.118888l16.495118 10.122921-282.481924 460.262194z" fill="" p-id="2682"></path><path d="M233.080946 480.431409L515.514473 20.165181l16.499152 10.122921-282.433528 460.262195z" fill="#F2F2F2" p-id="2683"></path><path d="M249.906773 490.739849L532.39273 30.469589l16.495118 10.126954L266.409957 500.86277z" fill="" p-id="2684"></path><path d="M266.389792 500.78211l282.433528-460.258162 16.495118 10.122921-282.433528 460.262195z" fill="#F2F2F2" p-id="2685"></path><path d="M282.872811 510.880832l282.485957-460.262194 16.495118 10.126954-282.481924 460.262194z" fill="" p-id="2686"></path><path d="M299.351797 520.927126l282.433528-460.262195 16.495118 10.122921-282.433528 460.266228z" fill="#F2F2F2" p-id="2687"></path><path d="M315.621065 531.37269l282.48999-460.262195 16.499152 10.122921-282.485958 460.262195z" fill="" p-id="2688"></path><path d="M332.108117 541.443181L614.590042 81.185019l16.495118 10.126954L348.611302 551.570135z" fill="#F2F2F2" p-id="2689"></path><path d="M348.58307 551.489474l282.433528-460.262194 16.495118 10.122921-282.433527 460.262194z" fill="" p-id="2690"></path><path d="M365.066089 561.559966l282.429495-460.262195 16.499151 10.122921L381.561208 571.682887zM398.36687 581.9147l282.433527-460.262195 16.499152 10.122921-282.433528 460.262195z" fill="#F2F2F2" p-id="2691"></path><path d="M381.553142 571.662722l282.48999-460.262195 16.495118 10.122921L398.056326 581.793709z" fill="" p-id="2692"></path></svg>