<svg t="1625576658635" class="icon" viewBox="0 0 1024 1024" version="1.1" xmlns="http://www.w3.org/2000/svg" p-id="3340"
  width="200" height="200">
  <path
    d="M835.241695 318.302652l-0.399376-12.780031c-0.399376-8.386895-0.798752-17.173167-1.99688-25.560062-1.198128-8.386895-2.396256-16.773791-3.993759-25.560063-1.99688-8.386895-3.99376-16.773791-6.390016-25.160686-9.984399-32.74883-24.76131-64.299532-44.330733-92.255851-5.191888-6.789392-9.984399-13.578783-15.575663-20.368174-5.591264-6.390016-11.182527-12.780031-17.173167-19.170047-2.795632-3.195008-5.99064-5.99064-9.185648-9.185648l-9.585023-8.786271-9.585023-8.386895-10.383776-7.588144-10.383775-7.588143c-3.594384-2.396256-7.188768-4.792512-10.783151-6.789392l-11.182528-6.789392c-3.594384-1.99688-7.188768-4.393136-11.182527-6.390015-7.588144-3.99376-15.575663-7.588144-23.163807-11.182528-7.98752-3.195008-15.975039-5.99064-23.962558-8.786271C583.235455 5.591264 548.889121 0.399376 514.942163 0h-8.386895l-12.780031 0.399376-12.780032 0.798752c-4.393136 0-8.386895 0.798752-12.780031 1.198128-8.386895 1.198128-16.773791 2.396256-25.560062 3.99376-8.386895 1.99688-16.773791 3.99376-25.160687 6.390015-32.74883 9.984399-64.299532 24.76131-92.25585 44.330733-28.355694 19.170047-52.717629 43.531981-73.485179 71.088924-19.968799 27.157566-36.74259 57.909516-47.126365 90.658346C193.843879 251.606864 188.252616 285.553822 187.85324 319.900156v385.397816l0.399376 12.780031c0.399376 8.386895 0.798752 17.173167 1.99688 25.560063 1.198128 8.386895 2.396256 16.773791 3.993759 25.560062 1.99688 8.386895 3.99376 16.773791 6.390016 25.160686 9.984399 32.74883 24.76131 64.299532 44.330733 92.255851 5.191888 6.789392 9.984399 13.578783 15.575663 20.368174 5.591264 6.390016 11.182527 12.780031 17.173167 19.170047 2.795632 3.195008 5.99064 5.99064 9.185647 9.185648l9.585024 8.786271 9.585023 8.386895 10.383776 7.588144 10.383775 7.588144c3.594384 2.396256 7.188768 4.792512 10.783151 6.789391l11.182528 6.789392c3.594384 1.99688 7.188768 4.393136 11.182527 6.390015 7.588144 3.99376 15.575663 7.588144 23.163806 11.182528 7.98752 3.195008 15.975039 5.99064 23.962559 8.786271 32.74883 10.783151 67.095164 15.975039 101.042122 16.374415h8.386895l12.780031-0.399376 12.780032-0.798752c4.393136 0 8.386895-0.798752 12.780031-1.198128 8.386895-1.198128 16.773791-2.396256 25.560062-3.99376 8.386895-1.99688 16.773791-3.99376 25.160687-6.390015 32.74883-9.984399 64.299532-24.76131 92.25585-44.330733 28.355694-19.170047 52.717629-43.531981 73.485179-71.088924 20.368175-27.157566 37.141966-57.909516 47.525741-90.658346 10.783151-32.74883 16.374415-67.095164 16.773791-101.042122V322.695788c-0.399376-1.198128-0.399376-1.99688-0.399376-4.393136z m-19.170047 4.792512v380.605304c-0.399376 31.950078-5.591264 64.299532-15.575663 95.051482-9.984399 30.75195-25.560062 59.50702-44.730109 85.067083-19.170047 25.560062-42.333853 48.324493-69.092044 66.695788-26.358814 18.371295-55.912637 32.349454-87.063962 41.535101-7.98752 1.99688-15.575663 3.99376-23.563183 5.99064-7.98752 1.597504-15.975039 2.795632-23.962558 3.993759-3.99376 0.798752-7.98752 1.198128-11.981279 1.198128l-11.98128 0.798752-11.981279 0.399376h-8.386895c-31.950078-0.399376-64.299532-5.591264-95.051482-15.575663l-22.764431-8.386895c-7.188768-3.195008-14.776911-6.789392-21.965679-10.383776-3.594384-1.597504-7.188768-3.594384-10.383775-5.990639l-10.383775-6.390016c-3.195008-1.99688-6.789392-3.99376-9.9844-6.390015l-9.585023-7.188768-9.585023-7.188768c-3.195008-2.396256-5.99064-5.191888-9.185648-7.987519l-8.786271-7.98752c-2.795632-2.795632-5.99064-5.591264-8.386896-8.386895-5.591264-5.99064-10.783151-11.981279-15.975039-17.971919l-14.377535-19.170047c-18.371295-26.358814-32.349454-55.912637-41.535101-86.664586-1.99688-7.98752-3.99376-15.575663-5.99064-23.563183-1.597504-7.98752-2.795632-15.975039-3.99376-23.962558-1.198128-7.98752-1.597504-15.975039-1.99688-23.962559l-0.399376-11.981279V319.50078c0-31.950078 5.191888-63.900156 15.176287-94.652106 9.984399-30.75195 25.560062-59.50702 44.73011-85.067083 19.170047-25.560062 42.333853-48.324493 69.092043-66.695788 26.358814-18.371295 55.912637-32.349454 87.063963-41.535101 7.98752-1.99688 15.575663-3.99376 23.563182-5.99064 7.98752-1.597504 15.975039-2.795632 23.962559-3.993759 3.99376-0.798752 7.98752-1.198128 11.981279-1.198128l11.981279-0.798752 11.98128-0.399376H515.341539c31.950078 0.399376 64.299532 5.591264 95.051482 15.575663l22.764431 8.386895c7.188768 3.195008 14.776911 6.789392 21.965678 10.383776 3.594384 1.597504 7.188768 3.594384 10.383776 5.990639l10.383775 6.390016c3.195008 1.99688 6.789392 3.99376 9.9844 6.390015l9.585023 7.188768 9.585023 7.188768c3.195008 2.396256 5.99064 5.191888 9.185648 7.987519l8.786271 7.98752c2.795632 2.795632 5.99064 5.591264 8.386896 8.386895 5.591264 5.99064 10.783151 11.981279 15.975039 17.971919l14.377535 19.170047c18.371295 26.358814 32.349454 55.912637 41.535101 86.664586 1.99688 7.98752 3.99376 15.575663 5.99064 23.563183 1.597504 7.98752 2.795632 15.975039 3.99376 23.962558 1.198128 7.98752 1.597504 15.975039 1.996879 23.962559l0.399376 11.981279c0.399376 2.396256 0.399376 3.195008 0.399376 4.792512z"
    fill="#F2F2F2" p-id="3341"></path>
  <path
    d="M514.942163 38.340094V19.170047c31.950078 0.399376 64.299532 5.591264 95.051482 15.575663l22.764431 8.386895c7.188768 3.195008 14.776911 6.789392 21.965678 10.383776 3.594384 1.597504 7.188768 3.594384 10.383776 5.990639l10.383775 6.390016c3.195008 1.99688 6.789392 3.99376 9.9844 6.390015l9.585023 7.188768 9.585023 7.188768c3.195008 2.396256 5.99064 5.191888 9.185648 7.987519l8.786271 7.98752c2.795632 2.795632 5.99064 5.591264 8.386896 8.386895 5.591264 5.99064 10.783151 11.981279 15.975039 17.971919l14.377535 19.170047c18.371295 26.358814 32.349454 55.912637 41.535101 86.664586 1.99688 7.98752 3.99376 15.575663 5.99064 23.563183 1.597504 7.98752 2.795632 15.975039 3.99376 23.962558 1.198128 7.98752 1.597504 15.975039 1.996879 23.962559l0.399376 11.981279V703.700468c-0.399376 31.950078-5.591264 64.299532-15.575663 95.051482-9.984399 30.75195-25.560062 59.50702-44.730109 85.067083-19.170047 25.560062-42.333853 48.324493-69.092043 66.695788-26.358814 18.371295-55.912637 32.349454-87.063963 41.535101-7.98752 1.99688-15.575663 3.99376-23.563183 5.99064-7.98752 1.597504-15.975039 2.795632-23.962558 3.993759-3.99376 0.798752-7.98752 1.198128-11.981279 1.198128l-11.98128 0.798752-11.981279 0.399376h-8.386895c-31.950078-0.399376-64.299532-5.591264-95.051482-15.575663l-22.764431-8.386895c-7.188768-3.195008-14.776911-6.789392-21.965679-10.383776-3.594384-1.597504-7.188768-3.594384-10.383775-5.990639l-10.383775-6.390016c-3.195008-1.99688-6.789392-3.99376-9.9844-6.390015l-9.585023-7.188768-9.585023-7.188768c-3.195008-2.396256-5.99064-5.191888-9.185648-7.987519l-8.786271-7.98752c-2.795632-2.795632-5.99064-5.591264-8.386896-8.386895-5.591264-5.99064-10.783151-11.981279-15.975039-17.971919l-14.377535-19.170047c-18.371295-26.358814-32.349454-55.912637-41.535101-86.664586-1.99688-7.98752-3.99376-15.575663-5.99064-23.563183-1.597504-7.98752-2.795632-15.975039-3.99376-23.962558-1.198128-7.98752-1.597504-15.975039-1.99688-23.962559l-0.399376-11.981279V319.50078c0.798752-31.950078 5.99064-63.900156 15.975039-94.652106 9.984399-30.75195 25.560062-59.50702 44.73011-85.067083 19.170047-25.560062 42.333853-48.324493 69.092043-66.695788 26.358814-18.371295 55.912637-32.349454 87.063963-41.535101 7.98752-1.99688 15.575663-3.99376 23.563182-5.99064 7.98752-1.597504 15.975039-2.795632 23.962559-3.993759 3.99376-0.798752 7.98752-1.198128 11.981279-1.198128l11.981279-0.798752 11.98128-0.399376H515.341539v19.170047h-7.987519l-11.98128 0.399376c-7.588144 0.399376-15.176287 0.399376-22.365054 1.996879-7.588144 1.198128-14.776911 1.99688-22.365055 3.594384-7.188768 1.597504-14.776911 3.594384-21.965678 5.591264-29.154446 8.786271-56.312012 21.965679-81.472699 38.739469-24.76131 17.173167-46.327613 38.340094-64.698908 62.302653-17.971919 23.962559-32.74883 51.120125-41.934478 79.875195-9.185647 28.75507-13.978159 59.107644-14.377535 89.060842v384.599064l0.399376 11.182527c0.399376 7.588144 0.399376 15.176287 1.99688 22.365055 1.198128 7.588144 1.99688 14.776911 3.594384 22.365054 1.597504 7.188768 3.594384 14.776911 5.591264 21.965679 8.786271 28.75507 21.965679 56.312012 39.138845 81.073323 4.393136 5.99064 8.786271 11.981279 13.578783 17.971919 4.792512 5.591264 9.984399 11.182527 15.176287 16.773791 2.396256 2.795632 5.191888 5.591264 7.98752 7.987519l8.386895 7.588144c2.795632 2.396256 5.591264 5.191888 8.386896 7.588143l9.185647 6.789392 9.185648 6.789392c3.195008 2.396256 6.390016 3.99376 9.585023 5.990639l9.585023 5.99064c3.195008 1.99688 6.390016 3.99376 9.9844 5.591263 6.789392 3.195008 13.578783 6.789392 20.368175 9.585024 7.188768 2.795632 13.978159 5.191888 21.166926 7.987519 28.75507 9.585023 58.708268 14.377535 89.060843 14.377535h7.987519l11.182527-0.399376c7.588144-0.399376 15.176287-0.399376 22.365055-1.996879 7.588144-1.198128 14.776911-1.99688 22.365055-3.594384 7.188768-1.597504 14.776911-3.594384 21.965678-5.591264 29.154446-8.786271 56.312012-21.965679 81.472699-38.739469 24.76131-17.173167 46.327613-38.340094 64.698908-62.302652 17.971919-23.962559 32.74883-51.120125 41.934477-79.875195 9.585023-28.75507 14.377535-58.708268 14.776912-88.661467V322.695788v-4.393136l-0.399376-11.182527c-0.399376-7.588144-0.399376-15.176287-1.99688-22.365055-1.198128-7.588144-1.99688-14.776911-3.594384-22.365054-1.597504-7.188768-3.594384-14.776911-5.591264-21.965679-8.786271-28.75507-21.965679-56.312012-39.138845-81.073323-4.393136-5.99064-8.786271-11.981279-13.578783-17.971919-4.792512-5.591264-9.984399-11.182527-15.176287-16.773791-2.396256-2.795632-5.191888-5.591264-7.98752-7.987519l-8.386895-7.588144c-2.795632-2.396256-5.591264-5.191888-8.386896-7.588143l-9.185647-6.789392-9.185648-6.789391c-3.195008-2.396256-6.390016-3.99376-9.585023-5.99064l-9.585024-5.99064c-3.195008-1.99688-6.390016-3.99376-9.984399-5.591263-6.789392-3.195008-13.578783-6.789392-20.368175-9.585024-7.188768-2.795632-13.978159-5.191888-21.166926-7.987519-28.75507-9.185647-59.107644-13.978159-89.060843-14.377535z"
    fill="" p-id="3342"></path>
  <path
    d="M796.901602 318.302652l-0.399376-11.182527c-0.399376-7.588144-0.399376-15.176287-1.99688-22.365055-1.198128-7.588144-1.99688-14.776911-3.594384-22.365054-1.597504-7.188768-3.594384-14.776911-5.591264-21.965679-8.786271-28.75507-21.965679-56.312012-39.138845-81.073323-4.393136-5.99064-8.786271-11.981279-13.578783-17.971919-4.792512-5.591264-9.984399-11.182527-15.176287-16.773791-2.396256-2.795632-5.191888-5.591264-7.98752-7.987519l-8.386895-7.588144c-2.795632-2.396256-5.591264-5.191888-8.386896-7.588143l-9.185647-6.789392-9.185648-6.789391c-3.195008-2.396256-6.390016-3.99376-9.585023-5.99064L655.12313 75.881435c-3.195008-1.99688-6.390016-3.99376-9.984399-5.591263-6.789392-3.195008-13.578783-6.789392-20.368175-9.585024-7.188768-2.795632-13.978159-5.191888-21.166926-7.987519-28.355694-9.185647-58.708268-13.978159-88.661467-14.377535h-7.987519l-11.581904 0.399376c-7.588144 0.399376-15.176287 0.399376-22.365054 1.996879-7.588144 1.198128-14.776911 1.99688-22.365055 3.594384-7.188768 1.597504-14.776911 3.594384-21.965678 5.591264-29.154446 8.786271-56.312012 21.965679-81.472699 38.739469-24.76131 17.173167-46.327613 38.340094-64.698908 62.302653-17.971919 23.962559-32.74883 51.120125-41.934478 79.875195-9.185647 28.75507-13.978159 59.107644-14.377535 89.060842v384.599064l0.399376 11.182527c0.399376 7.588144 0.399376 15.176287 1.99688 22.365055 1.198128 7.588144 1.99688 14.776911 3.594384 22.365054 1.597504 7.188768 3.594384 14.776911 5.591264 21.965679 8.786271 28.75507 21.965679 56.312012 39.138845 81.073323 4.393136 5.99064 8.786271 11.981279 13.578783 17.971919 4.792512 5.591264 9.984399 11.182527 15.176287 16.773791 2.396256 2.795632 5.191888 5.591264 7.98752 7.987519l8.386895 7.588144c2.795632 2.396256 5.591264 5.191888 8.386896 7.588143l9.185647 6.789392 9.185648 6.789392c3.195008 2.396256 6.390016 3.99376 9.585023 5.990639l9.585023 5.99064c3.195008 1.99688 6.390016 3.99376 9.9844 5.591263 6.789392 3.195008 13.578783 6.789392 20.368175 9.585024 7.188768 2.795632 13.978159 5.191888 21.166926 7.987519 28.75507 9.585023 58.708268 14.377535 89.060843 14.377535h7.987519l11.182527-0.399376c7.588144-0.399376 15.176287-0.399376 22.365055-1.996879 7.588144-1.198128 14.776911-1.99688 22.365055-3.594384 7.188768-1.597504 14.776911-3.594384 21.965678-5.591264 29.154446-8.786271 56.312012-21.965679 81.472699-38.739469 24.76131-17.173167 46.327613-38.340094 64.698908-62.302652 17.971919-23.962559 32.74883-51.120125 41.934477-79.875195 9.585023-28.75507 14.377535-58.708268 14.776912-88.661467V322.695788c-0.399376-1.198128-0.399376-1.99688-0.399376-4.393136z m-19.170047 4.792512v380.205928c-0.399376 27.956318-4.792512 55.912637-13.578783 82.670827-8.786271 26.75819-22.365055 51.918877-39.138846 74.283931-16.773791 22.365055-37.141966 42.333853-60.305772 58.308893-23.163807 15.975039-48.723869 28.355694-75.881435 36.343213-6.789392 1.99688-13.578783 3.594384-20.368175 5.191888-6.789392 1.198128-13.978159 2.396256-20.767551 3.195008-6.789392 1.198128-13.978159 1.198128-20.767551 1.597504l-10.383775 0.399376h-7.987519c-27.956318-0.399376-55.912637-4.792512-82.670827-13.578783-6.789392-2.396256-13.179407-4.792512-19.968799-7.188768-6.390016-2.795632-12.780031-5.99064-19.170047-9.185647-3.195008-1.597504-6.390016-3.195008-9.185647-5.191888l-9.185648-5.591264c-2.795632-1.99688-5.99064-3.594384-8.786271-5.591263l-8.386896-6.390016-8.386895-6.390016c-2.795632-1.99688-5.191888-4.792512-7.98752-6.789391l-7.588143-7.188768c-2.795632-2.396256-5.191888-4.792512-7.588144-7.188767-4.792512-5.191888-9.585023-10.383775-13.978159-15.575663-4.393136-5.591264-8.386895-11.182527-12.780031-16.773791-15.975039-23.163807-28.355694-48.723869-36.343214-75.881436-1.99688-6.789392-3.594384-13.578783-5.191887-20.368174-1.198128-6.789392-2.396256-13.978159-3.195008-20.767551-1.198128-6.789392-1.198128-13.978159-1.597504-20.767551l-0.399376-10.383775V319.900156c0.399376-27.956318 4.792512-55.912637 13.578783-82.670827 8.786271-26.75819 22.365055-51.918877 39.138846-74.283931 16.773791-22.365055 37.141966-42.333853 60.305772-58.308893 23.163807-15.975039 48.723869-28.355694 75.881435-36.343213 6.789392-1.99688 13.578783-3.594384 20.368175-5.191888 6.789392-1.198128 13.978159-2.396256 20.767551-3.195008 6.789392-1.198128 13.978159-1.198128 20.76755-1.597504l10.383776-0.399376h7.987519c27.956318 0.399376 55.912637 4.792512 82.670827 13.578784 6.789392 2.396256 13.179407 4.792512 19.968799 7.188767 6.390016 2.795632 12.780031 5.99064 19.170047 9.185648 3.195008 1.597504 6.390016 3.195008 9.185647 5.191887l9.185647 5.591264c2.795632 1.99688 5.99064 3.594384 8.786272 5.591263l8.386895 6.390016 8.386896 6.390016c2.795632 1.99688 5.191888 4.792512 7.987519 6.789391l7.588144 7.188768c2.795632 2.396256 5.191888 4.792512 7.588143 7.188767 4.792512 5.191888 9.585023 10.383775 13.97816 15.575663 4.393136 5.591264 8.386895 11.182527 12.780031 16.773791 15.975039 23.163807 28.355694 48.723869 36.343213 75.881436 1.99688 6.789392 3.594384 13.578783 5.191888 20.368174 1.198128 6.789392 2.396256 13.978159 3.195008 20.767551 1.198128 6.789392 1.198128 13.978159 1.597504 20.767551l0.399376 10.383775v4.393136z"
    fill="#F2F2F2" p-id="3343"></path>
  <path
    d="M777.731555 318.702028l-0.399376-10.383775c-0.399376-7.188768-0.399376-13.978159-1.597504-20.767551-1.198128-6.789392-1.99688-13.978159-3.195008-20.767551-1.597504-6.789392-3.594384-13.578783-5.191888-20.368174-7.98752-27.157566-20.368175-52.717629-36.343213-75.881436-3.99376-5.591264-8.386895-11.182527-12.780031-16.773791-4.792512-5.191888-9.185647-10.383775-13.97816-15.575663-2.396256-2.795632-4.792512-5.191888-7.588143-7.188767l-7.588144-7.188768c-2.795632-2.396256-5.191888-4.792512-7.987519-6.789391l-8.386896-6.390016-8.386895-6.390016c-2.795632-1.99688-5.99064-3.594384-8.786272-5.591263l-9.185647-5.591264c-3.195008-1.99688-5.99064-3.594384-9.185647-5.191887-6.390016-3.195008-12.780031-5.99064-19.170047-9.185648-6.390016-2.396256-13.179407-4.792512-19.968799-7.188767C571.254176 62.702028 543.297857 58.308892 515.341539 57.909516h-7.987519l-10.383776 0.399376c-7.188768 0.399376-13.978159 0.399376-20.76755 1.597504-6.789392 1.198128-13.978159 1.99688-20.767551 3.195008-6.789392 1.597504-13.578783 3.594384-20.368175 5.191888-27.157566 7.98752-52.717629 20.368175-75.881435 36.343213-23.163807 15.975039-43.531981 35.943838-60.305772 58.308893-16.773791 22.365055-30.352574 47.525741-39.138846 74.283931-8.786271 26.75819-13.179407 54.714509-13.578783 82.670827v384.599064l0.399376 10.383775c0.399376 7.188768 0.399376 13.978159 1.597504 20.767551 1.198128 6.789392 1.99688 13.978159 3.195008 20.767551 1.597504 6.789392 3.594384 13.578783 5.191887 20.368174 7.98752 27.157566 20.368175 52.717629 36.343214 75.881436 3.99376 5.591264 8.386895 11.182527 12.780031 16.773791 4.792512 5.191888 9.185647 10.383775 13.978159 15.575663 2.396256 2.795632 4.792512 5.191888 7.588144 7.188767l7.588143 7.188768c2.795632 2.396256 5.191888 4.792512 7.98752 6.789391l8.386895 6.390016 8.386896 6.390016c2.795632 1.99688 5.99064 3.594384 8.786271 5.591263l9.185648 5.591264c3.195008 1.99688 5.99064 3.594384 9.185647 5.191888 6.390016 3.195008 12.780031 5.99064 19.170047 9.185647 6.390016 2.396256 13.179407 4.792512 19.968799 7.188768 26.75819 8.786271 54.714509 13.179407 82.670827 13.578783h7.987519l10.383775-0.399376c7.188768-0.399376 13.978159-0.399376 20.767551-1.597504 6.789392-1.198128 13.978159-1.99688 20.767551-3.195008 6.789392-1.597504 13.578783-3.594384 20.368175-5.191888 27.157566-7.98752 52.717629-20.368175 75.881435-36.343213 23.163807-15.975039 43.531981-35.943838 60.305772-58.308893 16.773791-22.365055 30.352574-47.525741 39.138846-74.283931 8.786271-26.75819 13.179407-54.714509 13.578783-82.670827V322.695788v-3.99376z m-19.170047 4.393136v380.205928c-0.399376 25.959438-4.393136 51.918877-12.780031 76.680187-7.98752 24.76131-20.767551 47.925117-36.343214 68.692668-15.575663 20.767551-34.346334 39.138846-55.912636 53.915757-21.566303 14.776911-45.129485 25.959438-70.290172 33.547581l-18.770671 4.792512c-6.390016 1.198128-12.780031 1.99688-19.170047 3.195008-6.390016 1.198128-12.780031 1.198128-19.569422 1.597504l-9.585024 0.399376h-7.987519c-25.959438-0.399376-51.918877-4.393136-76.680188-12.380655-5.99064-2.396256-12.380655-4.393136-18.371294-6.789392L395.528747 918.564743c-2.795632-1.198128-5.591264-3.195008-8.386896-4.792512l-8.386895-5.191888c-2.795632-1.597504-5.591264-3.195008-8.386896-5.191887l-7.987519-5.99064-7.98752-5.99064c-2.795632-1.99688-4.792512-4.393136-7.188767-6.390015l-7.188768-6.390016c-2.396256-1.99688-4.792512-4.393136-6.789391-6.789391l-13.179408-14.377536-11.581903-15.575663c-14.776911-21.566303-26.358814-45.129485-33.547582-70.290171l-4.792511-18.770671c-1.198128-6.390016-1.99688-12.780031-3.195008-19.170047-1.198128-6.390016-1.198128-12.780031-1.597504-19.569423l-0.399376-9.585023V319.900156c0.399376-25.959438 4.393136-51.918877 12.780031-76.680187 7.98752-24.76131 20.767551-47.925117 36.343214-68.692668 15.575663-20.767551 34.346334-39.138846 55.912636-53.915757 21.566303-14.776911 45.129485-25.959438 70.290172-33.547581l18.770671-4.792512c6.390016-1.198128 12.780031-1.99688 19.170047-3.195008 6.390016-1.198128 12.780031-1.198128 19.569422-1.597504l9.585024-0.399376h7.987519c25.959438 0.399376 51.918877 4.393136 76.680187 12.380655 5.99064 2.396256 12.380655 4.393136 18.371295 6.789392l17.572543 8.386895c2.795632 1.198128 5.591264 3.195008 8.386896 4.792512l8.386895 5.191888c2.795632 1.597504 5.591264 3.195008 8.386896 5.191888l7.987519 5.990639 7.98752 5.99064c2.795632 1.99688 4.792512 4.393136 7.188767 6.390015l7.188768 6.390016c2.396256 1.99688 4.792512 4.393136 6.789391 6.789392l13.179407 14.377535 11.581904 15.575663c14.776911 21.566303 26.358814 45.129485 33.547582 70.290171l4.792511 18.770671c1.198128 6.390016 1.99688 12.780031 3.195008 19.170047 1.198128 6.390016 1.198128 12.780031 1.597504 19.569423l0.399376 9.585023v4.393136z"
    fill="" p-id="3344"></path>
  <path
    d="M514.942163 95.850234v-19.170047c25.959438 0.399376 51.918877 4.393136 76.680187 12.380655 5.99064 2.396256 12.380655 4.393136 18.371295 6.789392l17.572543 8.386895c2.795632 1.198128 5.591264 3.195008 8.386896 4.792512l8.386895 5.191888c2.795632 1.597504 5.591264 3.195008 8.386896 5.191888l7.987519 5.990639 7.98752 5.99064c2.795632 1.99688 4.792512 4.393136 7.188767 6.390015l7.188768 6.390016c2.396256 1.99688 4.792512 4.393136 6.789391 6.789392l13.179407 14.377535 11.581904 15.575663c14.776911 21.566303 26.358814 45.129485 33.547582 70.290171l4.792511 18.770671c1.198128 6.390016 1.99688 12.780031 3.195008 19.170047 1.198128 6.390016 1.198128 12.780031 1.597504 19.569423l0.399376 9.585023V703.301092c-0.399376 25.959438-4.393136 51.918877-12.780031 76.680187-7.98752 24.76131-20.767551 47.925117-36.343214 68.692668-15.575663 20.767551-34.346334 39.138846-55.912636 53.915757-21.566303 14.776911-45.129485 25.959438-70.290172 33.547581l-18.770671 4.792512c-6.390016 1.198128-12.780031 1.99688-19.170047 3.195008-6.390016 1.198128-12.780031 1.198128-19.569422 1.597504l-9.585024 0.399376h-7.987519c-25.959438-0.399376-51.918877-4.393136-76.680188-12.380655-5.99064-2.396256-12.380655-4.393136-18.371294-6.789392l-17.572543-8.386895c-2.795632-1.198128-5.591264-3.195008-8.386896-4.792512l-8.386895-5.191888c-2.795632-1.597504-5.591264-3.195008-8.386896-5.191887l-7.987519-5.99064-7.98752-5.99064c-2.795632-1.99688-4.792512-4.393136-7.188767-6.390015L339.61611 878.627145c-2.396256-1.99688-4.792512-4.393136-6.789391-6.789391l-13.179408-14.377536-11.581903-15.575663c-14.776911-21.566303-26.358814-45.129485-33.547582-70.290171l-4.792511-18.770671c-1.198128-6.390016-1.99688-12.780031-3.195008-19.170047-1.198128-6.390016-1.198128-12.780031-1.597504-19.569423l-0.399376-9.585023V319.900156c0.399376-25.959438 4.393136-51.918877 12.780031-76.680187 7.98752-24.76131 20.767551-47.925117 36.343214-68.692668 15.575663-20.767551 34.346334-39.138846 55.912636-53.915757 21.566303-14.776911 45.129485-25.959438 70.290172-33.547581l18.770671-4.792512c6.390016-1.198128 12.780031-1.99688 19.170047-3.195008 6.390016-1.198128 12.780031-1.198128 19.569422-1.597504l9.585024-0.399376h7.987519V95.850234h-7.987519l-8.786272 0.399376c-5.99064 0.399376-11.981279 0.399376-17.971919 1.597504-5.99064 0.798752-11.981279 1.597504-17.971918 2.795632l-17.572543 4.393135C421.887561 111.825273 399.921882 122.209048 380.35246 135.787832c-19.968799 13.578783-37.141966 30.75195-51.519501 49.921996-14.377535 19.170047-25.959438 40.336973-33.547582 63.50078-7.588144 22.764431-11.182527 46.726989-11.581903 70.689548v384.199688l0.399376 8.786271c0.399376 5.99064 0.399376 11.981279 1.597504 17.971919 0.798752 5.99064 1.597504 11.981279 2.795631 17.971919l4.393136 17.572543c6.789392 23.163807 17.572543 44.730109 31.151326 64.698908l10.783151 14.377535 11.98128 13.179407c1.99688 2.396256 3.99376 4.393136 6.390015 6.390016l6.789392 5.99064c2.396256 1.99688 4.393136 3.99376 6.789391 5.990639l7.188768 5.591264 7.188768 5.191888c2.396256 1.99688 5.191888 3.195008 7.588143 4.792511l7.588144 4.792512c2.396256 1.597504 5.191888 3.195008 7.987519 4.393136l16.374415 7.987519c5.591264 1.99688 11.182527 3.99376 16.773791 6.390016 22.764431 7.588144 46.726989 11.182527 70.689548 11.581903h7.987519l8.786272-0.399376c5.99064-0.399376 11.981279-0.399376 17.971918-1.597504 5.99064-0.798752 11.981279-1.597504 17.971919-2.795632l17.572543-4.393135c23.163807-6.789392 44.730109-17.173167 64.698908-30.75195 19.968799-13.578783 37.141966-30.75195 51.519501-49.921997 14.377535-19.170047 25.959438-40.336973 33.547582-63.50078 7.588144-22.764431 11.182527-46.726989 11.581903-70.689548V326.689548v-7.98752l-0.399376-8.786271c-0.399376-5.99064-0.399376-11.981279-1.597504-17.971919-0.798752-5.99064-1.597504-11.981279-2.795632-17.971919l-4.393135-17.572543c-6.789392-23.163807-17.572543-44.730109-31.151326-64.698908l-10.783152-14.377535-11.981279-13.179407c-1.99688-2.396256-3.99376-4.393136-6.390015-6.390016l-6.789392-5.990639c-2.396256-1.99688-4.393136-3.99376-6.789392-5.99064l-7.188767-5.591264-7.188768-5.191887c-2.396256-1.99688-5.191888-3.195008-7.588143-4.792512l-7.588144-4.792512c-2.396256-1.597504-5.191888-3.195008-7.987519-4.393136l-16.374415-7.987519c-5.591264-1.99688-11.182527-3.99376-16.773791-6.390016-23.163807-6.789392-47.126365-10.383775-71.088924-10.783151z"
    fill="#F2F2F2" p-id="3345"></path>
  <path
    d="M739.391461 318.702028l-0.399376-8.786271c-0.399376-5.99064-0.399376-11.981279-1.597504-17.971919-0.798752-5.99064-1.597504-11.981279-2.795632-17.971919l-4.393135-17.572543c-6.789392-23.163807-17.572543-44.730109-31.151326-64.698908l-10.783152-14.377535-11.981279-13.179407c-1.99688-2.396256-3.99376-4.393136-6.390015-6.390016L663.11065 151.762871c-2.396256-1.99688-4.393136-3.99376-6.789392-5.99064l-7.188767-5.591264-7.188768-5.191887c-2.396256-1.99688-5.191888-3.195008-7.588143-4.792512l-7.588144-4.792512c-2.396256-1.597504-5.191888-3.195008-7.987519-4.393136l-16.374415-7.987519c-5.591264-1.99688-11.182527-3.99376-16.773791-6.390016-22.764431-6.789392-46.726989-10.383775-70.689548-10.783151h-7.987519l-8.786272 0.399376c-5.99064 0.399376-11.981279 0.399376-17.971919 1.597504-5.99064 0.798752-11.981279 1.597504-17.971918 2.795632l-17.572543 4.393135C421.887561 111.825273 399.921882 122.209048 380.35246 135.787832c-19.968799 13.578783-37.141966 30.75195-51.519501 49.921996-14.377535 19.170047-25.959438 40.336973-33.547582 63.50078-7.588144 22.764431-11.182527 46.726989-11.581903 70.689548v384.199688l0.399376 8.786271c0.399376 5.99064 0.399376 11.981279 1.597504 17.971919 0.798752 5.99064 1.597504 11.981279 2.795631 17.971919l4.393136 17.572543c6.789392 23.163807 17.572543 44.730109 31.151326 64.698908l10.783151 14.377535 11.98128 13.179407c1.99688 2.396256 3.99376 4.393136 6.390015 6.390016l6.789392 5.99064c2.396256 1.99688 4.393136 3.99376 6.789391 5.990639l7.188768 5.591264 7.188768 5.191888c2.396256 1.99688 5.191888 3.195008 7.588143 4.792511l7.588144 4.792512c2.396256 1.597504 5.191888 3.195008 7.987519 4.393136l16.374415 7.987519c5.591264 1.99688 11.182527 3.99376 16.773791 6.390016 22.764431 7.588144 46.726989 11.182527 70.689548 11.581903h7.987519l8.786272-0.399376c5.99064-0.399376 11.981279-0.399376 17.971918-1.597504 5.99064-0.798752 11.981279-1.597504 17.971919-2.795632l17.572543-4.393135c23.163807-6.789392 44.730109-17.173167 64.698908-30.75195 19.968799-13.578783 37.141966-30.75195 51.519501-49.921997 14.377535-19.170047 25.959438-40.336973 33.547582-63.50078 7.588144-22.764431 11.182527-46.726989 11.581903-70.689548V326.689548c-0.399376-2.396256-0.399376-4.792512-0.399376-7.98752z m-19.170047 71.088924v313.51014c-0.399376 21.965679-3.99376 43.931357-10.783151 64.698908-6.789392 20.767551-17.572543 40.336973-30.352574 57.909516-13.179407 17.572543-28.75507 33.148206-47.126365 45.528862a212.468019 212.468019 0 0 1-59.107644 28.355694c-20.767551 6.789392-43.531981 8.386895-64.698908 8.386895-21.965679-0.399376-43.931357-3.594384-64.698908-10.383775l-15.575663-5.591264-14.776911-7.188767c-2.396256-1.198128-4.792512-2.396256-7.188768-3.99376l-7.188768-4.393136c-2.396256-1.597504-4.792512-2.795632-6.789391-4.393136l-6.789392-4.792511-6.390015-4.792512c-2.396256-1.597504-3.99376-3.594384-5.99064-5.591264l-5.99064-5.591263c-1.99688-1.99688-3.99376-3.594384-5.990639-5.591264l-11.182527-12.380655-9.9844-13.179407a212.468019 212.468019 0 0 1-28.355694-59.107645c-6.789392-20.767551-8.386895-43.531981-8.386896-64.698908V319.900156c0.399376-21.965679 3.99376-43.931357 10.783152-64.698908 6.789392-20.767551 17.572543-40.336973 30.352574-57.909516 13.179407-17.572543 28.75507-33.148206 47.126365-45.528861 17.971919-12.380655 37.940718-21.965679 59.107644-28.355695 20.767551-6.789392 43.531981-8.386895 64.698908-8.386895 21.965679 0.399376 43.931357 3.594384 64.698908 10.383775l15.575663 5.591264 14.776911 7.188767c2.396256 1.198128 4.792512 2.396256 7.188768 3.99376l7.188767 4.393136c2.396256 1.597504 4.792512 2.795632 6.789392 4.393136l6.789392 4.792511 6.390015 4.792512c2.396256 1.597504 3.99376 3.594384 5.99064 5.591264l5.990639 5.591263c1.99688 1.99688 3.99376 3.594384 5.99064 5.591264l11.182527 12.380655 9.9844 13.179407c12.380655 17.971919 21.965679 37.940718 28.355694 59.107645 6.789392 20.767551 8.386895 43.531981 8.386895 64.698908v63.101404z"
    fill="" p-id="3346"></path>
  <path
    d="M711.834519 261.99064c-6.390016-21.166927-15.975039-41.135725-28.355694-59.107645l-9.9844-13.179407-11.182527-12.380655c-1.597504-1.99688-3.99376-3.99376-5.99064-5.591264l-5.990639-5.591263c-1.99688-1.597504-3.99376-3.594384-5.99064-5.591264l-6.390015-4.792512-6.789392-4.792511c-1.99688-1.597504-4.792512-2.795632-6.789392-4.393136l-7.188767-4.393136c-2.396256-1.597504-4.792512-2.795632-7.188768-3.99376l-14.776911-7.188767-15.575663-5.591264c-20.767551-6.789392-42.733229-10.383775-64.698908-10.383775-21.166927 0-43.931357 1.597504-64.698908 8.386895-21.166927 6.390016-41.135725 15.975039-59.107644 28.355695-18.371295 12.380655-33.946958 27.956318-47.126365 45.528861-13.179407 17.572543-23.962559 37.141966-30.352574 57.909516-6.789392 20.767551-10.383775 42.733229-10.783152 64.698908v376.212168c0 21.166927 1.99688 43.931357 8.386896 64.698908 6.390016 21.166927 15.975039 41.135725 28.355694 59.107645l9.9844 13.179407 11.182527 12.380655c1.597504 1.99688 3.99376 3.99376 5.990639 5.591264l5.99064 5.591263c1.99688 1.597504 3.99376 3.594384 5.99064 5.591264l6.390015 4.792512 6.789392 4.792512c1.99688 1.597504 4.792512 2.795632 6.789391 4.393135l7.188768 4.393136c2.396256 1.597504 4.792512 2.795632 7.188768 3.99376l14.776911 7.188767 15.575663 5.591264c20.767551 6.789392 42.733229 10.383775 64.698908 10.383775 21.166927 0 43.931357-1.597504 64.698908-8.386895 21.166927-6.390016 41.135725-15.975039 59.107644-28.355694 18.371295-12.380655 33.946958-27.956318 47.126365-45.528862 13.179407-17.572543 23.962559-37.141966 30.352574-57.909516 6.789392-20.767551 10.383775-42.733229 10.783151-64.698908V326.689548c0-21.166927-1.99688-43.531981-8.386895-64.698908z m-10.783151 64.698908v376.611544c-0.399376 19.968799-3.594384 39.538222-9.585024 58.708268-5.99064 19.170047-15.975039 36.74259-27.556942 52.717629-11.981279 15.975039-26.358814 29.953198-42.733229 41.135726-16.374415 11.182527-34.74571 19.968799-53.516381 25.560062l-14.377535 3.594384-14.776911 2.396256c-4.792512 1.198128-9.984399 0.798752-14.776911 1.198127l-7.588144 0.399376h-7.987519c-19.968799-0.399376-39.538222-3.594384-58.708269-9.585023l-13.978159-5.191888-13.578783-6.390015c-2.396256-0.798752-4.393136-2.396256-6.390016-3.594384l-6.390015-3.99376c-1.99688-1.198128-4.393136-2.396256-6.390016-3.99376l-5.990639-4.393135-5.99064-4.393136c-1.99688-1.597504-3.594384-3.195008-5.591264-4.792512l-5.591263-5.191887c-1.99688-1.597504-3.594384-3.195008-5.191888-5.191888l-9.984399-11.182527-8.786272-11.98128c-11.182527-16.374415-19.968799-34.346334-25.560062-53.51638l-3.594384-14.377535c-0.798752-4.792512-1.597504-9.984399-2.396256-14.776911-1.198128-4.792512-0.798752-9.984399-1.198128-14.776911l-0.399376-7.588144V319.900156c0.399376-19.968799 3.594384-39.538222 9.585024-58.708268 5.99064-19.170047 15.975039-36.74259 27.556942-52.717629 11.981279-15.975039 26.358814-29.953198 42.733229-41.135725 16.374415-11.182527 34.74571-19.968799 53.516381-25.560063l14.377535-3.594384 14.776911-2.396255c4.792512-1.198128 9.984399-0.798752 14.776911-1.198128l7.588144-0.399376h7.987519c19.968799 0.399376 39.538222 3.594384 58.708269 9.585023l13.978159 5.191888 13.578783 6.390015c2.396256 0.798752 4.393136 2.396256 6.390015 3.594384l6.390016 3.99376c1.99688 1.198128 4.393136 2.396256 6.390016 3.99376l5.990639 4.393135 5.99064 4.393136c1.99688 1.597504 3.594384 3.195008 5.591264 4.792512l5.591263 5.191887c1.99688 1.597504 3.594384 3.195008 5.191888 5.191888l9.984399 11.182527 8.786272 11.98128c11.182527 16.374415 19.968799 34.346334 25.560062 53.51638l3.594384 14.377535c0.798752 4.792512 1.597504 9.984399 2.396256 14.776911 1.198128 4.792512 0.798752 9.984399 1.198128 14.776912l0.399376 7.588143v7.588144z"
    fill="#F2F2F2" p-id="3347"></path>
  <path
    d="M701.051368 319.101404l-0.399376-7.588143c-0.399376-4.792512-0.399376-9.984399-1.198128-14.776912-0.798752-4.792512-1.597504-9.984399-2.396256-14.776911l-3.594384-14.377535c-5.591264-19.170047-14.377535-37.141966-25.560062-53.51638l-8.786272-11.98128-9.984399-11.182527c-1.597504-1.99688-3.594384-3.594384-5.191888-5.191888l-5.591263-5.191887c-1.99688-1.597504-3.594384-3.594384-5.591264-4.792512l-5.99064-4.393136-5.990639-4.393135c-1.99688-1.597504-4.393136-2.795632-6.390016-3.99376l-6.390016-3.99376c-1.99688-1.198128-4.393136-2.795632-6.390015-3.594384l-13.578783-6.390015-14.377535-5.191888c-18.770671-5.99064-38.73947-9.185647-58.708269-9.585023h-7.987519l-7.588144 0.399376c-4.792512 0.399376-9.984399 0-14.776911 1.198128l-14.776911 2.396255-14.377535 3.594384c-19.170047 5.591264-37.141966 14.377535-53.516381 25.560063-16.374415 11.182527-30.352574 25.560062-42.333853 41.535101s-21.566303 33.547582-27.556942 52.717629c-5.99064 18.770671-9.585023 38.73947-9.585024 58.708268V704.099844l0.399376 7.588144c0.399376 4.792512 0.399376 9.984399 1.198128 14.776911 0.798752 4.792512 1.597504 9.984399 2.396256 14.776911l3.594384 14.377535c5.591264 19.170047 14.377535 37.141966 25.560062 53.51638l8.786272 11.98128 9.984399 11.182527c1.597504 1.99688 3.594384 3.594384 5.191888 5.191888l5.591263 5.191887c1.99688 1.597504 3.594384 3.594384 5.591264 4.792512l5.99064 4.393136 5.990639 4.393135c1.99688 1.597504 4.393136 2.795632 6.390016 3.99376l6.390015 3.99376c1.99688 1.198128 4.393136 2.795632 6.390016 3.594384l13.578783 6.390015 13.978159 5.191888c18.770671 5.99064 38.73947 9.185647 58.708269 9.585023h7.987519l7.588144-0.399376c4.792512-0.399376 9.984399 0 14.776911-1.198127l14.776911-2.396256 14.377535-3.594384c19.170047-5.591264 37.141966-14.377535 53.516381-25.560062 16.374415-11.182527 30.75195-25.560062 42.733229-41.135726 11.981279-15.975039 21.566303-33.547582 27.556942-52.717629 5.99064-18.770671 9.585023-38.73947 9.585024-58.708268V326.689548v-7.588144z m-19.170047 7.588144v376.611544c-0.399376 17.971919-3.195008 35.544462-8.786272 52.717629-5.191888 17.173167-14.377535 32.74883-24.76131 47.126365-10.783151 13.978159-23.563183 27.157566-38.340094 37.141965-14.776911 9.984399-31.151326 17.971919-47.925117 23.163807l-12.780031 3.195008-13.179407 1.99688c-4.393136 0.798752-8.786271 0.798752-13.179407 1.198128l-6.789392 0.399376h-7.588143c-17.971919-0.399376-35.544462-3.195008-52.717629-8.786272l-12.380655-4.792512-11.98128-5.990639c-1.99688-0.798752-3.99376-1.99688-5.990639-3.195008l-5.591264-3.594384c-1.99688-1.198128-3.99376-1.99688-5.591263-3.594384l-5.191888-3.993759-5.191888-3.99376c-1.99688-1.198128-3.195008-2.795632-5.191888-4.393136l-4.792511-4.393135c-1.597504-1.597504-3.195008-2.795632-4.792512-4.792512l-9.185647-9.9844-7.98752-10.783151c-9.984399-14.776911-17.971919-30.75195-23.163806-47.925117l-3.195008-12.780031c-0.798752-4.393136-1.198128-8.786271-1.99688-13.179407-0.798752-4.393136-0.798752-8.786271-1.198128-13.179407l-0.399376-6.789392V319.900156c0.399376-17.971919 3.195008-35.544462 8.786271-52.717629 5.191888-17.173167 14.377535-32.74883 24.761311-47.126365 10.783151-13.978159 23.563183-27.157566 38.340094-37.141965 14.776911-9.984399 31.151326-17.971919 47.925117-23.163807l12.780031-3.195008 13.179407-1.99688c4.393136-0.798752 8.786271-0.798752 13.179407-1.198128l6.789392-0.399376H515.341539c17.971919 0.399376 35.544462 3.195008 52.717629 8.786272l12.380655 4.792512 11.981279 5.990639c1.99688 0.798752 3.99376 1.99688 5.99064 3.195008l5.591264 3.594384c1.99688 1.198128 3.99376 1.99688 5.591263 3.594384l5.191888 3.993759 5.191888 3.99376c1.99688 1.198128 3.195008 2.795632 5.191887 4.393136l4.792512 4.393136c1.597504 1.597504 3.195008 2.795632 4.792512 4.792511l9.185647 9.9844 7.98752 10.783151c9.984399 14.776911 17.971919 30.75195 23.163806 47.925117l3.195008 12.780031c0.798752 4.393136 1.198128 8.786271 1.99688 13.179407 0.798752 4.393136 0.798752 8.786271 1.198128 13.179407l0.399376 6.789392v7.588144z"
    fill="" p-id="3348"></path>
  <path
    d="M681.881321 319.101404l-0.399376-6.789392c-0.399376-4.393136 0-8.786271-1.198128-13.179407-0.798752-4.393136-1.198128-8.786271-1.99688-13.179407l-3.195008-12.780031c-5.191888-17.173167-12.780031-33.148206-23.163806-47.925117l-7.98752-10.783151-9.185647-9.9844-4.792512-4.792511-4.792512-4.393136c-1.597504-1.597504-3.195008-3.195008-5.191887-4.393136l-5.191888-3.99376-5.191888-3.993759c-1.597504-1.597504-3.594384-2.396256-5.591263-3.594384l-5.591264-3.594384c-1.99688-1.198128-3.594384-2.396256-5.99064-3.195008l-11.981279-5.990639-12.380655-4.792512c-16.773791-5.591264-34.74571-8.386895-52.717629-8.786272h-7.588143l-6.789392 0.399376c-4.393136 0.399376-8.786271 0-13.179407 1.198128l-13.179407 1.99688-12.780031 3.195008c-17.173167 5.191888-33.148206 12.780031-47.925117 23.163807-14.776911 9.984399-27.556942 22.764431-38.340094 37.141965-10.783151 14.377535-19.569423 29.953198-24.761311 47.126365-5.591264 16.773791-8.386895 34.74571-8.786271 52.717629V703.700468l0.399376 6.789392c0.399376 4.393136 0 8.786271 1.198128 13.179407 0.798752 4.393136 1.198128 8.786271 1.99688 13.179407l3.195008 12.780031c5.191888 17.173167 12.780031 33.148206 23.163806 47.925117l7.98752 10.783151 9.185647 9.9844 4.792512 4.792512 4.792511 4.393135c1.597504 1.597504 3.195008 3.195008 5.191888 4.393136l5.191888 3.99376 5.191888 3.99376c1.597504 1.597504 3.594384 2.396256 5.591263 3.594383l5.591264 3.594384c1.99688 1.198128 3.594384 2.396256 5.990639 3.195008l11.98128 5.990639 12.380655 4.792512c16.773791 5.591264 34.74571 8.386895 52.717629 8.786272h7.588143l6.789392-0.399376c4.393136-0.399376 8.786271 0 13.179407-1.198128l13.179407-1.99688 12.780031-3.195008c17.173167-5.191888 33.148206-12.780031 47.925117-23.163806 14.776911-9.984399 27.556942-22.764431 38.340094-37.141966 10.783151-14.377535 19.569423-29.953198 24.76131-47.126365 5.591264-16.773791 8.386895-34.74571 8.786272-52.717629V326.689548v-7.588144z m-19.170047 3.99376v380.205928c-0.399376 15.975039-2.795632 31.550702-7.588144 46.726989-4.792512 15.176287-12.380655 29.154446-21.965678 41.535102-9.585023 12.380655-20.767551 23.962559-33.946958 32.748829-13.179407 8.786271-27.556942 15.575663-42.333853 20.368175-3.99376 0.798752-7.588144 1.99688-11.581904 2.795632l-11.581903 1.597504c-3.99376 0.798752-7.98752 0.399376-11.981279 0.798752l-5.99064 0.399376h-7.588143c-15.975039-0.399376-31.550702-2.795632-46.726989-7.588144l-11.182528-3.993759c-3.594384-1.597504-7.188768-3.594384-10.783151-5.191888-1.99688-0.798752-3.594384-1.99688-5.191888-2.795632l-5.191887-3.195008c-1.597504-1.198128-3.594384-1.99688-5.191888-3.195008l-4.792512-3.594383-4.792511-3.594384c-1.597504-1.198128-2.795632-2.795632-4.393136-3.99376l-4.393136-3.99376c-1.597504-1.198128-2.795632-2.795632-4.393136-3.993759l-7.987519-8.786272-7.188768-9.585023c-8.786271-13.179407-15.975039-27.556942-20.368174-42.333854-0.798752-3.99376-1.99688-7.588144-2.795632-11.581903-0.798752-3.99376-1.198128-7.98752-1.99688-11.581903-0.798752-3.99376-0.798752-7.98752-0.798752-11.981279l-0.399376-5.99064v-383.400936c0.399376-15.975039 2.795632-31.550702 7.588143-46.726989 4.792512-15.176287 12.380655-29.154446 21.965679-41.535101 9.585023-12.380655 20.767551-23.962559 33.946958-32.74883 13.179407-8.786271 27.556942-15.575663 42.333853-20.368175 3.99376-0.798752 7.588144-1.99688 11.581904-2.795632l11.581903-1.597504c3.99376-0.798752 7.98752-0.399376 11.981279-0.798752l5.99064-0.399376h7.588143c15.975039 0.399376 31.550702 2.795632 46.726989 7.588144l11.182528 3.993759c3.594384 1.597504 7.188768 3.594384 10.783151 5.191888 1.99688 0.798752 3.594384 1.99688 5.191888 2.795632l5.191887 3.195008c1.597504 1.198128 3.594384 1.99688 5.191888 3.195008l4.792512 3.594383 4.792511 3.594384c1.597504 1.198128 2.795632 2.795632 4.393136 3.99376l4.393136 3.99376c1.597504 1.198128 2.795632 2.795632 4.393136 3.993759l7.987519 8.786272 7.188768 9.585023c8.786271 13.179407 15.975039 27.556942 20.368174 42.333854 0.798752 3.99376 1.99688 7.588144 2.795632 11.581903 0.798752 3.99376 1.198128 7.98752 1.99688 11.581903 0.798752 3.99376 0.798752 7.98752 0.798752 11.981279l0.399376 5.99064v3.195008z"
    fill="#F2F2F2" p-id="3349"></path>
  <path
    d="M662.711274 319.101404l-0.399376-5.99064c-0.399376-3.99376 0-7.98752-0.798752-11.981279s-1.198128-7.98752-1.99688-11.581903c-1.198128-3.99376-1.99688-7.588144-2.795632-11.581903-4.792512-15.176287-11.581903-29.553822-20.368174-42.333854l-7.188768-9.585023-7.987519-8.786272c-1.198128-1.597504-2.795632-2.795632-4.393136-3.993759l-4.393136-3.99376c-1.597504-1.198128-2.795632-2.795632-4.393136-3.99376l-4.792511-3.594384-4.792512-3.594383c-1.597504-1.198128-3.195008-1.99688-5.191888-3.195008l-5.191887-3.195008c-1.597504-1.198128-3.195008-1.99688-5.191888-2.795632-3.594384-1.597504-7.188768-3.195008-10.783151-5.191887l-11.182528-3.99376c-15.176287-4.792512-30.75195-7.188768-46.726989-7.588144h-7.588143l-5.99064 0.399376c-3.99376 0.399376-7.98752 0-11.981279 0.798752l-10.783151 2.396256c-3.99376 1.198128-7.588144 1.99688-11.581904 2.795632-15.176287 4.393136-29.553822 11.581903-42.333853 20.368175-13.179407 8.786271-24.361934 20.368175-33.946958 32.74883-9.585023 12.780031-17.173167 26.75819-21.965679 41.535101-4.792512 15.176287-7.588144 30.75195-7.588143 46.726989V703.700468l0.399376 5.99064c0.399376 3.99376 0 7.98752 0.798752 11.981279s1.198128 7.98752 1.99688 11.581903c1.198128 3.99376 1.99688 7.588144 2.795631 11.581903 4.792512 15.176287 11.581903 29.553822 20.368175 42.333854l7.188768 9.585023 7.987519 8.786272c1.198128 1.597504 2.795632 2.795632 4.393136 3.993759l4.393136 3.99376c1.597504 1.198128 2.795632 2.795632 4.393135 3.99376l4.792512 3.594384 4.792512 3.594383c1.597504 1.198128 3.195008 1.99688 5.191888 3.195008l5.191887 3.195008c1.597504 1.198128 3.195008 1.99688 5.191888 2.795632 3.594384 1.597504 7.188768 3.195008 10.783151 5.191888l11.182528 3.993759c15.176287 4.792512 30.75195 7.188768 46.726989 7.588144h7.588143l5.99064-0.399376c3.99376-0.399376 7.98752 0 11.981279-0.798752l11.581903-1.597504c3.99376-1.198128 7.588144-1.99688 11.581904-2.795632 15.176287-4.393136 29.553822-11.581903 42.333853-20.368175 13.179407-8.786271 24.361934-20.368175 33.946958-32.748829 9.585023-12.780031 17.173167-26.75819 21.965678-41.535102 4.792512-15.176287 7.588144-30.75195 7.588144-46.726989V322.695788c-0.798752-1.198128-0.798752-2.396256-0.798752-3.594384z m-19.170047 3.99376v380.205928c-0.399376 13.978159-2.396256 27.556942-6.789391 40.336974-3.99376 13.179407-10.783151 25.160686-19.170047 36.343213-8.386895 10.783151-17.971919 20.767551-29.553822 28.75507-11.182527 7.588144-23.962559 13.578783-37.141966 17.572543-3.195008 0.798752-6.789392 1.597504-9.984399 2.396256-3.195008 0.399376-6.789392 0.798752-9.9844 1.597504s-6.789392 0.399376-10.383775 0.798752l-5.191888 0.399376h-7.588143c-13.978159-0.399376-27.556942-2.396256-40.336974-6.789392l-9.585023-3.594383c-3.195008-1.597504-5.99064-3.195008-9.185648-4.393136-1.597504-0.798752-3.195008-1.597504-4.393135-2.396256l-4.393136-2.795632c-1.597504-0.798752-3.195008-1.597504-4.393136-2.795632l-3.99376-3.195007-3.993759-3.195008c-1.597504-0.798752-2.396256-2.396256-3.99376-3.594384l-3.99376-3.594384c-1.198128-1.198128-2.795632-2.396256-3.594384-3.594383-2.396256-2.396256-4.792512-5.191888-6.789391-7.588144l-5.99064-8.386895c-7.588144-11.182527-13.578783-23.962559-17.572543-36.74259-0.798752-3.195008-1.597504-6.789392-2.396256-9.9844l-1.597503-9.984399c-0.798752-3.195008-0.399376-6.789392-0.798752-10.383775l-0.399376-5.191888v-383.400936c0.399376-13.978159 2.396256-27.556942 6.789391-40.336973 3.99376-13.179407 10.783151-25.160686 19.170047-36.343214 8.386895-10.783151 17.971919-20.767551 29.553822-28.75507 11.182527-7.588144 23.962559-13.578783 37.141966-17.572543 3.195008-0.798752 6.789392-1.597504 9.984399-2.396256 3.195008-0.399376 6.789392-0.798752 9.9844-1.597504s6.789392-0.399376 10.383775-0.798752l3.99376-0.399376h7.588143c13.978159 0.399376 27.556942 2.396256 40.336974 6.789392l9.585023 3.594383c3.195008 1.597504 5.99064 3.195008 9.185648 4.393136 1.597504 0.798752 3.195008 1.597504 4.393135 2.396256l4.792512 2.795632c1.597504 0.798752 3.195008 1.597504 4.393136 2.795632l3.993759 3.195007 3.99376 3.195008c1.597504 0.798752 2.396256 2.396256 3.99376 3.594384l3.99376 3.594384c1.198128 1.198128 2.795632 2.396256 3.594383 3.594384 2.396256 2.396256 4.792512 5.191888 6.789392 7.588143l5.99064 8.386896c7.588144 11.182527 13.578783 23.962559 17.572543 36.742589 0.798752 3.195008 1.597504 6.789392 2.396255 9.9844l1.597504 9.984399c0.798752 3.195008 0.399376 6.789392 0.798752 10.383775l0.399376 5.191888c0.798752 0 0.798752 1.597504 0.798752 3.195008z"
    fill="" p-id="3350"></path>
  <path
    d="M643.541227 319.50078l-0.399376-5.191888c-0.399376-3.594384 0-6.789392-0.798752-10.383775l-1.597504-9.984399c-0.798752-3.195008-1.597504-6.789392-2.396255-9.9844-3.99376-13.179407-9.984399-25.560062-17.572543-36.742589l-5.99064-8.386896c-2.396256-2.396256-4.792512-5.191888-6.789392-7.588143l-3.594383-3.594384-3.99376-3.594384c-1.198128-1.198128-2.396256-2.396256-3.99376-3.594384l-3.99376-3.195008-3.993759-3.195007c-1.198128-1.198128-2.795632-1.597504-4.393136-2.795632l-4.393136-2.795632c-1.597504-0.798752-2.795632-1.99688-4.393136-2.396256-3.195008-1.597504-6.390016-2.795632-9.185647-4.393136l-9.585023-3.594383c-13.179407-3.99376-26.75819-6.390016-40.336974-6.789392h-6.789391l-1.99688 0.399376-5.191888 0.399376c-3.594384 0.399376-6.789392 0-10.383775 0.798752-3.195008 0.399376-6.789392 1.198128-9.9844 1.597504-3.195008 0.798752-6.789392 1.99688-9.984399 2.396256-13.179407 3.99376-25.560062 9.984399-37.141966 17.572543-11.581903 7.588144-21.166927 17.572543-29.553822 28.75507-7.98752 11.182527-15.176287 23.163807-19.170047 36.343214-4.393136 13.179407-6.390016 26.75819-6.789391 40.336973V703.700468l0.399376 5.191888c0.399376 3.594384 0 6.789392 0.798752 10.383775l1.597504 9.984399c0.798752 3.195008 1.597504 6.789392 2.396255 9.9844 3.99376 13.179407 9.984399 25.560062 17.572543 36.74259l5.99064 8.386895c2.396256 2.396256 4.792512 5.191888 6.789391 7.588144l3.594384 3.594383 3.99376 3.594384c1.198128 1.198128 2.396256 2.396256 3.99376 3.594384l3.99376 3.195008 3.993759 3.195007c1.198128 1.198128 2.795632 1.597504 4.393136 2.795632l4.393136 2.795632c1.597504 0.798752 2.795632 1.99688 4.393135 2.396256 3.195008 1.597504 6.390016 2.795632 9.185648 4.393136l9.585023 3.594383c13.179407 3.99376 26.75819 6.390016 40.336974 6.789392h7.588143l5.191888-0.399376c3.594384-0.399376 6.789392 0 10.383775-0.798752 3.195008-0.399376 6.789392-1.198128 9.9844-1.597504 3.195008-0.798752 6.789392-1.99688 9.984399-2.396256 13.179407-3.99376 25.560062-9.984399 37.141966-17.572543 11.581903-7.588144 21.166927-17.572543 29.553822-28.75507 7.98752-11.182527 15.176287-23.163807 19.170047-36.343214 4.393136-13.179407 6.390016-26.75819 6.789391-40.336973V322.695788c1.198128-1.198128 1.198128-2.795632 1.198128-3.195008z m-19.170047 3.594384v380.205928c-0.399376 11.981279-1.99688 23.563183-5.591263 34.346334-3.195008 11.182527-9.185647 21.566303-16.374415 30.75195-7.188768 9.185647-15.176287 17.971919-25.160687 24.361934-9.585023 6.390016-20.368175 11.581903-31.550702 15.176288-2.795632 0.798752-5.591264 1.198128-8.386895 2.396255-2.795632 0.399376-5.591264 0.798752-8.786272 1.198128-2.795632 0.798752-5.99064 0.399376-8.786271 0.798752l-4.393136 0.399376h-7.188767c-11.981279-0.399376-23.563183-1.99688-34.346334-5.591263-2.795632-1.198128-5.591264-1.99688-8.386896-2.795632-2.396256-1.198128-5.191888-2.795632-7.987519-3.99376-1.198128-0.399376-2.396256-1.198128-3.99376-1.99688l-3.594384-2.396256c-1.198128-0.798752-2.795632-1.198128-3.594383-2.396256l-3.594384-2.795631-3.594384-2.396256c-1.198128-0.798752-1.99688-1.99688-3.195008-2.795632l-3.195008-2.795632c-1.198128-0.798752-2.396256-1.99688-3.195007-3.195008-1.99688-2.396256-3.99376-4.393136-5.99064-6.390015-1.597504-2.396256-3.594384-4.792512-5.191888-7.188768-6.390016-9.585023-11.581903-20.368175-15.176287-31.550702-0.798752-2.795632-1.198128-5.591264-2.396256-8.386895-0.399376-2.795632-0.798752-5.591264-1.198128-8.786272-0.798752-2.795632-0.399376-5.99064-0.798752-8.786271l-0.399375-4.393136V319.900156c0.399376-11.981279 1.99688-23.563183 5.591263-34.346334 3.195008-11.182527 9.185647-21.566303 16.374415-30.75195 7.188768-9.185647 15.176287-17.971919 25.160687-24.361934 9.585023-6.390016 20.368175-11.581903 31.550702-15.176287 2.795632-0.798752 5.591264-1.198128 8.386895-2.396256 2.795632-0.399376 5.591264-0.798752 8.786272-1.198128 2.795632-0.798752 5.99064-0.399376 8.786271-0.798752l4.393136-0.399376h7.188767c11.981279 0.399376 23.563183 1.99688 34.346334 5.591263 2.795632 1.198128 5.591264 1.99688 8.386896 2.795632 2.396256 1.198128 5.191888 2.795632 7.987519 3.99376 1.198128 0.399376 2.396256 1.198128 3.99376 1.99688l3.594384 2.396256c1.198128 0.798752 2.795632 1.198128 3.594383 2.396256l3.594384 2.795631 3.594384 2.396256c1.198128 0.798752 1.99688 1.99688 3.195008 2.795632l3.195008 2.795632c1.198128 0.798752 2.396256 1.99688 3.195007 3.195008 1.99688 2.396256 3.99376 4.393136 5.99064 6.390015 1.597504 2.396256 3.594384 4.792512 5.191888 7.188768 6.390016 9.585023 11.581903 20.368175 15.176287 31.550702 0.798752 2.795632 1.198128 5.591264 2.396256 8.386895 0.399376 2.795632 0.798752 5.591264 1.198127 8.786272 0.798752 2.795632 0.399376 5.99064 0.798752 8.786271l0.399376 4.393136v3.99376z"
    fill="#F2F2F2" p-id="3351"></path>
  <path
    d="M605.201134 319.50078c0-1.198128-0.399376-2.396256-0.399376-3.594384-0.399376-2.396256 0-4.792512-0.399376-7.188767l-1.198128-7.188768c-0.798752-2.396256-1.198128-4.393136-1.99688-6.789391-2.795632-9.185647-7.188768-17.971919-12.380655-25.959439-1.597504-1.99688-2.795632-3.99376-4.393136-5.990639-1.597504-1.597504-3.195008-3.594384-4.792512-5.191888-0.798752-0.798752-1.597504-1.597504-2.795632-2.396256-0.798752-0.798752-1.99688-1.597504-2.795631-2.396256-0.798752-0.798752-1.597504-1.597504-2.795632-2.396256-1.198128-0.798752-1.99688-1.198128-2.795632-1.99688-0.798752-0.798752-1.99688-1.597504-2.795632-2.396255-0.798752-0.798752-1.99688-1.198128-3.195008-1.99688-1.198128-0.798752-1.99688-1.198128-3.195008-1.99688-1.198128-0.798752-1.99688-1.198128-3.195007-1.597504-2.396256-0.798752-4.393136-1.99688-6.390016-3.195008-2.396256-0.798752-4.393136-1.597504-6.789392-2.396256-9.185647-2.795632-18.770671-4.393136-28.355694-4.792511H507.35402c-1.198128 0-2.396256 0.399376-3.594384 0.399376-2.396256 0.399376-4.792512 0-7.188768 0.399376l-7.188767 1.198127c-2.396256 0.798752-4.393136 1.198128-6.789392 1.99688-9.185647 2.795632-17.971919 6.789392-25.959438 12.380656-7.98752 5.191888-14.776911 12.380655-20.767551 19.968798-5.591264 7.588144-10.783151 15.975039-13.578783 25.160687-2.795632 9.185647-4.393136 18.371295-4.792512 28.355694v383.400936c0 1.198128 0.399376 2.396256 0.399376 3.594384 0.399376 2.396256 0 4.792512 0.399376 7.188767l1.198128 7.188768c0.798752 2.396256 1.198128 4.393136 1.99688 6.789391 2.795632 9.185647 7.188768 17.971919 12.380655 25.959439 1.597504 1.99688 2.795632 3.99376 4.393136 5.990639 1.597504 1.597504 3.195008 3.594384 4.792512 5.191888 0.798752 0.798752 1.597504 1.597504 2.795632 2.396256 0.798752 0.798752 1.99688 1.597504 2.795631 2.396256 0.798752 0.798752 1.597504 1.597504 2.795632 2.396256 1.198128 0.798752 1.99688 1.198128 2.795632 1.99688 0.798752 0.798752 1.99688 1.597504 2.795632 2.396255 0.798752 0.798752 1.99688 1.198128 3.195008 1.99688 1.198128 0.798752 1.99688 1.198128 3.195007 1.99688 1.198128 0.798752 1.99688 1.198128 3.195008 1.597504 2.396256 0.798752 4.393136 1.99688 6.390016 3.195008 2.396256 0.798752 4.393136 1.597504 6.789391 2.396256 9.185647 2.795632 18.770671 4.393136 28.355695 4.792511H515.341539c1.198128 0 2.396256-0.399376 3.594384-0.399376 2.396256-0.399376 4.792512 0 7.188768-0.399375l7.188767-1.198128c2.396256-0.798752 4.393136-1.198128 6.789392-1.99688 9.185647-2.795632 17.971919-6.789392 25.959438-12.380656 7.98752-5.191888 14.776911-12.380655 20.767551-19.968798 5.591264-7.588144 10.783151-15.975039 13.578783-25.160687 2.795632-9.185647 4.393136-18.371295 4.792512-28.355694V322.695788 319.50078z m-19.170047 3.594384v380.205928c-0.399376 7.98752-1.597504 15.176287-3.594384 22.365055-1.99688 7.188768-5.99064 13.978159-10.383775 19.968798-4.792512 5.99064-9.984399 11.581903-16.374415 15.975039-6.390016 4.393136-13.179407 7.588144-20.368175 9.585024-1.99688 0.399376-3.594384 0.798752-5.591264 1.597504-1.99688 0.399376-3.594384 0.399376-5.591263 0.798752-1.99688 0.798752-3.99376 0-5.591264 0.399376-0.798752 0-1.99688 0-2.795632 0.399376h-7.188767c-7.98752-0.399376-15.176287-1.597504-22.365055-3.594384-1.597504-0.798752-3.594384-1.198128-5.191888-1.99688s-3.195008-1.99688-5.191887-2.396256c-0.798752-0.399376-1.597504-0.798752-2.396256-1.597504-0.798752-0.399376-1.597504-1.198128-2.396256-1.597504-0.798752-0.399376-1.597504-0.798752-2.396256-1.597504-0.798752-0.798752-1.597504-1.198128-2.396256-1.597504s-1.597504-1.198128-2.396256-1.597503c-0.798752-0.399376-1.198128-1.198128-1.996879-1.99688s-1.597504-1.198128-1.99688-1.99688c-0.798752-0.399376-1.597504-1.198128-1.99688-1.99688-1.198128-1.597504-2.396256-2.795632-3.99376-4.393136-1.198128-1.597504-1.99688-3.195008-3.195008-4.792511-4.393136-6.390016-7.588144-13.179407-9.585023-20.368175-0.399376-1.99688-0.798752-3.594384-1.597504-5.591264-0.399376-1.99688-0.399376-3.594384-0.798752-5.591263-0.798752-1.99688-0.399376-3.99376-0.399376-5.591264 0-0.798752 0-1.99688-0.399376-2.795632v-383.400936c0.399376-7.98752 1.597504-15.176287 3.594384-22.365055 1.99688-7.188768 5.99064-13.978159 10.383775-19.968798 4.792512-5.99064 9.984399-11.581903 16.374415-15.975039 6.390016-4.393136 13.179407-7.588144 20.368175-9.585024 1.99688-0.399376 3.594384-0.798752 5.591264-1.597504 1.99688-0.399376 3.594384-0.399376 5.591263-0.798752 1.99688-0.798752 3.99376 0 5.591264-0.399376 0.798752 0 1.99688 0 2.795632-0.399376H515.341539c7.98752 0.399376 15.176287 1.597504 22.365055 3.594384 1.597504 0.798752 3.594384 1.198128 5.191887 1.99688s3.195008 1.99688 5.191888 2.396256c0.798752 0.399376 1.597504 0.798752 2.396256 1.597504 0.798752 0.399376 1.597504 1.198128 2.396256 1.597504 0.798752 0.399376 1.597504 0.798752 2.396256 1.597504 0.798752 0.798752 1.597504 1.198128 2.396256 1.597504s1.597504 1.198128 2.396255 1.597503c0.798752 0.399376 1.198128 1.198128 1.99688 1.99688s1.597504 1.198128 1.99688 1.99688c0.798752 0.399376 1.597504 1.198128 1.99688 1.99688 1.198128 1.597504 2.396256 2.795632 3.99376 4.393136 1.198128 1.597504 1.99688 3.195008 3.195008 4.792512 4.393136 6.390016 7.588144 13.179407 9.585023 20.368174 0.399376 1.99688 0.798752 3.594384 1.597504 5.591264 0.399376 1.99688 0.399376 3.594384 0.798752 5.591264 0.798752 1.99688 0.399376 3.99376 0.399376 5.591263 0 0.798752 0 1.99688 0.399376 2.795632v3.195008z"
    fill="#F2F2F2" p-id="3352"></path>
  <path
    d="M624.37118 319.50078l-0.399376-4.393136c-0.399376-2.795632 0-5.99064-0.798752-8.786271-0.399376-2.795632-0.798752-5.591264-1.198127-8.786272l-2.396256-8.386895c-3.594384-11.182527-8.386895-21.566303-15.176287-31.550702-1.99688-2.396256-3.594384-4.792512-5.191888-7.188768-1.99688-1.99688-3.99376-4.393136-5.99064-6.390015-0.798752-1.198128-1.99688-1.99688-3.195007-3.195008l-3.195008-2.795632c-1.198128-0.798752-1.99688-1.99688-3.195008-2.795632l-3.594384-2.396256-3.594384-2.795631-3.594383-2.396256-3.594384-2.396256c-1.198128-0.798752-2.396256-1.597504-3.99376-1.99688-2.795632-1.198128-5.191888-2.396256-7.987519-3.99376-2.795632-0.798752-5.591264-1.99688-8.386896-2.795632-11.182527-3.594384-22.764431-5.191888-34.346334-5.591263H507.35402l-4.393136 0.399376c-2.795632 0.399376-5.99064 0-8.786271 0.798752-2.795632 0.399376-5.591264 0.798752-8.786272 1.198128l-8.386895 2.396256c-11.182527 3.594384-21.566303 8.386895-31.550702 15.176287-9.585023 6.390016-17.971919 15.176287-25.160687 24.361934-6.789392 9.185647-12.780031 19.569423-16.374415 30.75195-3.594384 11.182527-5.591264 22.764431-5.591263 34.346334v383.400936l0.399375 4.393136c0.399376 2.795632 0 5.99064 0.798752 8.786271 0.399376 2.795632 0.798752 5.591264 1.198128 8.786272l2.396256 8.386895c3.594384 11.182527 8.386895 21.566303 15.176287 31.550702 1.99688 2.396256 3.594384 4.792512 5.191888 7.188768 1.99688 1.99688 3.99376 4.393136 5.99064 6.390015 0.798752 1.198128 1.99688 1.99688 3.195007 3.195008l3.195008 2.795632c1.198128 0.798752 1.99688 1.99688 3.195008 2.795632l3.594384 2.396256 3.594384 2.795631 3.594383 2.396256 3.594384 2.396256c1.198128 0.798752 2.396256 1.597504 3.99376 1.99688 2.795632 1.198128 5.191888 2.396256 7.987519 3.99376 2.795632 0.798752 5.591264 1.99688 8.386896 2.795632 11.182527 3.594384 22.764431 5.191888 34.346334 5.591263H515.341539l4.393136-0.399376c2.795632-0.399376 5.99064 0 8.786271-0.798752 2.795632-0.399376 5.591264-0.798752 8.786272-1.198128l8.386895-2.396255c11.182527-3.594384 21.566303-8.386895 31.550702-15.176288 9.585023-6.390016 17.971919-15.176287 25.160687-24.361934 6.789392-9.185647 12.780031-19.569423 16.374415-30.75195 3.594384-11.182527 5.591264-22.764431 5.591263-34.346334V322.695788 319.50078z m-19.170046 3.594384v380.205928c-0.399376 9.984399-1.99688 19.170047-4.792512 28.355694s-7.588144 17.572543-13.578783 25.160687c-5.99064 7.588144-12.780031 14.776911-20.767551 19.968798-7.98752 5.591264-16.773791 9.585023-25.959438 12.380656-2.396256 0.399376-4.792512 1.198128-6.789392 1.99688-2.396256 0.399376-4.792512 0.399376-7.188767 1.198127-2.396256 0.798752-4.792512 0.399376-7.188768 0.399376-1.198128 0-2.396256 0-3.594384 0.399376h-7.188767c-9.984399-0.399376-19.170047-1.99688-28.355695-4.792511-2.396256-0.798752-4.393136-1.597504-6.789391-2.396256-1.99688-1.198128-4.393136-2.396256-6.390016-3.195008-1.198128-0.399376-1.99688-1.198128-3.195008-1.597504-1.198128-0.798752-1.99688-1.198128-3.195007-1.99688-1.198128-0.798752-1.99688-1.198128-3.195008-1.99688-0.798752-0.798752-1.99688-1.597504-2.795632-2.396255-0.798752-0.798752-1.99688-1.597504-2.795632-1.99688-1.198128-0.798752-1.597504-1.597504-2.795632-2.396256-0.798752-0.798752-1.597504-1.597504-2.795631-2.396256-0.798752-0.798752-1.99688-1.597504-2.795632-2.396256-1.597504-1.99688-3.195008-3.594384-4.792512-5.191888-1.198128-1.99688-2.795632-3.99376-4.393136-5.990639-5.591264-7.98752-9.585023-16.773791-12.380655-25.959439-0.399376-2.396256-1.198128-4.792512-1.99688-6.789391-0.399376-2.396256-0.399376-4.792512-1.198128-7.188768-0.798752-2.396256-0.399376-4.792512-0.399376-7.188767 0-1.198128 0-2.396256-0.399376-3.594384V319.900156c0.399376-9.984399 1.99688-19.170047 4.792512-28.355694s7.588144-17.572543 13.578783-25.160687c5.99064-7.588144 12.780031-14.776911 20.767551-19.968798 7.98752-5.591264 16.773791-9.585023 25.959438-12.380656 2.396256-0.399376 4.792512-1.198128 6.789392-1.99688 2.396256-0.399376 4.792512-0.399376 7.188767-1.198127 2.396256-0.798752 4.792512-0.399376 7.188768-0.399376 1.198128 0 2.396256 0 3.594384-0.399376h7.188767c9.984399 0.399376 19.170047 1.99688 28.355694 4.792511 2.396256 0.798752 4.393136 1.597504 6.789392 2.396256 1.99688 1.198128 4.393136 2.396256 6.390016 3.195008 1.198128 0.399376 1.99688 1.198128 3.195007 1.597504 1.198128 0.798752 1.99688 1.198128 3.195008 1.99688 1.198128 0.798752 1.99688 1.198128 3.195008 1.99688 0.798752 0.798752 1.99688 1.597504 2.795632 2.396255 0.798752 0.798752 1.99688 1.597504 2.795632 1.99688 1.198128 0.798752 1.597504 1.597504 2.795632 2.396256 0.798752 0.798752 1.597504 1.597504 2.795631 2.396256 0.798752 0.798752 1.99688 1.597504 2.795632 2.396256 1.597504 1.99688 3.195008 3.594384 4.792512 5.191888 1.198128 1.99688 2.795632 3.99376 4.393136 5.990639 5.591264 7.98752 9.585023 16.773791 12.380655 25.959439 0.399376 2.396256 1.198128 4.792512 1.99688 6.789391 0.399376 2.396256 0.399376 4.792512 1.198128 7.188768 0.798752 2.396256 0.399376 4.792512 0.399376 7.188767 0 1.198128 0 2.396256 0.399376 3.594384v3.594384z"
    fill="" p-id="3353"></path>
</svg>