<svg t="1625576705396" class="icon" viewBox="0 0 1024 1024" version="1.1" xmlns="http://www.w3.org/2000/svg" p-id="5002"
  width="200" height="200">
  <path d="M330.609 368.461m-93.895 0a93.895 93.895 0 1 0 187.79 0 93.895 93.895 0 1 0-187.79 0Z" fill="#3D75FF"
    p-id="5003"></path>
  <path d="M331.334 352.292m-93.895 0a93.895 93.895 0 1 0 187.79 0 93.895 93.895 0 1 0-187.79 0Z" fill="#3C74FE"
    p-id="5004"></path>
  <path d="M333.468 336.533m-93.895 0a93.895 93.895 0 1 0 187.79 0 93.895 93.895 0 1 0-187.79 0Z" fill="#3C73FC"
    p-id="5005"></path>
  <path d="M336.946 321.246m-93.895 0a93.895 93.895 0 1 0 187.79 0 93.895 93.895 0 1 0-187.79 0Z" fill="#3B72FB"
    p-id="5006"></path>
  <path d="M341.706 306.495m-93.895 0a93.895 93.895 0 1 0 187.79 0 93.895 93.895 0 1 0-187.79 0Z" fill="#3B71FA"
    p-id="5007"></path>
  <path d="M347.685 292.344m-93.895 0a93.895 93.895 0 1 0 187.79 0 93.895 93.895 0 1 0-187.79 0Z" fill="#3A70F8"
    p-id="5008"></path>
  <path d="M354.821 278.856m-93.895 0a93.895 93.895 0 1 0 187.79 0 93.895 93.895 0 1 0-187.79 0Z" fill="#3A6FF7"
    p-id="5009"></path>
  <path d="M363.05 266.094m-93.895 0a93.895 93.895 0 1 0 187.79 0 93.895 93.895 0 1 0-187.79 0Z" fill="#396DF6"
    p-id="5010"></path>
  <path d="M372.309 254.122m-93.895 0a93.895 93.895 0 1 0 187.79 0 93.895 93.895 0 1 0-187.79 0Z" fill="#396CF4"
    p-id="5011"></path>
  <path d="M382.535 243.003m-93.895 0a93.895 93.895 0 1 0 187.79 0 93.895 93.895 0 1 0-187.79 0Z" fill="#386BF3"
    p-id="5012"></path>
  <path d="M393.665 232.801m-93.895 0a93.895 93.895 0 1 0 187.79 0 93.895 93.895 0 1 0-187.79 0Z" fill="#386AF1"
    p-id="5013"></path>
  <path d="M405.636 223.579m-93.895 0a93.895 93.895 0 1 0 187.79 0 93.895 93.895 0 1 0-187.79 0Z" fill="#3769F0"
    p-id="5014"></path>
  <path d="M418.386 215.4m-93.895 0a93.895 93.895 0 1 0 187.79 0 93.895 93.895 0 1 0-187.79 0Z" fill="#3668EF"
    p-id="5015"></path>
  <path d="M431.851 208.329m-93.895 0a93.895 93.895 0 1 0 187.79 0 93.895 93.895 0 1 0-187.79 0Z" fill="#3667ED"
    p-id="5016"></path>
  <path d="M445.968 202.427m-93.895 0a93.895 93.895 0 1 0 187.79 0 93.895 93.895 0 1 0-187.79 0Z" fill="#3566EC"
    p-id="5017"></path>
  <path d="M460.675 197.759m-93.895 0a93.895 93.895 0 1 0 187.79 0 93.895 93.895 0 1 0-187.79 0Z" fill="#3565EB"
    p-id="5018"></path>
  <path d="M475.908 194.388m-93.895 0a93.895 93.895 0 1 0 187.79 0 93.895 93.895 0 1 0-187.79 0Z" fill="#3464E9"
    p-id="5019"></path>
  <path d="M491.604 192.378m-93.895 0a93.895 93.895 0 1 0 187.79 0 93.895 93.895 0 1 0-187.79 0Z" fill="#3463E8"
    p-id="5020"></path>
  <path d="M507.697 191.791m-93.895 0a93.895 93.895 0 1 0 187.79 0 93.895 93.895 0 1 0-187.79 0Z" fill="#3362E7"
    p-id="5021"></path>
  <path d="M523.72 192.664m-93.895 0a93.895 93.895 0 1 0 187.79 0 93.895 93.895 0 1 0-187.79 0Z" fill="#3360E5"
    p-id="5022"></path>
  <path d="M539.329 194.948m-93.895 0a93.895 93.895 0 1 0 187.79 0 93.895 93.895 0 1 0-187.79 0Z" fill="#325FE4"
    p-id="5023"></path>
  <path d="M554.463 198.58m-93.895 0a93.895 93.895 0 1 0 187.79 0 93.895 93.895 0 1 0-187.79 0Z" fill="#325EE3"
    p-id="5024"></path>
  <path d="M569.059 203.497m-93.895 0a93.895 93.895 0 1 0 187.79 0 93.895 93.895 0 1 0-187.79 0Z" fill="#315DE1"
    p-id="5025"></path>
  <path d="M583.052 209.634m-93.895 0a93.895 93.895 0 1 0 187.79 0 93.895 93.895 0 1 0-187.79 0Z" fill="#305CE0"
    p-id="5026"></path>
  <path d="M596.381 216.93m-93.895 0a93.895 93.895 0 1 0 187.79 0 93.895 93.895 0 1 0-187.79 0Z" fill="#305BDE"
    p-id="5027"></path>
  <path d="M608.982 225.32m-93.895 0a93.895 93.895 0 1 0 187.79 0 93.895 93.895 0 1 0-187.79 0Z" fill="#2F5ADD"
    p-id="5028"></path>
  <path d="M620.792 234.74m-93.895 0a93.895 93.895 0 1 0 187.79 0 93.895 93.895 0 1 0-187.79 0Z" fill="#2F59DC"
    p-id="5029"></path>
  <path d="M631.749 245.129m-93.895 0a93.895 93.895 0 1 0 187.79 0 93.895 93.895 0 1 0-187.79 0Z" fill="#2E58DA"
    p-id="5030"></path>
  <path d="M641.789 256.421m-93.895 0a93.895 93.895 0 1 0 187.79 0 93.895 93.895 0 1 0-187.79 0Z" fill="#2E57D9"
    p-id="5031"></path>
  <path d="M650.849 268.554m-93.895 0a93.895 93.895 0 1 0 187.79 0 93.895 93.895 0 1 0-187.79 0Z" fill="#2D56D8"
    p-id="5032"></path>
  <path d="M658.867 281.464m-93.895 0a93.895 93.895 0 1 0 187.79 0 93.895 93.895 0 1 0-187.79 0Z" fill="#2D55D6"
    p-id="5033"></path>
  <path d="M665.779 295.088m-93.895 0a93.895 93.895 0 1 0 187.79 0 93.895 93.895 0 1 0-187.79 0Z" fill="#2C54D5"
    p-id="5034"></path>
  <path d="M671.523 309.363m-93.895 0a93.895 93.895 0 1 0 187.79 0 93.895 93.895 0 1 0-187.79 0Z" fill="#2C52D4"
    p-id="5035"></path>
  <path d="M676.035 324.224m-93.895 0a93.895 93.895 0 1 0 187.79 0 93.895 93.895 0 1 0-187.79 0Z" fill="#2B51D2"
    p-id="5036"></path>
  <path d="M679.253 339.61m-93.895 0a93.895 93.895 0 1 0 187.79 0 93.895 93.895 0 1 0-187.79 0Z" fill="#2A50D1"
    p-id="5037"></path>
  <path d="M681.113 355.455m-93.895 0a93.895 93.895 0 1 0 187.79 0 93.895 93.895 0 1 0-187.79 0Z" fill="#2A4FD0"
    p-id="5038"></path>
  <path d="M681.551 371.609m-93.895 0a93.895 93.895 0 1 0 187.79 0 93.895 93.895 0 1 0-187.79 0Z" fill="#294ECE"
    p-id="5039"></path>
  <path d="M680.509 387.792m-93.895 0a93.895 93.895 0 1 0 187.79 0 93.895 93.895 0 1 0-187.79 0Z" fill="#294DCD"
    p-id="5040"></path>
  <path d="M678.081 403.989m-93.895 0a93.895 93.895 0 1 0 187.79 0 93.895 93.895 0 1 0-187.79 0Z" fill="#284CCB"
    p-id="5041"></path>
  <path d="M674.405 419.66m-93.895 0a93.895 93.895 0 1 0 187.79 0 93.895 93.895 0 1 0-187.79 0Z" fill="#284BCA"
    p-id="5042"></path>
  <path d="M669.619 434.266m-93.895 0a93.895 93.895 0 1 0 187.79 0 93.895 93.895 0 1 0-187.79 0Z" fill="#274AC9"
    p-id="5043"></path>
  <path d="M663.861 447.264m-93.895 0a93.895 93.895 0 1 0 187.79 0 93.895 93.895 0 1 0-187.79 0Z" fill="#2749C7"
    p-id="5044"></path>
  <path d="M655.934 459.119m-93.895 0a93.895 93.895 0 1 0 187.79 0 93.895 93.895 0 1 0-187.79 0Z" fill="#2648C6"
    p-id="5045"></path>
  <path d="M644.737 469.77m-93.895 0a93.895 93.895 0 1 0 187.79 0 93.895 93.895 0 1 0-187.79 0Z" fill="#2647C5"
    p-id="5046"></path>
  <path d="M633.499 480.376m-93.895 0a93.895 93.895 0 1 0 187.79 0 93.895 93.895 0 1 0-187.79 0Z" fill="#2546C3"
    p-id="5047"></path>
  <path d="M622.261 490.983m-93.895 0a93.895 93.895 0 1 0 187.79 0 93.895 93.895 0 1 0-187.79 0Z" fill="#2444C2"
    p-id="5048"></path>
  <path d="M611.023 501.59m-93.895 0a93.895 93.895 0 1 0 187.79 0 93.895 93.895 0 1 0-187.79 0Z" fill="#2443C1"
    p-id="5049"></path>
  <path d="M599.785 512.196m-93.895 0a93.895 93.895 0 1 0 187.79 0 93.895 93.895 0 1 0-187.79 0Z" fill="#2342BF"
    p-id="5050"></path>
  <path d="M588.547 522.803m-93.895 0a93.895 93.895 0 1 0 187.79 0 93.895 93.895 0 1 0-187.79 0Z" fill="#2341BE"
    p-id="5051"></path>
  <path d="M577.309 533.409m-93.895 0a93.895 93.895 0 1 0 187.79 0 93.895 93.895 0 1 0-187.79 0Z" fill="#2240BD"
    p-id="5052"></path>
  <path d="M566.071 544.016m-93.895 0a93.895 93.895 0 1 0 187.79 0 93.895 93.895 0 1 0-187.79 0Z" fill="#223FBB"
    p-id="5053"></path>
  <path d="M554.832 554.623m-93.895 0a93.895 93.895 0 1 0 187.79 0 93.895 93.895 0 1 0-187.79 0Z" fill="#213EBA"
    p-id="5054"></path>
  <path d="M543.594 565.229m-93.895 0a93.895 93.895 0 1 0 187.79 0 93.895 93.895 0 1 0-187.79 0Z" fill="#213DB8"
    p-id="5055"></path>
  <path d="M532.356 575.836m-93.895 0a93.895 93.895 0 1 0 187.79 0 93.895 93.895 0 1 0-187.79 0Z" fill="#203CB7"
    p-id="5056"></path>
  <path d="M521.118 586.442m-93.895 0a93.895 93.895 0 1 0 187.79 0 93.895 93.895 0 1 0-187.79 0Z" fill="#203BB6"
    p-id="5057"></path>
  <path d="M509.88 597.049m-93.895 0a93.895 93.895 0 1 0 187.79 0 93.895 93.895 0 1 0-187.79 0Z" fill="#1F3AB4"
    p-id="5058"></path>
  <path d="M498.642 607.656m-93.895 0a93.895 93.895 0 1 0 187.79 0 93.895 93.895 0 1 0-187.79 0Z" fill="#1F39B3"
    p-id="5059"></path>
  <path d="M487.404 618.262m-93.895 0a93.895 93.895 0 1 0 187.79 0 93.895 93.895 0 1 0-187.79 0Z" fill="#1E37B2"
    p-id="5060"></path>
  <path d="M476.166 628.869m-93.895 0a93.895 93.895 0 1 0 187.79 0 93.895 93.895 0 1 0-187.79 0Z" fill="#1D36B0"
    p-id="5061"></path>
  <path d="M464.928 639.475m-93.895 0a93.895 93.895 0 1 0 187.79 0 93.895 93.895 0 1 0-187.79 0Z" fill="#1D35AF"
    p-id="5062"></path>
  <path d="M453.69 650.082m-93.895 0a93.895 93.895 0 1 0 187.79 0 93.895 93.895 0 1 0-187.79 0Z" fill="#1C34AE"
    p-id="5063"></path>
  <path d="M442.451 660.689m-93.895 0a93.895 93.895 0 1 0 187.79 0 93.895 93.895 0 1 0-187.79 0Z" fill="#1C33AC"
    p-id="5064"></path>
  <path d="M431.213 671.295m-93.895 0a93.895 93.895 0 1 0 187.79 0 93.895 93.895 0 1 0-187.79 0Z" fill="#1B32AB"
    p-id="5065"></path>
  <path d="M419.975 681.902m-93.895 0a93.895 93.895 0 1 0 187.79 0 93.895 93.895 0 1 0-187.79 0Z" fill="#1B31AA"
    p-id="5066"></path>
  <path d="M408.737 692.508m-93.895 0a93.895 93.895 0 1 0 187.79 0 93.895 93.895 0 1 0-187.79 0Z" fill="#1A30A8"
    p-id="5067"></path>
  <path d="M397.499 703.115m-93.895 0a93.895 93.895 0 1 0 187.79 0 93.895 93.895 0 1 0-187.79 0Z" fill="#1A2FA7"
    p-id="5068"></path>
  <path d="M386.261 713.722m-93.895 0a93.895 93.895 0 1 0 187.79 0 93.895 93.895 0 1 0-187.79 0Z" fill="#192EA5"
    p-id="5069"></path>
  <path d="M375.023 724.328m-93.895 0a93.895 93.895 0 1 0 187.79 0 93.895 93.895 0 1 0-187.79 0Z" fill="#192DA4"
    p-id="5070"></path>
  <path d="M363.785 734.935m-93.895 0a93.895 93.895 0 1 0 187.79 0 93.895 93.895 0 1 0-187.79 0Z" fill="#182CA3"
    p-id="5071"></path>
  <path d="M352.547 745.541m-93.895 0a93.895 93.895 0 1 0 187.79 0 93.895 93.895 0 1 0-187.79 0Z" fill="#172BA1"
    p-id="5072"></path>
  <path d="M341.309 756.148m-93.895 0a93.895 93.895 0 1 0 187.79 0 93.895 93.895 0 1 0-187.79 0Z" fill="#1729A0"
    p-id="5073"></path>
  <path d="M330.07 766.755m-93.895 0a93.895 93.895 0 1 0 187.79 0 93.895 93.895 0 1 0-187.79 0Z" fill="#16289F"
    p-id="5074"></path>
  <path d="M318.832 777.361m-93.895 0a93.895 93.895 0 1 0 187.79 0 93.895 93.895 0 1 0-187.79 0Z" fill="#16279D"
    p-id="5075"></path>
  <path d="M307.594 787.968m-93.895 0a93.895 93.895 0 1 0 187.79 0 93.895 93.895 0 1 0-187.79 0Z" fill="#15269C"
    p-id="5076"></path>
  <path d="M296.356 798.574m-93.895 0a93.895 93.895 0 1 0 187.79 0 93.895 93.895 0 1 0-187.79 0Z" fill="#15259B"
    p-id="5077"></path>
  <path d="M285.256 809.694m-93.895 0a93.895 93.895 0 1 0 187.79 0 93.895 93.895 0 1 0-187.79 0Z" fill="#142499"
    p-id="5078"></path>
  <path d="M285.123 824.039m-93.895 0a93.895 93.895 0 1 0 187.79 0 93.895 93.895 0 1 0-187.79 0Z" fill="#142398"
    p-id="5079"></path>
  <path d="M298.128 831m-93.895 0a93.895 93.895 0 1 0 187.79 0 93.895 93.895 0 1 0-187.79 0Z" fill="#132297"
    p-id="5080"></path>
  <path d="M313.581 831m-93.895 0a93.895 93.895 0 1 0 187.79 0 93.895 93.895 0 1 0-187.79 0Z" fill="#132195"
    p-id="5081"></path>
  <path d="M329.034 831m-93.895 0a93.895 93.895 0 1 0 187.79 0 93.895 93.895 0 1 0-187.79 0Z" fill="#122094"
    p-id="5082"></path>
  <path d="M344.487 831m-93.895 0a93.895 93.895 0 1 0 187.79 0 93.895 93.895 0 1 0-187.79 0Z" fill="#111F92"
    p-id="5083"></path>
  <path d="M359.94 831m-93.895 0a93.895 93.895 0 1 0 187.79 0 93.895 93.895 0 1 0-187.79 0Z" fill="#111E91" p-id="5084">
  </path>
  <path d="M375.393 831m-93.895 0a93.895 93.895 0 1 0 187.79 0 93.895 93.895 0 1 0-187.79 0Z" fill="#101D90"
    p-id="5085"></path>
  <path d="M390.846 831m-93.895 0a93.895 93.895 0 1 0 187.79 0 93.895 93.895 0 1 0-187.79 0Z" fill="#101B8E"
    p-id="5086"></path>
  <path d="M406.299 831m-93.895 0a93.895 93.895 0 1 0 187.79 0 93.895 93.895 0 1 0-187.79 0Z" fill="#0F1A8D"
    p-id="5087"></path>
  <path d="M421.752 831m-93.895 0a93.895 93.895 0 1 0 187.79 0 93.895 93.895 0 1 0-187.79 0Z" fill="#0F198C"
    p-id="5088"></path>
  <path d="M437.205 831m-93.895 0a93.895 93.895 0 1 0 187.79 0 93.895 93.895 0 1 0-187.79 0Z" fill="#0E188A"
    p-id="5089"></path>
  <path d="M452.658 831m-93.895 0a93.895 93.895 0 1 0 187.79 0 93.895 93.895 0 1 0-187.79 0Z" fill="#0E1789"
    p-id="5090"></path>
  <path d="M468.111 831m-93.895 0a93.895 93.895 0 1 0 187.79 0 93.895 93.895 0 1 0-187.79 0Z" fill="#0D1688"
    p-id="5091"></path>
  <path d="M483.564 831m-93.895 0a93.895 93.895 0 1 0 187.79 0 93.895 93.895 0 1 0-187.79 0Z" fill="#0D1586"
    p-id="5092"></path>
  <path d="M499.017 831m-93.895 0a93.895 93.895 0 1 0 187.79 0 93.895 93.895 0 1 0-187.79 0Z" fill="#0C1485"
    p-id="5093"></path>
  <path d="M514.47 831m-93.895 0a93.895 93.895 0 1 0 187.79 0 93.895 93.895 0 1 0-187.79 0Z" fill="#0B1384" p-id="5094">
  </path>
  <path d="M529.923 831m-93.895 0a93.895 93.895 0 1 0 187.79 0 93.895 93.895 0 1 0-187.79 0Z" fill="#0B1282"
    p-id="5095"></path>
  <path d="M545.376 831m-93.895 0a93.895 93.895 0 1 0 187.79 0 93.895 93.895 0 1 0-187.79 0Z" fill="#0A1181"
    p-id="5096"></path>
  <path d="M560.829 831m-93.895 0a93.895 93.895 0 1 0 187.79 0 93.895 93.895 0 1 0-187.79 0Z" fill="#0A107F"
    p-id="5097"></path>
  <path d="M576.282 831m-93.895 0a93.895 93.895 0 1 0 187.79 0 93.895 93.895 0 1 0-187.79 0Z" fill="#090E7E"
    p-id="5098"></path>
  <path d="M591.735 831m-93.895 0a93.895 93.895 0 1 0 187.79 0 93.895 93.895 0 1 0-187.79 0Z" fill="#090D7D"
    p-id="5099"></path>
  <path d="M607.188 831m-93.895 0a93.895 93.895 0 1 0 187.79 0 93.895 93.895 0 1 0-187.79 0Z" fill="#080C7B"
    p-id="5100"></path>
  <path d="M622.641 831m-93.895 0a93.895 93.895 0 1 0 187.79 0 93.895 93.895 0 1 0-187.79 0Z" fill="#080B7A"
    p-id="5101"></path>
  <path d="M638.094 831m-93.895 0a93.895 93.895 0 1 0 187.79 0 93.895 93.895 0 1 0-187.79 0Z" fill="#070A79"
    p-id="5102"></path>
  <path d="M653.547 831m-93.895 0a93.895 93.895 0 1 0 187.79 0 93.895 93.895 0 1 0-187.79 0Z" fill="#070977"
    p-id="5103"></path>
  <path d="M669 831m-93.895 0a93.895 93.895 0 1 0 187.79 0 93.895 93.895 0 1 0-187.79 0Z" fill="#060876" p-id="5104">
  </path>
</svg>