<svg t="1625576336069" class="icon" viewBox="0 0 1024 1024" version="1.1" xmlns="http://www.w3.org/2000/svg" p-id="2336" width="200" height="200"><path d="M538.087904 1024h-19.117853v-370.408401l109.131077-122.67289h321.020615v19.117853h-363.637496l-78.861143 88.42007 88.818358-99.572151c6.372618-7.169195 3.186309-3.584597 2.788021-3.186309l-1.991443 2.389732-3.982886 4.381174-7.965772 8.762349-31.066512 35.049398-31.066511 35.049397-0.398288 0.398288-0.398289 0.398289c-1.593154 1.991443 3.186309-3.584597 7.169195-7.965772l23.100739-26.287048 46.599767-52.175807 11.550369-13.143524c5.57604-6.372618 3.186309-3.186309 3.584598-3.982886l-0.398289 0.398289-1.593154 1.991443-3.186309 3.584597-6.372618 7.169195-12.745235 14.33839-51.37923 57.353559v420.592765z" fill="#F2F2F2" p-id="2337"></path><path d="M557.205757 1024h-19.117853V603.008946l51.379229-57.353559 12.745236-14.33839 6.372617-7.169195 3.186309-3.584597 1.593155-1.991443 0.398288-0.398289c-0.796577 0.796577 1.991443-2.389732-3.584597 3.982886l-11.55037 13.143524-46.599766 52.175807-23.100739 26.287048c-3.982886 4.381175-8.762349 9.957215-7.169195 7.965772l0.398288-0.398288 0.398289-0.398289 31.066511-35.049397 31.066511-35.049397 7.965772-8.762349 3.982886-4.381175 1.991443-2.389732s3.584597-3.982886-2.78802 3.186309l-88.818359 99.572151 78.861144-88.42007h363.637495v19.117853h-406.254376l-50.980941 57.353559 76.073123-85.233761c1.593154-1.593154 4.381175-5.177752 3.584598-3.982886l-0.398289 0.796577-1.194866 1.194866-2.389731 2.78802-4.779463 5.177752-19.117853 21.109296-19.117853 21.109296-0.398289 0.398288c-1.194866 1.593154 2.78802-3.186309 5.974329-6.770906l19.117853-21.507584 38.235706-43.01517 9.558926-10.753792c4.779463-5.177752 2.389732-2.78802 2.788021-3.186309l-0.398289 0.398289-0.796577 1.194866-1.593155 1.991443-3.584597 3.982886-7.169195 7.965772-28.676779 32.261377v471.971995z" fill="" p-id="2338"></path><path d="M576.323609 1024h-19.117852V552.824582l28.676779-32.261377 7.169195-7.965772 3.584597-3.982886 1.593155-1.991443 0.796577-1.194866 0.398289-0.398289c-0.398289 0.398289 1.593154-1.991443-2.788021 3.186309l-9.558926 10.753793-38.235706 43.015169-19.117853 21.507584c-3.186309 3.584597-7.169195 7.965772-5.974329 6.770907l0.398288-0.398289 19.117853-21.109296 19.117853-21.109296 4.779464-5.177752 2.389731-2.78802 1.194866-1.194866 0.398289-0.796577c1.194866-1.194866-1.991443 1.991443-3.584598 3.982886l-76.073123 85.233761 50.980941-57.353559h406.254376v19.117853H500.250486l-23.499027 26.685337 62.929599-70.895372c4.381175-4.779463 2.389732-2.78802 2.78802-3.186309l-0.398288 0.398289-0.796578 0.796577-1.593154 1.991443-6.770906 7.567484-6.770907 7.567483c-1.194866 1.194866 1.991443-2.389732 4.779464-5.177752l14.736678-16.728121 29.871645-33.456243 7.567484-8.36406c3.584597-3.982886 1.991443-1.991443 2.389731-2.788021v0.398289l-0.398288 0.398289-0.796577 0.796577-1.593155 1.593154-5.974329 6.770906v520.961494z" fill="#F2F2F2" p-id="2339"></path><path d="M595.441462 1024H576.323609V502.640218l5.97433-6.770906 1.593154-1.593155 0.796577-0.796577 0.398289-0.398289v-0.398288c-0.398289 0.398289 1.194866-1.593154-2.389732 2.78802l-7.567483 8.364061-29.871646 33.456242-14.736678 16.728122c-2.389732 2.78802-5.57604 6.372618-4.779463 5.177752l6.770906-7.567484 6.770906-7.567483 1.593155-1.991443 0.796577-0.796578 0.398289-0.398288c-0.398289 0.398289 1.593154-1.991443-2.788021 3.186309L476.751459 614.559315l23.499027-26.685336h448.871257v19.117853H458.031894l137.807857-154.934267v571.942435z" fill="" p-id="2340"></path><path d="M614.559315 1024h-19.117853V452.455854l-137.409568 154.535978h491.089849v19.117853h-533.706729l199.144301-224.236484z" fill="#F2F2F2" p-id="2341"></path><path d="M633.677168 1024h-19.117853V401.873201l-199.144301 224.236484h533.706729v19.117853H372.798133l260.879035-293.538701z" fill="" p-id="2342"></path><path d="M652.795021 1024h-19.117853V351.688837L372.798133 645.227538h576.32361v19.117853H330.181252l322.613769-362.840918z" fill="#F2F2F2" p-id="2343"></path><path d="M671.912874 1024h-19.117853V301.504473l-322.613769 362.840918h618.940491v19.117853H287.564372L671.912874 251.320109z" fill="" p-id="2344"></path><path d="M691.030727 1024H671.912874v-772.679891L287.564372 683.463244h661.557371v19.117853H244.947491l446.083236-501.445352z" fill="#F2F2F2" p-id="2345"></path><path d="M710.14858 1024h-19.117853V201.135745l-446.083236 501.445352h704.174252v19.117853H202.330611L710.14858 150.951381z" fill="" p-id="2346"></path><path d="M729.266433 1024h-19.117853V150.951381L202.330611 721.69895h746.791132v19.117853H159.71373l569.552703-640.448075z" fill="#F2F2F2" p-id="2347"></path><path d="M767.502139 1024h-19.117853V50.184364L117.096849 759.934656h832.024894v19.117853H74.479969L767.502139 0z" fill="#F2F2F2" p-id="2348"></path><path d="M748.384286 1024h-19.117853V100.368728L159.71373 740.816803h789.408013v19.117853H117.096849L748.384286 50.184364z" fill="" p-id="2349"></path></svg>