<svg t="1625576369660" class="icon" viewBox="0 0 1024 1024" version="1.1" xmlns="http://www.w3.org/2000/svg" p-id="3169"
  width="200" height="200">
  <path
    d="M655.503106 372.47205H636.42236c0-16.695652-3.180124-32.596273-9.540372-47.701864s-15.503106-28.621118-27.031056-40.546584c-11.52795-11.52795-25.440994-20.670807-40.546584-27.031055-15.10559-6.360248-31.006211-9.540373-47.701864-9.540373s-32.596273 3.180124-47.701863 9.540373c-15.10559 6.360248-28.621118 15.503106-40.546584 27.031055-11.52795 11.52795-20.670807 25.440994-27.031056 40.546584-6.360248 15.10559-9.540373 31.006211-9.540372 47.701864s3.180124 32.596273 9.540372 47.701863c6.360248 15.10559 15.503106 28.621118 27.031056 40.546584 11.52795 11.52795 25.440994 20.670807 40.546584 27.031056 15.10559 6.360248 31.006211 9.540373 47.701863 9.540372s32.596273-3.180124 47.701864-9.540372 28.621118-15.503106 40.546584-27.031056c11.52795-11.52795 20.670807-25.440994 27.031056-40.546584 6.360248-15.10559 9.540373-31.006211 9.540372-47.701863h19.080746c0 19.080745-3.57764 37.763975-10.73292 54.857143s-17.888199 33.391304-31.006211 46.509316c-13.515528 13.515528-29.416149 23.850932-46.509317 31.006211-17.093168 7.15528-35.776398 10.732919-54.857142 10.73292s-37.763975-3.57764-54.857143-10.73292-33.391304-17.888199-46.509317-31.006211c-13.515528-13.515528-23.850932-29.416149-31.006211-46.509316-7.15528-17.093168-10.732919-35.776398-10.73292-54.857143s3.57764-37.763975 10.73292-54.857143 17.888199-33.391304 31.006211-46.509317c13.515528-13.515528 29.416149-23.850932 46.509317-31.006211 17.093168-7.15528 35.776398-10.732919 54.857143-10.732919s37.763975 3.57764 54.857142 10.732919 33.391304 17.888199 46.509317 31.006211c13.515528 13.515528 23.850932 29.416149 31.006211 46.509317 7.15528 17.093168 10.732919 35.776398 10.73292 54.857143z"
    fill="#F2F2F2" p-id="3170"></path>
  <path
    d="M674.583851 372.47205h-19.080745c0-19.080745-3.57764-37.763975-10.73292-54.857143s-17.888199-33.391304-31.006211-46.509317c-13.515528-13.515528-29.416149-23.850932-46.509317-31.006211-17.093168-7.15528-35.776398-10.732919-54.857142-10.732919s-37.763975 3.57764-54.857143 10.732919-33.391304 17.888199-46.509317 31.006211c-13.515528 13.515528-23.850932 29.416149-31.006211 46.509317-7.15528 17.093168-10.732919 35.776398-10.73292 54.857143s3.57764 37.763975 10.73292 54.857143 17.888199 33.391304 31.006211 46.509316c13.515528 13.515528 29.416149 23.850932 46.509317 31.006211 17.093168 7.15528 35.776398 10.732919 54.857143 10.73292s37.763975-3.57764 54.857142-10.73292 33.391304-17.888199 46.509317-31.006211c13.515528-13.515528 23.850932-29.416149 31.006211-46.509316 7.15528-17.093168 10.732919-35.776398 10.73292-54.857143h19.080745c0 21.465839-4.372671 42.534161-12.322981 62.012422s-20.273292 37.763975-35.378882 52.869565-32.993789 27.031056-52.869566 35.378882c-19.478261 7.950311-40.546584 12.322981-62.012422 12.322982s-42.534161-4.372671-62.012422-12.322982-37.763975-20.273292-52.869566-35.378882c-15.10559-15.10559-27.031056-32.993789-35.378882-52.869565-7.950311-19.478261-12.322981-40.546584-12.322981-62.012422s4.372671-42.534161 12.322981-62.012423 20.273292-37.763975 35.378882-52.869565c15.10559-15.10559 32.993789-27.031056 52.869566-35.378882 19.478261-7.950311 40.546584-12.322981 62.012422-12.322981s42.534161 4.372671 62.012422 12.322981 37.763975 20.273292 52.869566 35.378882 27.031056 32.993789 35.378882 52.869565c7.950311 19.478261 12.322981 40.546584 12.322981 62.012423z"
    fill="" p-id="3171"></path>
  <path
    d="M693.664596 372.47205h-19.080745c0-21.465839-4.372671-42.534161-12.322981-62.012423s-20.273292-37.763975-35.378882-52.869565c-15.10559-15.10559-32.993789-27.031056-52.869566-35.378882-19.478261-7.950311-40.546584-12.322981-62.012422-12.322981S469.465839 214.26087 449.987578 222.21118s-37.763975 20.273292-52.869566 35.378882c-15.10559 15.10559-27.031056 32.993789-35.378882 52.869565-7.950311 19.478261-12.322981 40.546584-12.322981 62.012423s4.372671 42.534161 12.322981 62.012422 20.273292 37.763975 35.378882 52.869565 32.993789 27.031056 52.869566 35.378882c19.478261 7.950311 40.546584 12.322981 62.012422 12.322982s42.534161-4.372671 62.012422-12.322982 37.763975-20.273292 52.869566-35.378882 27.031056-32.993789 35.378882-52.869565c7.950311-19.478261 12.322981-40.546584 12.322981-62.012422h19.080745c0 23.850932-4.770186 47.701863-13.913043 69.565217s-22.658385 42.136646-39.354037 58.832298c-16.695652 16.695652-36.968944 30.21118-58.832299 39.354037-21.863354 9.142857-45.714286 13.913043-69.565217 13.913044s-47.701863-4.770186-69.565217-13.913044-42.136646-22.658385-58.832299-39.354037c-16.695652-16.695652-30.21118-36.968944-39.354037-58.832298S330.335404 396.322981 330.335404 372.47205s4.770186-47.701863 13.913043-69.565218 22.658385-42.136646 39.354037-58.832298 36.968944-30.21118 58.832299-39.354037S488.149068 190.807453 512 190.807453s47.701863 4.770186 69.565217 13.913044 42.136646 22.658385 58.832299 39.354037c16.695652 16.695652 30.21118 36.968944 39.354037 58.832298 9.142857 21.863354 13.913043 45.714286 13.913043 69.565218z"
    fill="#F2F2F2" p-id="3172"></path>
  <path
    d="M712.745342 372.47205h-19.080746c0-23.850932-4.770186-47.701863-13.913043-69.565218s-22.658385-42.136646-39.354037-58.832298c-16.695652-16.695652-36.968944-30.21118-58.832299-39.354037S535.850932 190.807453 512 190.807453s-47.701863 4.770186-69.565217 13.913044-42.136646 22.658385-58.832299 39.354037-30.21118 36.968944-39.354037 58.832298C335.10559 324.770186 330.335404 348.621118 330.335404 372.47205s4.770186 47.701863 13.913043 69.565217 22.658385 42.136646 39.354037 58.832298c16.695652 16.695652 36.968944 30.21118 58.832299 39.354037 21.863354 9.142857 45.714286 13.913043 69.565217 13.913044s47.701863-4.770186 69.565217-13.913044 42.136646-22.658385 58.832299-39.354037c16.695652-16.695652 30.21118-36.968944 39.354037-58.832298s13.913043-45.714286 13.913043-69.565217h19.080746c0 26.236025-5.167702 52.47205-15.10559 76.720497s-25.043478 46.509317-43.726709 65.192546-40.944099 33.391304-65.192546 43.726708c-24.248447 9.937888-50.484472 15.10559-76.720497 15.10559s-52.47205-5.167702-76.720497-15.10559c-24.248447-9.937888-46.509317-25.043478-65.192546-43.726708s-33.391304-40.944099-43.726709-65.192546c-9.937888-24.248447-15.10559-50.484472-15.10559-76.720497s5.167702-52.47205 15.10559-76.720497c9.937888-24.248447 25.043478-46.509317 43.726709-65.192547s40.944099-33.391304 65.192546-43.726708c24.248447-9.937888 50.484472-15.10559 76.720497-15.10559 26.236025 0 52.47205 5.167702 76.720497 15.10559 24.248447 9.937888 46.509317 25.043478 65.192546 43.726708s33.391304 40.944099 43.726709 65.192547c9.937888 24.248447 15.10559 50.484472 15.10559 76.720497z"
    fill="" p-id="3173"></path>
  <path
    d="M731.826087 372.47205h-19.080745c0-26.236025-5.167702-52.47205-15.10559-76.720497-9.937888-24.248447-25.043478-46.509317-43.726709-65.192547s-40.944099-33.391304-65.192546-43.726708c-24.248447-9.937888-50.484472-15.10559-76.720497-15.10559S459.52795 176.89441 435.279503 186.832298c-24.248447 9.937888-46.509317 25.043478-65.192546 43.726708s-33.391304 40.944099-43.726709 65.192547c-9.937888 24.248447-15.10559 50.484472-15.10559 76.720497 0 26.236025 5.167702 52.47205 15.10559 76.720497 9.937888 24.248447 25.043478 46.509317 43.726709 65.192546s40.944099 33.391304 65.192546 43.726708c24.248447 9.937888 50.484472 15.10559 76.720497 15.10559 26.236025 0 52.47205-5.167702 76.720497-15.10559 24.248447-9.937888 46.509317-25.043478 65.192546-43.726708s33.391304-40.944099 43.726709-65.192546c9.937888-24.248447 15.10559-50.484472 15.10559-76.720497h19.080745c0 29.018634-5.565217 57.639752-16.695652 84.273292s-27.428571 50.881988-47.701864 71.155279c-20.273292 20.273292-44.919255 36.571429-71.155279 47.701863-26.63354 11.130435-55.254658 16.695652-84.273292 16.695653s-57.639752-5.565217-84.273292-16.695653-50.881988-27.428571-71.155279-47.701863c-20.273292-20.273292-36.571429-44.919255-47.701864-71.155279-11.130435-26.63354-16.695652-55.254658-16.695652-84.273292s5.565217-57.639752 16.695652-84.273292 27.428571-50.881988 47.701864-71.15528 44.919255-36.571429 71.155279-47.701863c26.63354-11.130435 55.254658-16.695652 84.273292-16.695652 29.018634 0 57.639752 5.565217 84.273292 16.695652s50.881988 27.428571 71.155279 47.701863c20.273292 20.273292 36.571429 44.919255 47.701864 71.15528 11.130435 26.63354 16.695652 55.254658 16.695652 84.273292z"
    fill="#F2F2F2" p-id="3174"></path>
  <path
    d="M750.906832 372.47205H731.826087c0-29.018634-5.565217-57.639752-16.695652-84.273292s-27.428571-50.881988-47.701864-71.15528c-20.273292-20.273292-44.919255-36.571429-71.155279-47.701863-26.63354-11.130435-55.254658-16.695652-84.273292-16.695652s-57.639752 5.565217-84.273292 16.695652-50.881988 27.428571-71.155279 47.701863-36.571429 44.919255-47.701864 71.15528c-11.130435 26.63354-16.695652 55.254658-16.695652 84.273292 0 29.018634 5.565217 57.639752 16.695652 84.273292s27.428571 50.881988 47.701864 71.155279c20.273292 20.273292 44.919255 36.571429 71.155279 47.701863 26.63354 11.130435 55.254658 16.695652 84.273292 16.695653 29.018634 0 57.639752-5.565217 84.273292-16.695653s50.881988-27.428571 71.155279-47.701863c20.273292-20.273292 36.571429-44.919255 47.701864-71.155279 11.130435-26.63354 16.695652-55.254658 16.695652-84.273292h19.080745c0 31.403727-5.962733 62.409938-18.285714 91.428571-11.925466 29.018634-29.813665 55.254658-51.677019 77.515528-22.26087 22.26087-48.496894 39.751553-77.515528 51.677019s-60.024845 18.285714-91.428571 18.285714-62.409938-5.962733-91.428571-18.285714c-29.018634-11.925466-55.254658-29.813665-77.515528-51.677019-22.26087-22.26087-39.751553-48.496894-51.677019-77.515528s-18.285714-60.024845-18.285714-91.428571 5.962733-62.409938 18.285714-91.428572c11.925466-29.018634 29.813665-55.254658 51.677019-77.515528 22.26087-22.26087 48.496894-39.751553 77.515528-51.677018s60.024845-18.285714 91.428571-18.285715 62.409938 5.962733 91.428571 18.285715c29.018634 11.925466 55.254658 29.813665 77.515528 51.677018 22.26087 22.26087 39.751553 48.496894 51.677019 77.515528 12.322981 29.018634 18.285714 60.024845 18.285714 91.428572z"
    fill="" p-id="3175"></path>
  <path
    d="M769.987578 372.47205h-19.080746c0-31.403727-5.962733-62.409938-18.285714-91.428572-11.925466-29.018634-29.813665-55.254658-51.677019-77.515528-22.26087-22.26087-48.496894-39.751553-77.515528-51.677018s-60.024845-18.285714-91.428571-18.285715-62.409938 5.962733-91.428571 18.285715c-29.018634 11.925466-55.254658 29.813665-77.515528 51.677018-22.26087 22.26087-39.751553 48.496894-51.677019 77.515528s-18.285714 60.024845-18.285714 91.428572 5.962733 62.409938 18.285714 91.428571c11.925466 29.018634 29.813665 55.254658 51.677019 77.515528 22.26087 22.26087 48.496894 39.751553 77.515528 51.677019s60.024845 18.285714 91.428571 18.285714 62.409938-5.962733 91.428571-18.285714c29.018634-11.925466 55.254658-29.813665 77.515528-51.677019 22.26087-22.26087 39.751553-48.496894 51.677019-77.515528s18.285714-60.024845 18.285714-91.428571h19.080746c0 33.78882-6.757764 67.57764-19.478261 98.583851-13.118012 31.403727-32.198758 59.627329-56.04969 83.875776-23.850932 23.850932-52.47205 42.931677-83.875776 56.049689-31.006211 13.118012-64.795031 19.478261-98.583851 19.478261s-67.57764-6.757764-98.583851-19.478261c-31.403727-13.118012-59.627329-32.198758-83.875776-56.049689-23.850932-23.850932-42.931677-52.47205-56.04969-83.875776-13.118012-31.006211-19.478261-64.795031-19.478261-98.583851s6.757764-67.57764 19.478261-98.583851c13.118012-31.403727 32.198758-59.627329 56.04969-83.875777 23.850932-23.850932 52.47205-42.931677 83.875776-56.049689 31.006211-13.118012 64.795031-19.478261 98.583851-19.478261s67.57764 6.757764 98.583851 19.478261c31.403727 13.118012 59.627329 32.198758 83.875776 56.049689 23.850932 23.850932 42.931677 52.47205 56.04969 83.875777 12.720497 31.006211 19.478261 64.795031 19.478261 98.583851z"
    fill="#F2F2F2" p-id="3176"></path>
  <path
    d="M789.068323 372.47205h-19.080745c0-33.78882-6.757764-67.57764-19.478261-98.583851-13.118012-31.403727-32.198758-59.627329-56.04969-83.875777-23.850932-23.850932-52.47205-42.931677-83.875776-56.049689-31.006211-13.118012-64.795031-19.478261-98.583851-19.478261s-67.57764 6.757764-98.583851 19.478261c-31.403727 13.118012-59.627329 32.198758-83.875776 56.049689-23.850932 23.850932-42.931677 52.47205-56.04969 83.875777-13.118012 31.006211-19.478261 64.795031-19.478261 98.583851s6.757764 67.57764 19.478261 98.583851c13.118012 31.403727 32.198758 59.627329 56.04969 83.875776 23.850932 23.850932 52.47205 42.931677 83.875776 56.049689 31.006211 13.118012 64.795031 19.478261 98.583851 19.478261s67.57764-6.757764 98.583851-19.478261c31.403727-13.118012 59.627329-32.198758 83.875776-56.049689 23.850932-23.850932 42.931677-52.47205 56.04969-83.875776 13.118012-31.006211 19.478261-64.795031 19.478261-98.583851h19.080745c0 36.173913-7.15528 72.347826-21.068323 106.136646-13.913043 33.391304-34.583851 64.397516-60.024845 89.838509-25.440994 25.440994-56.447205 46.111801-89.838509 60.024845s-69.962733 21.068323-106.136646 21.068323-72.347826-7.15528-106.136646-21.068323c-33.391304-13.913043-64.397516-34.583851-89.838509-60.024845-25.440994-25.440994-46.111801-56.447205-60.024845-89.838509S234.931677 408.645963 234.931677 372.47205s7.15528-72.347826 21.068323-106.136646c13.913043-33.391304 34.583851-64.397516 60.024845-89.83851C341.863354 151.055901 372.47205 130.385093 405.863354 116.47205S475.826087 95.403727 512 95.403727s72.347826 7.15528 106.136646 21.068323c33.391304 13.913043 64.397516 34.583851 89.838509 60.024844 25.440994 25.440994 46.111801 56.447205 60.024845 89.83851 13.913043 33.78882 21.068323 69.962733 21.068323 106.136646z"
    fill="" p-id="3177"></path>
  <path
    d="M808.149068 372.47205h-19.080745c0-36.173913-7.15528-72.347826-21.068323-106.136646-13.913043-33.391304-34.583851-64.397516-60.024845-89.83851-25.440994-25.440994-56.447205-46.111801-89.838509-60.024844S548.173913 95.403727 512 95.403727 439.652174 102.559006 405.863354 116.47205c-33.391304 13.913043-64.397516 34.583851-89.838509 60.024844C290.583851 202.335404 269.913043 232.944099 256 266.335404 242.086957 300.124224 234.931677 336.298137 234.931677 372.47205s7.15528 72.347826 21.068323 106.136646c13.913043 33.391304 34.583851 64.397516 60.024845 89.838509 25.440994 25.440994 56.447205 46.111801 89.838509 60.024845s69.962733 21.068323 106.136646 21.068323 72.347826-7.15528 106.136646-21.068323c33.391304-13.913043 64.397516-34.583851 89.838509-60.024845 25.440994-25.440994 46.111801-56.447205 60.024845-89.838509s21.068323-69.962733 21.068323-106.136646h19.080745c0 38.559006-7.552795 77.515528-22.658385 113.291925-14.708075 35.776398-36.968944 68.770186-64.397515 96.198758s-60.024845 49.291925-96.198758 64.397515c-35.776398 14.708075-74.732919 22.658385-113.291926 22.658386s-77.515528-7.552795-113.291925-22.658386c-35.776398-14.708075-68.770186-36.968944-96.198758-64.397515s-49.291925-60.024845-64.397515-96.198758c-14.708075-35.776398-22.658385-74.732919-22.658385-113.291925s7.552795-77.515528 22.658385-113.291926c14.708075-35.776398 36.968944-68.770186 64.397515-96.198758S362.136646 113.689441 398.310559 98.583851c35.776398-14.708075 74.732919-22.658385 113.291925-22.658385s77.515528 7.552795 113.291926 22.658385c35.776398 14.708075 68.770186 36.968944 96.198758 64.397515s49.291925 60.024845 64.397515 96.198758c15.10559 35.776398 22.658385 74.732919 22.658385 113.291926z"
    fill="#F2F2F2" p-id="3178"></path>
  <path
    d="M827.229814 372.47205h-19.080746c0-38.559006-7.552795-77.515528-22.658385-113.291926-14.708075-35.776398-36.968944-68.770186-64.397515-96.198758s-60.024845-49.291925-96.198758-64.397515c-35.776398-14.708075-74.732919-22.658385-113.291926-22.658385S434.086957 83.478261 398.310559 98.583851c-35.776398 14.708075-68.770186 36.968944-96.198758 64.397515S252.819876 223.006211 237.714286 259.180124C223.006211 294.956522 215.055901 333.913043 215.055901 372.47205s7.552795 77.515528 22.658385 113.291925c14.708075 35.776398 36.968944 68.770186 64.397515 96.198758s60.024845 49.291925 96.198758 64.397515c35.776398 14.708075 74.732919 22.658385 113.291925 22.658386s77.515528-7.552795 113.291926-22.658386c35.776398-14.708075 68.770186-36.968944 96.198758-64.397515s49.291925-60.024845 64.397515-96.198758c14.708075-35.776398 22.658385-74.732919 22.658385-113.291925h19.080746c0 40.944099-7.950311 82.68323-23.850932 120.84472s-39.354037 73.142857-68.372671 102.161491-64 52.47205-102.161491 68.372671-79.503106 23.850932-120.84472 23.850931c-40.944099 0-82.68323-7.950311-120.84472-23.850931s-73.142857-39.354037-102.161491-68.372671-52.47205-64-68.372671-102.161491-23.850932-79.503106-23.850932-120.84472c0-40.944099 7.950311-82.68323 23.850932-120.844721s39.354037-73.142857 68.372671-102.16149 64-52.47205 102.161491-68.372671 79.503106-23.850932 120.84472-23.850932c40.944099 0 82.68323 7.950311 120.84472 23.850932s73.142857 39.354037 102.161491 68.372671C764.024845 178.881988 787.478261 213.465839 803.378882 251.627329s23.850932 79.900621 23.850932 120.844721z"
    fill="" p-id="3179"></path>
  <path
    d="M846.310559 372.47205H827.229814c0-40.944099-7.950311-82.68323-23.850932-120.844721s-39.354037-73.142857-68.372671-102.16149-64-52.47205-102.161491-68.372671-79.503106-23.850932-120.84472-23.850932c-40.944099 0-82.68323 7.950311-120.84472 23.850932s-73.142857 39.354037-102.161491 68.372671C259.975155 178.881988 236.521739 213.465839 220.621118 251.627329s-23.850932 79.503106-23.850932 120.844721c0 40.944099 7.950311 82.68323 23.850932 120.84472s39.354037 73.142857 68.372671 102.161491C318.409938 624.496894 352.993789 647.950311 391.15528 663.850932s79.503106 23.850932 120.84472 23.850931c40.944099 0 82.68323-7.950311 120.84472-23.850931s73.142857-39.354037 102.161491-68.372671 52.47205-64 68.372671-102.161491 23.850932-79.503106 23.850932-120.84472h19.080745c0 43.726708-8.745342 87.453416-25.440994 128s-41.73913 77.515528-72.347826 108.521739c-31.006211 31.006211-67.975155 55.652174-108.521739 72.347826s-84.273292 25.440994-128 25.440994-87.453416-8.745342-128-25.440994-77.515528-41.73913-108.521739-72.347826c-31.006211-31.006211-55.652174-67.975155-72.347826-108.521739s-25.440994-84.273292-25.440994-128 8.745342-87.453416 25.440994-128C219.826087 203.925466 244.869565 166.956522 275.478261 135.950311c31.006211-31.006211 67.975155-55.652174 108.521739-72.347827s84.273292-25.440994 128-25.440993 87.453416 8.745342 128 25.440993 77.515528 41.73913 108.521739 72.347827c31.006211 31.006211 55.652174 67.975155 72.347826 108.521739 16.695652 40.546584 25.440994 84.273292 25.440994 128z"
    fill="#F2F2F2" p-id="3180"></path>
  <path
    d="M884.47205 372.47205h-19.080746c0-46.111801-9.142857-92.621118-27.031056-135.15528-17.888199-42.931677-44.124224-81.888199-76.720496-114.484472s-71.950311-58.832298-114.484472-76.720497a353.510559 353.510559 0 0 0-135.15528-27.031056c-46.111801 0-92.621118 9.142857-135.15528 27.031056-42.931677 17.490683-81.888199 43.726708-114.881987 76.322982-32.596273 32.993789-58.832298 71.950311-76.322981 114.881987a353.510559 353.510559 0 0 0-27.031056 135.15528c0 46.111801 9.142857 92.621118 27.031056 135.155279 17.888199 42.931677 44.124224 81.888199 76.720496 114.484472s71.950311 58.832298 114.484472 76.720497c42.931677 17.888199 89.440994 27.031056 135.15528 27.031056 46.111801 0 92.621118-9.142857 135.15528-27.031056 42.931677-17.888199 81.888199-44.124224 114.484472-76.720497s58.832298-71.950311 76.720496-114.484472c17.888199-42.931677 27.031056-89.440994 27.031056-135.155279h19.080746c0 48.496894-9.540373 97.391304-28.223603 142.708074-18.68323 45.31677-46.509317 86.26087-80.695652 120.844721-34.583851 34.583851-75.52795 62.012422-120.84472 80.695652-44.919255 18.68323-94.21118 28.223602-142.708075 28.223602s-97.391304-9.540373-142.708075-28.223602c-45.31677-18.68323-86.26087-46.509317-120.84472-80.695652-34.583851-34.583851-62.012422-75.52795-80.695652-120.844721C149.068323 469.863354 139.52795 420.968944 139.52795 372.47205s9.540373-97.391304 28.223603-142.708075 46.509317-86.26087 80.695652-120.84472c34.583851-34.583851 75.52795-62.012422 120.84472-80.695653S463.503106 0 512 0s97.391304 9.540373 142.708075 28.223602c45.31677 18.68323 86.26087 46.509317 120.84472 80.695653 34.583851 34.583851 62.012422 75.52795 80.695652 120.84472s28.223602 94.21118 28.223603 142.708075z"
    fill="#F2F2F2" p-id="3181"></path>
  <path
    d="M865.391304 372.47205h-19.080745c0-43.726708-8.745342-87.453416-25.440994-128S779.130435 166.956522 748.521739 135.950311c-31.006211-31.006211-67.975155-55.652174-108.521739-72.347827s-84.273292-25.440994-128-25.440993-87.453416 8.745342-128 25.440993C343.453416 80.298137 306.484472 105.341615 275.478261 135.950311 244.869565 166.956522 219.826087 203.925466 203.130435 244.47205S177.689441 328.745342 177.689441 372.47205s8.745342 87.453416 25.440994 128 41.73913 77.515528 72.347826 108.521739c31.006211 31.006211 67.975155 55.652174 108.521739 72.347826s84.273292 25.440994 128 25.440994 87.453416-8.745342 128-25.440994 77.515528-41.73913 108.521739-72.347826c31.006211-31.006211 55.652174-67.975155 72.347826-108.521739s25.440994-84.273292 25.440994-128h19.080745c0 46.111801-9.142857 92.621118-27.031056 135.155279-17.888199 42.931677-44.124224 81.888199-76.720496 114.484472s-71.950311 58.832298-114.484472 76.720497a353.510559 353.510559 0 0 1-135.15528 27.031056c-46.111801 0-92.621118-9.142857-135.15528-27.031056-42.931677-17.888199-81.888199-44.124224-114.484472-76.720497s-58.832298-71.950311-76.720496-114.484472a353.510559 353.510559 0 0 1-27.031056-135.155279c0-46.111801 9.142857-92.621118 27.031056-135.15528 17.490683-42.931677 43.726708-81.888199 76.322981-114.881987C294.559006 89.838509 333.913043 63.602484 376.447205 45.714286c42.931677-17.888199 89.440994-27.031056 135.155279-27.031056 46.111801 0 92.621118 9.142857 135.15528 27.031056 42.931677 17.888199 81.888199 44.124224 114.484472 76.720497s58.832298 71.950311 76.720497 114.484472c18.285714 42.931677 27.428571 89.440994 27.428571 135.552795z"
    fill="" p-id="3182"></path>
  <path d="M553.516522 1014.503354l266.37118-469.084224 16.592298 9.421118-266.37118 469.088199z" fill="#F2F2F2"
    p-id="3183"></path>
  <path d="M537.210435 1005.249193l266.367205-469.088199 16.592298 9.421118-266.367205 469.088199z" fill="" p-id="3184">
  </path>
  <path d="M520.160994 996.082484l266.375155-469.088198 16.588323 9.421118-266.367205 469.088198z" fill="#F2F2F2"
    p-id="3185"></path>
  <path d="M503.906584 986.220124l266.37118-469.084223 16.592298 9.421118-266.37118 469.088198z" fill="" p-id="3186">
  </path>
  <path d="M487.051925 976.711553L753.423106 507.627329l16.592298 9.421118-266.37118 469.088199z" fill="#F2F2F2"
    p-id="3187"></path>
  <path d="M470.551056 967.799255l266.37118-469.088199 16.592298 9.421118-266.37118 469.088199z" fill="" p-id="3188">
  </path>
  <path d="M454.300621 957.932919l266.367205-469.084223 16.596273 9.421118-266.375155 469.088198z" fill="#F2F2F2"
    p-id="3189"></path>
  <path d="M437.441988 948.432298l266.367205-469.088199 16.592298 9.421118L454.034286 957.853416z" fill="" p-id="3190">
  </path>
  <path d="M420.941118 939.516025l266.37118-469.088199 16.592298 9.421118-266.37118 469.088199z" fill="#F2F2F2"
    p-id="3191"></path>
  <path d="M404.08646 930.003478l266.375155-469.084223 16.588323 9.421118-266.367205 469.088198z" fill="" p-id="3192">
  </path>
  <path
    d="M387.83205 920.145093l266.367205-469.084223 16.592298 9.421118-266.367205 469.088198zM354.476522 901.724224l266.37118-469.088199 16.592298 9.421118L371.06882 911.145342z"
    fill="#F2F2F2" p-id="3193"></path>
  <path d="M370.881988 910.708075l266.732919-468.670808 16.298136 9.142857-266.335403 469.068323z" fill="" p-id="3194">
  </path>
</svg>