<svg t="1625576341345" class="icon" viewBox="0 0 1024 1024" version="1.1" xmlns="http://www.w3.org/2000/svg" p-id="2495" width="200" height="200"><path d="M173.856698 464.94704l-16.34891-9.968847L431.451713 0H882.841121v19.140187H442.218069z" fill="#F2F2F2" p-id="2496"></path><path d="M190.205607 474.915888l-16.348909-9.968848L442.218069 19.140187H882.841121v19.140187H452.984424z" fill="" p-id="2497"></path><path d="M206.554517 484.485981l-16.34891-9.570093L452.984424 38.280374H882.841121v19.140187H463.750779z" fill="#F2F2F2" p-id="2498"></path><path d="M222.903427 494.454829l-16.34891-9.968848L463.750779 57.420561H882.841121v19.140187H474.517134z" fill="" p-id="2499"></path><path d="M239.252336 504.423676l-16.348909-9.968847L474.517134 76.560748H882.841121V95.700935H485.283489z" fill="#F2F2F2" p-id="2500"></path><path d="M255.601246 514.392523l-16.34891-9.968847L485.283489 95.700935H882.841121v19.140186H496.448598z" fill="" p-id="2501"></path><path d="M271.950156 523.962617l-16.34891-9.570094L496.448598 114.841121H882.841121v19.140187H507.214953z" fill="#F2F2F2" p-id="2502"></path><path d="M288.697819 533.931464l-16.747663-9.968847 235.264797-389.981309H882.841121v19.140187H517.981308z" fill="" p-id="2503"></path><path d="M305.046729 543.900312l-16.34891-9.968848 229.283489-380.809969H882.841121v19.140187H528.747664z" fill="#F2F2F2" p-id="2504"></path><path d="M321.395639 553.869159l-16.34891-9.968847 223.700935-371.63863H882.841121V191.401869H539.514019z" fill="" p-id="2505"></path><path d="M337.744548 563.439252l-16.348909-9.570093L539.514019 191.401869H882.841121v19.140187h-332.560747z" fill="#F2F2F2" p-id="2506"></path><path d="M370.442368 583.376947l-16.34891-9.968847 206.953271-343.725857H882.841121v19.140187h-311.028037z" fill="#F2F2F2" p-id="2507"></path><path d="M354.093458 573.4081l-16.34891-9.968848 212.535826-352.897196H882.841121v19.140187h-321.794392z" fill="" p-id="2508"></path><path d="M346.517134 714.965732l17.146417-8.772586c6.380062 11.962617 14.35514 23.127726 24.323988 33.096574 9.570093 9.968847 21.133956 17.545171 33.495327 23.526479 2.791277 1.595016 6.380062 2.791277 9.17134 3.987539 3.190031 1.196262 6.380062 1.993769 9.570093 3.190031 3.190031 0.797508 6.380062 1.993769 9.968847 2.392524 3.190031 0.398754 6.778816 1.595016 9.968848 1.595015 1.595016 0 3.588785 0.398754 5.1838 0.797508h5.183801c1.595016 0 3.588785 0.398754 5.183801 0.398754h5.1838c6.778816-0.398754 13.557632-1.196262 20.336449-2.392523 13.158879-2.791277 25.919003-7.975078 37.88162-14.753894 11.563863-7.17757 22.330218-15.950156 31.102804-26.317757 8.772586-10.367601 15.950156-22.330218 21.133956-35.090343 5.183801-12.760125 7.576324-25.919003 8.373832-39.875389 0.398754-13.956386-0.797508-27.514019-4.785047-40.672898-1.993769-6.380062-4.386293-12.760125-7.17757-19.140187-3.190031-5.981308-6.380062-11.962617-10.367601-17.545171-15.551402-22.728972-39.077882-39.476636-64.996885-47.451713-13.158879-3.987539-26.716511-5.981308-40.672897-5.582555h-5.183801c-1.595016 0.398754-3.588785 0.398754-5.183801 0.398754-3.588785 0-6.778816 1.196262-9.968847 1.595016-6.778816 1.595016-13.158879 3.190031-19.538941 5.582554-25.520249 9.17134-47.850467 27.912773-62.604361 51.040499l-16.34891-9.968848c16.747664-26.716511 42.666667-48.249221 71.775701-58.616822 7.17757-2.791277 14.753894-4.785047 22.728972-6.380062 3.987539-0.398754 7.576324-1.595016 11.563863-1.595016l5.981308-0.797508h5.981309c15.950156-0.797508 31.501558 1.993769 46.654206 6.380062 29.906542 9.17134 57.021807 28.71028 74.965732 55.028038 18.342679 25.919003 27.115265 57.021807 25.919003 88.922118-0.797508 15.950156-3.987539 31.501558-9.968848 45.856698-5.582555 14.753894-13.956386 28.311526-24.323987 40.274143-9.968847 11.962617-22.728972 22.330218-35.887851 30.70405-13.557632 7.975078-28.311526 13.956386-43.464174 17.146418-7.576324 1.595016-15.551402 2.392523-23.52648 2.791277h-5.981308c-1.993769 0-3.987539 0-5.981309-0.398754-1.993769 0-3.987539 0-5.981308-0.398754l-5.981308-0.797508c-3.987539 0-7.576324-1.196262-11.563863-1.993769s-7.576324-1.993769-11.563863-2.791277c-3.588785-1.196262-7.576324-2.392523-11.165109-3.987539-3.588785-1.595016-7.17757-2.791277-10.766356-4.785047-13.956386-6.778816-27.514019-15.950156-38.679127-27.115265-10.766355-10.766355-19.937695-23.52648-27.115265-37.482866z" fill="#F2F2F2" p-id="2509"></path><path d="M329.370717 723.339564l17.146417-8.772586c7.17757 13.956386 16.747664 26.716511 27.912773 37.88162s24.323988 20.336449 38.679127 27.115265c3.588785 1.993769 7.17757 3.190031 10.766355 4.785047 3.588785 1.595016 7.576324 2.392523 11.165109 3.987539 3.987539 0.797508 7.576324 1.993769 11.563863 2.791277 3.987539 0.398754 7.576324 1.595016 11.563863 1.993769l5.981309 0.797508c1.993769 0.398754 3.987539 0 5.981308 0.398754 1.993769 0 3.987539 0.398754 5.981309 0.398754h5.981308c7.975078-0.398754 15.950156-1.196262 23.52648-2.791277 15.152648-3.190031 29.906542-9.17134 43.464174-17.146418 13.557632-8.373832 25.919003-18.342679 35.887851-30.70405 10.367601-11.962617 18.342679-25.520249 24.323987-40.274143 5.981308-14.35514 8.772586-29.906542 9.968848-45.856698 1.196262-31.900312-7.576324-63.401869-25.919004-88.922118-17.943925-25.919003-45.05919-45.457944-74.965732-55.028038-15.152648-4.386293-30.70405-6.778816-46.654205-6.380062h-5.981309l-5.981308 0.797508c-3.987539 0-7.576324 1.196262-11.563863 1.595016-7.576324 1.595016-15.152648 3.588785-22.728972 6.380062-29.507788 10.766355-55.028037 32.299065-71.775701 58.616822l-16.34891-9.968847C356.485981 534.728972 385.595016 510.404984 418.691589 498.442368c8.373832-3.190031 16.747664-5.183801 25.520249-7.17757 4.386293-0.398754 8.772586-1.595016 13.158879-1.99377l6.778816-0.797508 6.778816-0.398754c17.943925-0.797508 35.88785 1.993769 53.034268 7.17757 33.894081 10.766355 64.598131 32.697819 84.934579 62.205608 20.735202 29.109034 30.70405 64.996885 29.109035 100.884735-1.595016 35.88785-15.152648 70.579439-38.679128 97.694704-11.563863 13.557632-25.520249 25.121495-40.672897 34.691589-15.152648 9.17134-31.900312 15.551402-49.445483 19.538941-8.772586 1.595016-17.545171 2.791277-26.716511 3.190031h-6.778816c-2.392523 0-4.386293 0-6.778817-0.398754-2.392523 0-4.386293 0-6.778816-0.398754l-6.778816-0.797508c-4.386293-0.398754-8.772586-1.595016-13.158878-1.993769-4.386293-0.797508-8.772586-2.392523-13.158879-3.190031-3.987539-1.595016-8.373832-2.791277-12.760125-4.386293-3.987539-1.993769-8.373832-3.190031-12.36137-5.183801-15.950156-7.975078-31.102804-17.943925-43.464175-30.70405-12.361371-12.361371-23.127726-27.115265-31.102803-43.06542z" fill="" p-id="2510"></path><path d="M312.224299 732.11215l17.146418-8.772586c7.975078 15.950156 18.741433 30.305296 31.501557 43.06542 12.760125 12.760125 27.514019 22.728972 43.464175 30.70405 3.987539 2.392523 7.975078 3.588785 12.36137 5.183801 3.987539 1.595016 8.373832 2.791277 12.760125 4.386293 4.386293 0.797508 8.373832 2.392523 13.158878 3.190031 4.386293 0.797508 8.772586 1.993769 13.158879 1.993769l6.778816 0.797508c2.392523 0.398754 4.386293 0 6.778816 0.398754 2.392523 0 4.386293 0.398754 6.778817 0.398754h6.778816c8.772586-0.398754 17.943925-1.595016 26.716511-3.190031 17.545171-3.588785 34.292835-10.367601 49.445483-19.538941 15.152648-9.17134 29.109034-20.735202 40.672897-34.691589 23.127726-27.115265 37.084112-61.806854 38.679127-97.694704 1.595016-35.88785-8.373832-71.775701-29.109034-100.884735-20.336449-29.507788-51.040498-51.439252-84.934579-62.205608-17.146417-5.183801-34.691589-7.975078-53.034268-7.17757l-6.778816 0.398754-6.778817 0.797508c-4.386293 0.398754-8.772586 1.196262-13.158878 1.99377-8.772586 1.993769-17.545171 3.987539-25.520249 7.17757-33.495327 11.962617-62.604361 36.286604-81.345795 66.5919L320.598131 554.267913c21.133956-33.894081 53.831776-60.610592 90.915888-74.168225 9.17134-3.588785 19.140187-5.981308 28.71028-7.975077 4.785047-0.797508 9.968847-1.993769 14.753894-1.99377l7.576324-0.797508 7.576324-0.398754c19.937695-0.797508 39.875389 2.392523 59.015576 7.975078 37.88162 11.962617 72.174455 36.685358 94.903427 69.383178 23.127726 32.697819 34.691589 72.573209 32.69782 112.847352-1.595016 39.875389-17.146417 78.953271-43.065421 109.258567-12.760125 15.152648-28.311526 28.311526-45.457944 38.679128-17.146417 10.367601-35.88785 17.545171-55.426791 21.53271-9.570093 1.993769-19.538941 3.190031-29.507788 3.588785h-7.576324c-2.392523 0-5.183801-0.398754-7.576324-0.398754-2.392523 0-5.183801 0-7.576324-0.398754l-7.576324-0.797508c-5.183801-0.398754-9.968847-1.595016-14.753894-2.392523-4.785047-0.797508-9.570093-2.392523-14.355141-3.588785-4.785047-1.595016-9.570093-2.791277-13.956386-4.785047s-9.17134-3.588785-13.557632-5.981308c-17.943925-8.772586-34.691589-19.937695-48.647975-34.292835-14.35514-13.557632-26.317757-29.906542-35.489097-47.451713z" fill="#F2F2F2" p-id="2511"></path><path d="M295.077882 740.485981l17.146417-8.772585c9.17134 17.545171 21.133956 33.894081 35.090343 48.249221 13.956386 14.35514 30.70405 25.520249 48.647975 34.292835 4.386293 2.392523 9.17134 3.987539 13.557632 5.981308 4.785047 1.993769 9.570093 3.190031 13.956387 4.785047 4.785047 1.196262 9.570093 2.791277 14.35514 3.588785 4.785047 0.797508 9.570093 1.993769 14.753894 2.392523l7.576324 0.797508c2.392523 0.398754 5.183801 0 7.576324 0.398754 2.392523 0 5.183801 0.398754 7.576324 0.398754h7.576324c9.968847-0.398754 19.937695-1.595016 29.507788-3.588785 19.538941-3.987539 38.280374-11.563863 55.426791-21.53271 17.146417-10.367601 32.697819-23.127726 45.457944-38.679128 25.919003-30.305296 41.470405-69.383178 43.065421-109.258567 1.595016-40.274143-9.570093-80.149533-32.69782-112.847352-22.728972-32.697819-57.021807-57.420561-94.903426-69.383178-19.140187-5.582555-39.077882-8.772586-59.015577-7.975078l-7.576324 0.398754-7.576324 0.797508c-5.183801 0.398754-9.968847 1.595016-14.753894 1.993769-9.570093 1.993769-19.538941 4.386293-28.71028 7.975078-37.482866 13.557632-69.781931 40.672897-90.915888 74.168225l-16.34891-9.968848c23.52648-37.084112 59.41433-66.990654 100.485982-82.143302 10.367601-3.987539 21.133956-6.778816 31.900311-9.171339 5.582555-0.797508 10.766355-1.993769 16.34891-2.392524l8.373832-0.797508 8.373831-0.398753c22.330218-0.797508 44.261682 2.392523 65.395639 8.772585 41.869159 13.158879 79.750779 40.274143 104.872274 76.560748 25.520249 35.88785 38.280374 80.548287 36.286604 124.809969-1.993769 44.261682-18.741433 87.327103-47.451713 120.82243-14.35514 16.747664-31.501558 31.102804-50.242991 42.666666-18.741433 11.165109-39.476636 19.538941-61.009345 23.925234-10.766355 2.392523-21.931464 3.588785-32.69782 3.987539l-8.373831 0.398754c-2.791277 0-5.582555-0.398754-8.373832-0.398754-2.791277 0-5.582555 0-8.373832-0.398754l-8.373832-0.797508c-5.582555-0.398754-10.766355-1.595016-16.348909-2.392523-5.582555-0.797508-10.766355-2.791277-15.950156-3.987539-5.183801-1.993769-10.367601-3.190031-15.551402-5.183801-5.183801-2.392523-10.367601-3.987539-15.152648-6.778816-19.937695-9.570093-38.280374-22.330218-53.831776-37.88162-15.950156-15.551402-29.109034-33.495327-39.077881-53.433022z" fill="" p-id="2512"></path><path d="M277.931464 749.258567l17.146418-8.772586c9.968847 19.538941 23.127726 37.482866 38.679127 53.034268 15.551402 15.551402 34.292835 28.311526 53.831776 37.88162 4.785047 2.791277 9.968847 4.386293 15.152648 6.778816 5.183801 1.993769 10.367601 3.588785 15.551402 5.183801 5.183801 1.196262 10.766355 2.791277 15.950156 3.987539 5.582555 0.797508 10.766355 2.392523 16.348909 2.392523l8.373832 0.797508c2.791277 0.398754 5.582555 0.398754 8.373832 0.398754 2.791277 0 5.582555 0.398754 8.373832 0.398754l8.373831-0.398754c11.165109-0.398754 21.931464-1.993769 32.69782-3.987539 21.53271-4.785047 42.267913-12.760125 61.009346-23.925234 18.741433-11.563863 35.88785-25.520249 50.24299-42.666666 28.71028-33.495327 45.457944-76.560748 47.451714-120.82243 1.993769-44.261682-10.766355-88.523364-36.286605-124.809969-25.121495-36.286604-63.003115-63.401869-104.872274-76.560748-21.133956-6.380062-43.065421-9.570093-65.395639-8.772585l-8.373831 0.398754-8.373832 0.797507c-5.582555 0.398754-10.766355 1.595016-16.34891 2.392524-10.766355 2.392523-21.53271 4.785047-31.900311 9.171339-41.470405 15.152648-77.358255 45.05919-100.485982 82.143302l-16.348909-9.968847c25.520249-40.672897 64.996885-73.370717 110.056075-90.11838 11.165109-4.386293 23.127726-7.17757 34.691588-9.968847 5.981308-0.797508 11.962617-2.392523 17.943926-2.791278l9.171339-0.797507 9.17134-0.398754c24.323988-0.797508 48.249221 2.791277 71.376947 9.570093 45.856698 14.35514 87.327103 44.261682 114.841121 84.137072 27.912773 39.476636 41.869159 88.124611 39.87539 136.373832-1.993769 48.249221-20.735202 95.700935-52.236761 132.386292-15.551402 18.342679-34.292835 34.292835-55.028037 46.654206-20.735202 12.361371-43.464174 21.133956-66.990654 26.317757-11.962617 2.392523-23.925234 3.987539-35.887851 4.386293l-9.171339 0.398754c-3.190031 0-5.981308-0.398754-9.17134-0.398754-3.190031 0-5.981308 0-9.171339-0.398754l-9.17134-0.797508c-5.981308-0.398754-11.962617-1.993769-17.943925-2.791277-5.981308-1.196262-11.563863-2.791277-17.545171-4.386293-5.582555-1.993769-11.563863-3.588785-17.146418-5.981308s-11.165109-4.386293-16.747663-7.17757c-21.53271-10.766355-41.869159-24.323988-59.015577-41.470405-15.551402-16.747664-29.906542-36.286604-41.071651-57.819315z" fill="#F2F2F2" p-id="2513"></path><path d="M260.785047 757.632399l17.146417-8.772586c10.766355 21.53271 25.520249 41.071651 42.666667 58.218069 17.146417 17.146417 37.482866 30.70405 59.015576 41.470405 5.183801 2.791277 11.165109 4.785047 16.747664 7.17757 5.582555 2.392523 11.563863 3.987539 17.146417 5.981308 5.981308 1.196262 11.563863 3.190031 17.545172 4.386293 5.981308 0.797508 11.962617 2.392523 17.943925 2.791277l9.171339 0.797508c3.190031 0.398754 5.981308 0.398754 9.17134 0.398754 3.190031 0 5.981308 0.398754 9.171339 0.398754l9.17134-0.398754c11.962617-0.398754 23.925234-1.993769 35.88785-4.386293 23.52648-5.183801 46.255452-13.956386 66.990655-26.317757 20.735202-12.361371 39.476636-28.311526 55.028037-46.654206 31.501558-36.685358 49.844237-84.137072 52.23676-132.386292 2.392523-48.249221-11.563863-97.29595-39.875389-136.373832-27.514019-39.476636-68.984424-69.781931-114.841122-84.137072-23.127726-6.778816-47.05296-10.766355-71.376947-9.570093l-9.171339 0.398754-9.17134 0.797507c-5.981308 0.398754-11.962617 1.595016-17.943925 2.791278-11.962617 2.392523-23.52648 5.582555-34.691589 9.968847-45.457944 16.34891-84.535826 49.046729-110.056075 90.11838l-16.348909-9.968847c27.912773-44.261682 70.579439-79.750779 119.626168-97.694704 12.361371-4.785047 25.121495-7.975078 37.88162-10.766355 6.380062-0.797508 12.760125-2.392523 19.538941-2.791278l9.968847-0.797508 9.968847-0.398753c26.317757-0.797508 52.635514 2.791277 77.75701 10.367601 50.242991 15.551402 94.903427 48.249221 124.809969 91.314642 30.305296 42.666667 45.457944 96.099688 43.06542 148.336448-2.392523 52.635514-22.330218 104.074766-56.623053 143.950156-16.747664 19.937695-37.482866 37.084112-59.813084 50.641744-22.330218 13.557632-47.451713 23.127726-72.971963 28.710281-12.760125 2.791277-25.919003 4.386293-39.077881 4.785047l-9.968848 0.398753c-3.190031 0-6.380062-0.398754-9.968847-0.398753-3.190031 0-6.380062 0-9.968847-0.398754l-9.968848-1.196262c-6.380062-0.398754-12.760125-1.993769-19.53894-3.190031-6.380062-1.196262-12.760125-3.190031-19.140187-4.785047-6.380062-1.993769-12.361371-3.987539-18.741433-6.380062-5.981308-2.392523-12.361371-4.785047-17.943926-7.975078-23.52648-11.563863-45.457944-26.317757-64.199377-45.05919-18.741433-18.342679-34.292835-39.875389-46.255451-63.401869z" fill="" p-id="2514"></path><path d="M243.638629 766.404984L260.785047 757.632399c11.962617 23.52648 27.514019 44.660436 46.255451 63.401869 18.741433 18.741433 40.672897 33.495327 64.199377 45.05919 5.981308 3.190031 11.962617 5.183801 17.943926 7.975078 5.981308 2.392523 12.361371 4.386293 18.741433 6.380062 6.380062 1.595016 12.760125 3.588785 19.140187 4.785047 6.380062 1.196262 12.760125 2.791277 19.53894 3.190031l9.570094 0.797508c3.190031 0.398754 6.380062 0.398754 9.968847 0.398754 3.190031 0 6.380062 0.398754 9.968848 0.398754l9.968847-0.398754c13.158879-0.797508 26.317757-2.392523 39.077882-4.785047 25.520249-5.582555 50.242991-15.152648 72.971962-28.71028 22.330218-13.557632 43.065421-30.70405 59.813084-50.641745 34.292835-39.875389 54.23053-91.314642 56.623053-143.950156 2.392523-52.635514-12.760125-105.669782-43.06542-148.336448-29.906542-43.065421-74.566978-75.76324-124.809969-91.314642-25.121495-7.576324-51.439252-11.563863-77.75701-10.367601l-9.968847 0.398754-9.968847 0.797507c-6.380062 0.398754-13.158879 1.993769-19.538941 2.791278-12.760125 2.791277-25.520249 5.981308-37.88162 10.766355-49.445483 17.943925-91.713396 53.433022-119.626168 97.694704l-16.34891-9.968848c30.305296-47.850467 76.161994-86.130841 129.196262-105.669781 13.158879-5.183801 27.115265-8.772586 40.672897-11.563863 7.17757-1.196262 13.956386-2.791277 21.133956-3.190032l10.766356-1.196261 10.766355-0.398754c28.311526-1.196262 56.623053 3.190031 83.738317 11.563863 54.23053 16.747664 102.479751 51.838006 134.778817 98.492212 32.697819 46.255452 49.046729 103.676012 46.654205 160.299065-2.392523 56.623053-24.323988 112.448598-61.009346 155.514019-18.342679 21.53271-40.274143 39.875389-64.59813 54.629283-24.323988 14.35514-51.040498 25.121495-78.953271 31.102804-13.956386 2.791277-27.912773 4.785047-42.267913 5.183801l-10.766355 0.398754c-3.588785 0-7.17757-0.398754-10.766356-0.398754-3.588785 0-7.17757 0-10.766355-0.398754l-10.367601-1.196262c-7.17757-0.398754-13.956386-1.993769-21.133956-3.190031-6.778816-1.196262-13.956386-3.190031-20.735203-5.183801-6.778816-2.392523-13.557632-4.386293-19.937694-6.778816-6.380062-2.791277-13.158879-5.183801-19.538941-8.373832-25.520249-12.361371-49.046729-28.71028-69.383178-48.647975-19.538941-20.336449-36.286604-43.464174-49.445483-68.58567z" fill="#F2F2F2" p-id="2515"></path><path d="M226.492212 775.17757l17.146417-8.772586c12.760125 25.121495 29.906542 48.249221 49.844237 68.186916 19.937695 19.937695 43.862928 36.286604 69.383178 48.647975 6.380062 3.190031 13.158879 5.582555 19.53894 8.373832 6.778816 2.791277 13.557632 4.785047 19.937695 6.778816 6.778816 1.595016 13.557632 3.588785 20.735203 5.183801 7.17757 1.196262 13.956386 2.791277 21.133956 3.190031l10.367601 1.196262c3.588785 0.398754 7.17757 0.398754 10.766355 0.398754 3.588785 0 7.17757 0.398754 10.766356 0.398754l10.766355-0.398754c13.956386-0.797508 28.311526-2.392523 42.267912-5.183801 27.912773-5.981308 54.629283-16.34891 78.953271-31.102804 24.323988-14.753894 46.255452-33.096573 64.598131-54.629283 36.685358-43.065421 58.616822-98.890966 61.009346-155.514019 2.791277-56.623053-13.557632-114.043614-46.654205-160.299065-32.299065-46.654206-80.548287-81.744548-134.778817-98.492212-27.115265-8.373832-55.426791-12.361371-83.738317-11.563863l-10.766356 0.398754-10.766355 1.196262c-7.17757 0.398754-13.956386 1.993769-21.133956 3.190031-13.956386 2.791277-27.514019 6.380062-40.672897 11.563863-53.433022 19.538941-99.28972 57.819315-129.196262 105.669782l-16.34891-9.968848c32.299065-51.439252 81.744548-92.510903 138.766355-113.246106 14.35514-5.582555 29.109034-9.17134 43.862929-12.36137 7.576324-1.196262 15.152648-2.791277 22.728972-3.190032l11.165109-1.196261 11.563863-0.398754c30.305296-1.196262 61.009346 3.588785 90.11838 12.361371 58.218069 17.943925 110.056075 55.825545 144.747663 105.669782 35.489097 49.445483 53.034268 111.65109 50.242991 172.261682-2.791277 60.610592-26.317757 120.82243-65.794392 166.679127-19.538941 23.127726-43.464174 43.065421-69.383178 58.616823-26.317757 15.551402-55.028037 26.716511-84.535826 33.096573-14.753894 3.190031-29.906542 5.183801-45.05919 5.582555l-11.563863 0.398754c-3.987539 0-7.576324-0.398754-11.563863-0.398754s-7.576324 0-11.563862-0.398754l-11.165109-1.196262c-7.576324-0.797508-15.152648-2.392523-22.728972-3.588785-7.576324-1.196262-14.753894-3.588785-22.330218-5.582555-7.17757-2.392523-14.35514-4.386293-21.532711-7.17757-7.17757-2.791277-14.35514-5.582555-21.133956-9.171339-27.514019-13.158879-52.635514-30.70405-74.168224-52.23676a285.906542 285.906542 0 0 1-53.831776-72.971963z" fill="" p-id="2516"></path><path d="M209.744548 783.551402l17.146418-8.772586c13.956386 27.115265 31.900312 51.838006 53.433022 73.370717 21.53271 21.53271 47.05296 39.077882 74.168224 52.23676 6.778816 3.588785 13.956386 5.981308 21.133956 9.171339 7.17757 2.791277 14.35514 4.785047 21.532711 7.17757 7.576324 1.993769 14.753894 3.987539 22.330218 5.582555 7.576324 1.196262 14.753894 2.791277 22.728972 3.588785l11.165109 1.196262c3.588785 0.398754 7.576324 0.398754 11.563862 0.398754s7.576324 0.398754 11.563863 0.398754l11.563863-0.398754c15.152648-0.797508 30.305296-2.791277 45.05919-5.582555 29.906542-6.380062 58.616822-17.545171 84.535826-33.096573 25.919003-15.551402 49.844237-35.489097 69.383178-58.616823 39.476636-46.255452 63.003115-106.068536 65.794392-166.679127 2.791277-60.610592-14.753894-122.417445-50.242991-172.261682-34.691589-49.844237-86.529595-87.725857-144.747663-105.669782-29.109034-8.772586-59.813084-13.158879-90.11838-12.361371l-11.563863 0.398754-11.563863 1.196261c-7.576324 0.398754-15.152648 1.993769-22.728972 3.190032-14.753894 3.190031-29.507788 6.778816-43.862928 12.36137-57.420561 21.133956-106.46729 61.806854-138.766356 113.246106l-16.348909-9.968847C257.595016 438.629283 310.23053 394.766355 371.638629 372.436137c15.152648-5.981308 31.102804-9.968847 47.05296-13.158878 7.975078-1.196262 15.950156-2.791277 24.323987-3.588785l11.962617-1.196262 12.361371-0.398754c32.299065-1.196262 64.996885 3.588785 96.099688 13.158878 31.102804 9.968847 60.610592 24.323988 86.928349 43.862929 26.317757 19.140187 49.445483 42.666667 67.788162 69.383177 37.88162 53.034268 56.623053 119.227414 53.433022 184.224299-2.791277 64.996885-27.912773 129.196262-70.180685 178.242991-21.133956 24.722741-46.255452 45.856698-74.168225 62.604361-27.912773 16.747664-58.616822 28.71028-90.517134 35.489097-15.950156 3.190031-32.299065 5.183801-48.249221 5.981308l-12.36137 0.398754c-3.987539 0-7.975078-0.398754-12.361371-0.398754-3.987539 0-7.975078-0.398754-11.962617-0.398753l-11.962617-1.196262c-7.975078-0.797508-15.950156-2.392523-23.925233-3.987539s-15.950156-3.987539-23.925234-5.582555c-7.576324-2.392523-15.551402-4.785047-23.127726-7.975077s-15.152648-5.981308-22.330218-9.570094c-29.109034-14.35514-56.224299-33.096573-79.352025-55.825545-23.52648-23.52648-42.666667-49.844237-57.420561-78.953271z" fill="#F2F2F2" p-id="2517"></path><path d="M192.598131 792.323988l17.146417-8.772586c14.753894 29.109034 34.292835 55.426791 57.420561 78.554517 23.127726 23.127726 50.242991 41.470405 79.352025 55.825545 7.17757 3.987539 14.753894 6.380062 22.330218 9.570094 7.576324 2.791277 15.551402 5.183801 23.127726 7.975078 7.975078 1.993769 15.551402 4.386293 23.925234 5.582554 7.975078 1.196262 15.950156 3.190031 23.925233 3.987539l11.962617 1.196262c3.987539 0.398754 7.975078 0.398754 11.962617 0.398754s7.975078 0.398754 12.361371 0.398753l12.36137-0.398753c16.34891-0.797508 32.299065-2.791277 48.249221-5.981309 31.900312-6.778816 62.604361-18.741433 90.517134-35.489096s53.034268-37.88162 74.168225-62.604362c42.267913-49.445483 67.389408-113.246106 70.180685-178.24299 3.190031-64.598131-15.950156-131.190031-53.433022-184.2243-18.741433-26.716511-41.869159-50.242991-67.788162-69.383177-26.317757-19.140187-55.825545-33.894081-86.928349-43.862928-31.102804-9.570093-63.800623-14.35514-96.099688-13.158879l-12.361371 0.398754-11.962617 1.196262c-7.975078 0.797508-15.950156 2.392523-24.323987 3.588785-15.950156 3.190031-31.900312 7.576324-47.05296 13.158878C310.23053 394.766355 257.595016 438.629283 222.903427 493.657321l-16.34891-9.968847C243.239875 425.071651 299.464174 378.417445 364.461059 354.890966c16.34891-6.380062 33.096573-10.766355 49.844237-13.956387 8.373832-1.196262 17.146417-3.190031 25.520249-3.987539l12.760125-1.196261c4.386293-0.398754 8.772586-0.398754 12.760124-0.398754 34.292835-1.196262 69.383178 3.987539 102.479751 13.956386 33.096573 10.367601 64.598131 25.919003 92.510904 46.654206 27.912773 20.336449 52.635514 45.457944 72.174454 73.76947 40.274143 56.623053 60.211838 127.202492 57.021807 195.788162-2.791277 68.984424-29.906542 137.570093-74.566978 189.806854-22.330218 26.317757-49.046729 49.046729-78.953271 66.990654s-62.604361 30.70405-96.498442 37.88162c-17.146417 3.588785-34.292835 5.582555-51.439253 6.380062l-12.760124 0.398754c-4.386293 0-8.772586-0.398754-12.760125-0.398754-4.386293-0.398754-8.772586-0.398754-12.760124-0.797508l-12.760125-1.196261c-8.772586-0.797508-17.146417-2.392523-25.520249-3.987539-8.373832-1.595016-16.747664-3.987539-25.121496-5.981309-8.373832-2.791277-16.747664-5.183801-24.722741-8.373831s-16.34891-6.380062-23.925234-10.367602c-31.102804-15.152648-60.211838-35.090343-84.535825-59.41433-24.323988-25.121495-45.05919-53.433022-60.610592-84.137071z" fill="" p-id="2518"></path><path d="M175.451713 800.697819l17.146418-8.772585c15.551402 31.102804 36.286604 59.015576 61.009346 83.339564 24.722741 24.323988 53.433022 44.261682 84.535825 59.41433 7.576324 3.987539 15.950156 7.17757 23.925234 10.367601s16.34891 5.582555 24.722741 8.373832c8.373832 1.993769 16.747664 4.386293 25.121496 5.981308 8.373832 1.595016 17.146417 3.190031 25.520249 3.987539l12.760124 1.196262c4.386293 0.398754 8.772586 0.398754 12.760125 0.797508 4.386293 0 8.772586 0.398754 12.760125 0.398753l12.760124-0.398753c17.146417-0.797508 34.292835-2.791277 51.439253-6.380063 33.894081-7.17757 66.5919-19.937695 96.498442-37.88162 29.507788-17.943925 56.623053-40.274143 78.953271-66.990654 45.05919-52.635514 71.775701-120.82243 74.566978-189.806853 3.190031-68.984424-16.747664-139.563863-57.021807-195.788162-19.937695-28.311526-44.660436-53.433022-72.174455-73.769471-27.912773-20.336449-59.41433-36.286604-92.510903-46.654205-33.096573-9.968847-67.788162-15.152648-102.479751-13.956387-4.386293 0-8.772586 0.398754-12.760124 0.398754l-12.760125 1.196262c-8.772586 0.797508-17.146417 2.392523-25.520249 3.987539-17.146417 3.588785-33.894081 7.975078-49.844237 13.956386-65.395639 23.925234-121.221184 70.180685-157.906542 128.797508l-16.34891-9.968848c39.077882-62.205607 98.492212-111.252336 167.476636-136.772585 17.146417-6.778816 35.090343-11.165109 53.034268-15.152648 9.17134-1.595016 17.943925-3.190031 27.115265-3.987539l13.557632-1.196262c4.386293-0.398754 9.17134-0.398754 13.557632-0.398754 36.685358-1.196262 73.370717 3.987539 108.46106 14.753894 35.090343 11.165109 68.58567 27.514019 98.093458 49.445483 29.507788 21.53271 55.825545 48.249221 76.560747 78.155764 42.666667 59.813084 63.800623 134.778816 60.610592 207.750778-3.190031 73.370717-31.501558 145.943925-79.352025 201.370717-23.52648 27.912773-52.23676 51.838006-83.738318 70.978193-31.501558 18.741433-66.193146 32.299065-102.080996 40.274143-17.943925 3.588785-36.286604 5.981308-54.629284 6.778816l-13.557632 0.398754c-4.386293 0-9.17134-0.398754-13.557633-0.398754-4.386293-0.398754-9.17134-0.398754-13.557632-0.797507l-13.557633-1.595016c-9.17134-0.797508-18.342679-2.791277-27.115264-4.386293-9.17134-1.595016-17.943925-4.386293-26.716511-6.380062-8.772586-2.791277-17.545171-5.582555-26.317757-8.772586-8.373832-3.588785-17.146417-6.778816-25.121496-11.165109-33.096573-15.950156-63.800623-37.084112-89.719626-63.003115-26.317757-24.722741-47.850467-55.028037-64.598131-87.725857z" fill="#F2F2F2" p-id="2519"></path><path d="M141.158879 817.844237l17.146417-8.772586c17.545171 34.691589 40.672897 66.193146 68.186916 93.707165 27.514019 27.514019 59.813084 49.844237 94.903427 66.591901 8.772586 4.386293 17.943925 7.975078 26.716511 11.563862 9.17134 3.588785 18.342679 6.380062 27.514018 9.570094 9.570093 2.392523 18.741433 5.183801 28.311527 6.778816 9.570093 1.595016 19.140187 3.588785 28.71028 4.386293l14.35514 1.595016c4.785047 0.398754 9.570093 0.398754 14.35514 0.797507 4.785047 0 9.570093 0.398754 14.355141 0.398754l14.35514-0.398754c19.140187-0.797508 38.679128-3.190031 57.819314-7.17757 37.88162-7.975078 74.965732-22.330218 108.062306-42.267913s63.401869-45.05919 88.523364-74.965732c50.242991-59.015576 80.548287-135.576324 83.738318-212.934579 3.588785-76.959502-18.741433-156.311526-63.800623-219.713396-22.330218-31.900312-49.844237-59.813084-80.947041-82.542056-31.102804-23.127726-66.5919-40.672897-103.676012-52.23676-37.084112-11.165109-76.161994-17.146417-114.841122-15.551402-4.785047 0-9.570093 0.398754-14.35514 0.398754l-14.35514 1.595016c-9.570093 0.797508-19.140187 2.791277-28.71028 4.386293-19.140187 3.987539-37.88162 8.772586-56.224299 15.950155-73.370717 26.716511-135.975078 78.953271-177.046729 144.747664l-16.34891-9.968848C201.370717 384.398754 267.563863 329.76947 344.523364 301.457944c19.140187-7.17757 39.077882-12.760125 59.015577-16.747664 9.968847-1.595016 20.336449-3.588785 30.305296-4.386292l15.152648-1.595016c5.183801-0.398754 10.367601-0.398754 15.152648-0.797508 40.672897-1.196262 81.744548 4.386293 120.82243 16.34891 39.077882 12.361371 76.161994 30.70405 109.258567 55.028037 33.096573 24.323988 62.205607 53.433022 85.333333 86.928349 11.563863 16.747664 22.330218 34.292835 31.102804 53.034268 8.772586 18.342679 16.34891 37.88162 21.931464 57.420561 11.563863 39.476636 15.950156 80.548287 14.35514 121.221184-1.993769 40.672897-10.367601 81.345794-25.520249 119.626168-14.753894 38.280374-36.286604 73.76947-63.003115 104.872274-26.317757 31.102804-58.218069 57.819315-92.909658 78.953271a365.657321 365.657321 0 0 1-114.043613 44.660436c-19.937695 4.386293-40.274143 6.778816-60.610592 7.576324l-15.152648 0.398754c-5.183801 0-10.367601-0.398754-15.152648-0.398754-5.183801-0.398754-10.367601-0.398754-15.152648-0.797508l-15.152648-1.595015c-10.367601-0.797508-20.336449-3.190031-30.305296-4.785047-9.968847-1.993769-19.937695-4.785047-29.906542-7.17757-9.570093-3.190031-19.538941-5.981308-29.109035-9.968847-9.570093-3.987539-19.140187-7.576324-28.311526-12.361371-36.685358-17.943925-70.978193-41.470405-100.087227-70.180686-28.311526-28.71028-53.034268-62.205607-71.376947-98.890965z" fill="#F2F2F2" p-id="2520"></path><path d="M158.305296 809.470405l17.146417-8.772586c16.747664 32.697819 38.679128 62.604361 64.598131 88.523365s56.623053 47.05296 89.719626 63.003115c7.975078 4.386293 16.747664 7.576324 25.121496 11.165109 8.373832 3.190031 17.545171 5.981308 26.317757 8.772586 8.772586 2.392523 17.943925 4.785047 26.716511 6.380062 9.17134 1.595016 17.943925 3.588785 27.115264 4.386293l13.557633 1.595015c4.386293 0.398754 9.17134 0.398754 13.557632 0.797508 4.386293 0 9.17134 0.398754 13.557633 0.398754l13.557632-0.398754c18.342679-0.797508 36.685358-3.190031 54.629284-6.778816 35.88785-7.576324 70.579439-21.133956 102.080996-40.274143 31.501558-19.140187 59.813084-42.666667 83.738318-70.978193 47.850467-55.825545 76.161994-128 79.352025-201.370717 3.588785-72.971963-17.943925-147.937695-60.610592-207.750779-21.133956-30.305296-47.05296-56.623053-76.560747-78.155763-29.507788-21.931464-63.003115-38.280374-98.093458-49.445483-35.090343-10.766355-72.174455-15.950156-108.46106-14.753894-4.386293 0-9.17134 0.398754-13.557632 0.398754l-13.557632 1.196262c-9.17134 0.797508-18.342679 2.392523-27.115265 3.987539-17.943925 3.588785-35.88785 8.373832-53.034268 15.152648-69.383178 25.520249-128.398754 74.566978-167.476636 136.772585l-16.348909-9.968847c41.071651-65.794393 104.074766-117.632399 177.046729-144.747664 18.342679-6.778816 37.084112-11.962617 56.224299-15.950155 9.570093-1.595016 19.140187-3.588785 28.71028-4.386293l14.35514-1.196262c4.785047-0.398754 9.570093-0.398754 14.35514-0.398754 38.679128-1.196262 77.757009 4.386293 114.841122 15.551402 37.084112 11.563863 72.573209 29.109034 103.676012 52.23676 31.102804 23.127726 59.015576 50.641745 80.947041 82.542056 45.05919 63.401869 67.389408 142.753894 63.800623 219.713396-3.190031 77.358255-33.495327 154.317757-83.738318 212.934579-25.121495 29.507788-55.028037 55.028037-88.523364 74.965732-33.495327 19.937695-70.180685 34.292835-108.062306 42.267913-19.140187 3.987539-38.280374 6.380062-57.819314 7.17757l-13.956386 0.797508c-4.785047 0-9.570093-0.398754-14.355141-0.398754-4.785047-0.398754-9.570093-0.398754-14.35514-0.797508l-14.35514-1.595015c-9.570093-0.797508-19.140187-2.791277-28.71028-4.386293-9.570093-1.993769-18.741433-4.386293-28.311527-6.778816-9.17134-3.190031-18.741433-5.981308-27.514019-9.570094-9.17134-3.588785-17.943925-7.17757-26.71651-11.563863-35.090343-17.146417-67.389408-39.476636-94.903427-66.5919-27.912773-27.514019-51.040498-59.015576-68.58567-93.707165z" fill="" p-id="2521"></path></svg>