<svg t="1625576285637" class="icon" viewBox="0 0 1024 1024" version="1.1" xmlns="http://www.w3.org/2000/svg" p-id="1834" width="200" height="200"><path d="M387.685603 0h19.125292v1024H387.685603z" fill="#F2F2F2" p-id="1835"></path><path d="M406.810895 0h19.125292v1024H406.810895z" fill="" p-id="1836"></path><path d="M425.936187 0h19.125292v1024H425.936187z" fill="#F2F2F2" p-id="1837"></path><path d="M445.061479 0h19.125291v1024h-19.125291z" fill="" p-id="1838"></path><path d="M464.18677 0H483.312062v1024h-19.125292z" fill="#F2F2F2" p-id="1839"></path><path d="M483.312062 0h19.125292v1024H483.312062z" fill="" p-id="1840"></path><path d="M502.437354 0h19.125292v1024h-19.125292z" fill="#F2F2F2" p-id="1841"></path><path d="M521.562646 0h19.125292v1024h-19.125292z" fill="" p-id="1842"></path><path d="M540.687938 0h19.125292v1024h-19.125292z" fill="#F2F2F2" p-id="1843"></path><path d="M559.81323 0H578.938521v1024h-19.125291z" fill="" p-id="1844"></path><path d="M578.938521 0h19.125292v1024H578.938521zM617.189105 0h19.125292v1024h-19.125292z" fill="#F2F2F2" p-id="1845"></path><path d="M598.063813 0h19.125292v1024h-19.125292z" fill="" p-id="1846"></path></svg>