<svg t="1625576694841" class="icon" viewBox="0 0 1024 1024" version="1.1" xmlns="http://www.w3.org/2000/svg" p-id="4750"
  width="200" height="200">
  <path d="M404.882 225.372m-93.895 0a93.895 93.895 0 1 0 187.79 0 93.895 93.895 0 1 0-187.79 0Z" fill="#3D75FF"
    p-id="4751"></path>
  <path d="M411.489 222.069m-93.895 0a93.895 93.895 0 1 0 187.79 0 93.895 93.895 0 1 0-187.79 0Z" fill="#3C74FE"
    p-id="4752"></path>
  <path d="M418.095 218.765m-93.895 0a93.895 93.895 0 1 0 187.79 0 93.895 93.895 0 1 0-187.79 0Z" fill="#3C73FC"
    p-id="4753"></path>
  <path d="M424.702 215.462m-93.895 0a93.895 93.895 0 1 0 187.79 0 93.895 93.895 0 1 0-187.79 0Z" fill="#3B72FB"
    p-id="4754"></path>
  <path d="M431.309 212.159m-93.895 0a93.895 93.895 0 1 0 187.79 0 93.895 93.895 0 1 0-187.79 0Z" fill="#3B71FA"
    p-id="4755"></path>
  <path d="M437.915 208.855m-93.895 0a93.895 93.895 0 1 0 187.79 0 93.895 93.895 0 1 0-187.79 0Z" fill="#3A70F8"
    p-id="4756"></path>
  <path d="M444.522 205.552m-93.895 0a93.895 93.895 0 1 0 187.79 0 93.895 93.895 0 1 0-187.79 0Z" fill="#3A6FF7"
    p-id="4757"></path>
  <path d="M451.129 202.249m-93.895 0a93.895 93.895 0 1 0 187.79 0 93.895 93.895 0 1 0-187.79 0Z" fill="#396DF6"
    p-id="4758"></path>
  <path d="M457.735 198.945m-93.895 0a93.895 93.895 0 1 0 187.79 0 93.895 93.895 0 1 0-187.79 0Z" fill="#396CF4"
    p-id="4759"></path>
  <path d="M464.382 195.626m-93.895 0a93.895 93.895 0 1 0 187.79 0 93.895 93.895 0 1 0-187.79 0Z" fill="#386BF3"
    p-id="4760"></path>
  <path d="M471.721 192.938m-93.895 0a93.895 93.895 0 1 0 187.79 0 93.895 93.895 0 1 0-187.79 0Z" fill="#386AF1"
    p-id="4761"></path>
  <path d="M479.114 191.828m-93.895 0a93.895 93.895 0 1 0 187.79 0 93.895 93.895 0 1 0-187.79 0Z" fill="#3769F0"
    p-id="4762"></path>
  <path d="M486.383 192.185m-93.895 0a93.895 93.895 0 1 0 187.79 0 93.895 93.895 0 1 0-187.79 0Z" fill="#3668EF"
    p-id="4763"></path>
  <path d="M493.351 193.9m-93.895 0a93.895 93.895 0 1 0 187.79 0 93.895 93.895 0 1 0-187.79 0Z" fill="#3667ED"
    p-id="4764"></path>
  <path d="M499.838 196.862m-93.895 0a93.895 93.895 0 1 0 187.79 0 93.895 93.895 0 1 0-187.79 0Z" fill="#3566EC"
    p-id="4765"></path>
  <path d="M505.666 200.96m-93.895 0a93.895 93.895 0 1 0 187.79 0 93.895 93.895 0 1 0-187.79 0Z" fill="#3565EB"
    p-id="4766"></path>
  <path d="M510.657 206.086m-93.895 0a93.895 93.895 0 1 0 187.79 0 93.895 93.895 0 1 0-187.79 0Z" fill="#3464E9"
    p-id="4767"></path>
  <path d="M514.633 212.128m-93.895 0a93.895 93.895 0 1 0 187.79 0 93.895 93.895 0 1 0-187.79 0Z" fill="#3463E8"
    p-id="4768"></path>
  <path d="M517.415 218.976m-93.895 0a93.895 93.895 0 1 0 187.79 0 93.895 93.895 0 1 0-187.79 0Z" fill="#3362E7"
    p-id="4769"></path>
  <path d="M518.825 226.521m-93.895 0a93.895 93.895 0 1 0 187.79 0 93.895 93.895 0 1 0-187.79 0Z" fill="#3360E5"
    p-id="4770"></path>
  <path d="M518.965 234.154m-93.895 0a93.895 93.895 0 1 0 187.79 0 93.895 93.895 0 1 0-187.79 0Z" fill="#325FE4"
    p-id="4771"></path>
  <path d="M518.965 241.541m-93.895 0a93.895 93.895 0 1 0 187.79 0 93.895 93.895 0 1 0-187.79 0Z" fill="#325EE3"
    p-id="4772"></path>
  <path d="M518.965 248.927m-93.895 0a93.895 93.895 0 1 0 187.79 0 93.895 93.895 0 1 0-187.79 0Z" fill="#315DE1"
    p-id="4773"></path>
  <path d="M518.965 256.313m-93.895 0a93.895 93.895 0 1 0 187.79 0 93.895 93.895 0 1 0-187.79 0Z" fill="#305CE0"
    p-id="4774"></path>
  <path d="M518.965 263.7m-93.895 0a93.895 93.895 0 1 0 187.79 0 93.895 93.895 0 1 0-187.79 0Z" fill="#305BDE"
    p-id="4775"></path>
  <path d="M518.965 271.086m-93.895 0a93.895 93.895 0 1 0 187.79 0 93.895 93.895 0 1 0-187.79 0Z" fill="#2F5ADD"
    p-id="4776"></path>
  <path d="M518.965 278.473m-93.895 0a93.895 93.895 0 1 0 187.79 0 93.895 93.895 0 1 0-187.79 0Z" fill="#2F59DC"
    p-id="4777"></path>
  <path d="M518.965 285.859m-93.895 0a93.895 93.895 0 1 0 187.79 0 93.895 93.895 0 1 0-187.79 0Z" fill="#2E58DA"
    p-id="4778"></path>
  <path d="M518.965 293.246m-93.895 0a93.895 93.895 0 1 0 187.79 0 93.895 93.895 0 1 0-187.79 0Z" fill="#2E57D9"
    p-id="4779"></path>
  <path d="M518.965 300.632m-93.895 0a93.895 93.895 0 1 0 187.79 0 93.895 93.895 0 1 0-187.79 0Z" fill="#2D56D8"
    p-id="4780"></path>
  <path d="M518.965 308.019m-93.895 0a93.895 93.895 0 1 0 187.79 0 93.895 93.895 0 1 0-187.79 0Z" fill="#2D55D6"
    p-id="4781"></path>
  <path d="M518.965 315.405m-93.895 0a93.895 93.895 0 1 0 187.79 0 93.895 93.895 0 1 0-187.79 0Z" fill="#2C54D5"
    p-id="4782"></path>
  <path d="M518.965 322.792m-93.895 0a93.895 93.895 0 1 0 187.79 0 93.895 93.895 0 1 0-187.79 0Z" fill="#2C52D4"
    p-id="4783"></path>
  <path d="M518.965 330.178m-93.895 0a93.895 93.895 0 1 0 187.79 0 93.895 93.895 0 1 0-187.79 0Z" fill="#2B51D2"
    p-id="4784"></path>
  <path d="M518.965 337.564m-93.895 0a93.895 93.895 0 1 0 187.79 0 93.895 93.895 0 1 0-187.79 0Z" fill="#2A50D1"
    p-id="4785"></path>
  <path d="M518.965 344.951m-93.895 0a93.895 93.895 0 1 0 187.79 0 93.895 93.895 0 1 0-187.79 0Z" fill="#2A4FD0"
    p-id="4786"></path>
  <path d="M518.965 352.337m-93.895 0a93.895 93.895 0 1 0 187.79 0 93.895 93.895 0 1 0-187.79 0Z" fill="#294ECE"
    p-id="4787"></path>
  <path d="M518.965 359.724m-93.895 0a93.895 93.895 0 1 0 187.79 0 93.895 93.895 0 1 0-187.79 0Z" fill="#294DCD"
    p-id="4788"></path>
  <path d="M518.965 367.11m-93.895 0a93.895 93.895 0 1 0 187.79 0 93.895 93.895 0 1 0-187.79 0Z" fill="#284CCB"
    p-id="4789"></path>
  <path d="M518.965 374.497m-93.895 0a93.895 93.895 0 1 0 187.79 0 93.895 93.895 0 1 0-187.79 0Z" fill="#284BCA"
    p-id="4790"></path>
  <path d="M518.965 381.883m-93.895 0a93.895 93.895 0 1 0 187.79 0 93.895 93.895 0 1 0-187.79 0Z" fill="#274AC9"
    p-id="4791"></path>
  <path d="M518.965 389.27m-93.895 0a93.895 93.895 0 1 0 187.79 0 93.895 93.895 0 1 0-187.79 0Z" fill="#2749C7"
    p-id="4792"></path>
  <path d="M518.965 396.656m-93.895 0a93.895 93.895 0 1 0 187.79 0 93.895 93.895 0 1 0-187.79 0Z" fill="#2648C6"
    p-id="4793"></path>
  <path d="M518.965 404.043m-93.895 0a93.895 93.895 0 1 0 187.79 0 93.895 93.895 0 1 0-187.79 0Z" fill="#2647C5"
    p-id="4794"></path>
  <path d="M518.965 411.429m-93.895 0a93.895 93.895 0 1 0 187.79 0 93.895 93.895 0 1 0-187.79 0Z" fill="#2546C3"
    p-id="4795"></path>
  <path d="M518.965 418.816m-93.895 0a93.895 93.895 0 1 0 187.79 0 93.895 93.895 0 1 0-187.79 0Z" fill="#2444C2"
    p-id="4796"></path>
  <path d="M518.965 426.202m-93.895 0a93.895 93.895 0 1 0 187.79 0 93.895 93.895 0 1 0-187.79 0Z" fill="#2443C1"
    p-id="4797"></path>
  <path d="M518.965 433.588m-93.895 0a93.895 93.895 0 1 0 187.79 0 93.895 93.895 0 1 0-187.79 0Z" fill="#2342BF"
    p-id="4798"></path>
  <path d="M518.965 440.975m-93.895 0a93.895 93.895 0 1 0 187.79 0 93.895 93.895 0 1 0-187.79 0Z" fill="#2341BE"
    p-id="4799"></path>
  <path d="M518.965 448.361m-93.895 0a93.895 93.895 0 1 0 187.79 0 93.895 93.895 0 1 0-187.79 0Z" fill="#2240BD"
    p-id="4800"></path>
  <path d="M518.965 455.748m-93.895 0a93.895 93.895 0 1 0 187.79 0 93.895 93.895 0 1 0-187.79 0Z" fill="#223FBB"
    p-id="4801"></path>
  <path d="M518.965 463.134m-93.895 0a93.895 93.895 0 1 0 187.79 0 93.895 93.895 0 1 0-187.79 0Z" fill="#213EBA"
    p-id="4802"></path>
  <path d="M518.965 470.521m-93.895 0a93.895 93.895 0 1 0 187.79 0 93.895 93.895 0 1 0-187.79 0Z" fill="#213DB8"
    p-id="4803"></path>
  <path d="M518.965 477.907m-93.895 0a93.895 93.895 0 1 0 187.79 0 93.895 93.895 0 1 0-187.79 0Z" fill="#203CB7"
    p-id="4804"></path>
  <path d="M518.965 485.294m-93.895 0a93.895 93.895 0 1 0 187.79 0 93.895 93.895 0 1 0-187.79 0Z" fill="#203BB6"
    p-id="4805"></path>
  <path d="M518.965 492.68m-93.895 0a93.895 93.895 0 1 0 187.79 0 93.895 93.895 0 1 0-187.79 0Z" fill="#1F3AB4"
    p-id="4806"></path>
  <path d="M518.965 500.067m-93.895 0a93.895 93.895 0 1 0 187.79 0 93.895 93.895 0 1 0-187.79 0Z" fill="#1F39B3"
    p-id="4807"></path>
  <path d="M518.965 507.453m-93.895 0a93.895 93.895 0 1 0 187.79 0 93.895 93.895 0 1 0-187.79 0Z" fill="#1E37B2"
    p-id="4808"></path>
  <path d="M518.965 514.84m-93.895 0a93.895 93.895 0 1 0 187.79 0 93.895 93.895 0 1 0-187.79 0Z" fill="#1D36B0"
    p-id="4809"></path>
  <path d="M518.965 522.226m-93.895 0a93.895 93.895 0 1 0 187.79 0 93.895 93.895 0 1 0-187.79 0Z" fill="#1D35AF"
    p-id="4810"></path>
  <path d="M518.965 529.612m-93.895 0a93.895 93.895 0 1 0 187.79 0 93.895 93.895 0 1 0-187.79 0Z" fill="#1C34AE"
    p-id="4811"></path>
  <path d="M518.965 536.999m-93.895 0a93.895 93.895 0 1 0 187.79 0 93.895 93.895 0 1 0-187.79 0Z" fill="#1C33AC"
    p-id="4812"></path>
  <path d="M518.965 544.385m-93.895 0a93.895 93.895 0 1 0 187.79 0 93.895 93.895 0 1 0-187.79 0Z" fill="#1B32AB"
    p-id="4813"></path>
  <path d="M518.965 551.772m-93.895 0a93.895 93.895 0 1 0 187.79 0 93.895 93.895 0 1 0-187.79 0Z" fill="#1B31AA"
    p-id="4814"></path>
  <path d="M518.965 559.158m-93.895 0a93.895 93.895 0 1 0 187.79 0 93.895 93.895 0 1 0-187.79 0Z" fill="#1A30A8"
    p-id="4815"></path>
  <path d="M518.965 566.545m-93.895 0a93.895 93.895 0 1 0 187.79 0 93.895 93.895 0 1 0-187.79 0Z" fill="#1A2FA7"
    p-id="4816"></path>
  <path d="M518.965 573.931m-93.895 0a93.895 93.895 0 1 0 187.79 0 93.895 93.895 0 1 0-187.79 0Z" fill="#192EA5"
    p-id="4817"></path>
  <path d="M518.965 581.318m-93.895 0a93.895 93.895 0 1 0 187.79 0 93.895 93.895 0 1 0-187.79 0Z" fill="#192DA4"
    p-id="4818"></path>
  <path d="M518.965 588.704m-93.895 0a93.895 93.895 0 1 0 187.79 0 93.895 93.895 0 1 0-187.79 0Z" fill="#182CA3"
    p-id="4819"></path>
  <path d="M518.965 596.091m-93.895 0a93.895 93.895 0 1 0 187.79 0 93.895 93.895 0 1 0-187.79 0Z" fill="#172BA1"
    p-id="4820"></path>
  <path d="M518.965 603.477m-93.895 0a93.895 93.895 0 1 0 187.79 0 93.895 93.895 0 1 0-187.79 0Z" fill="#1729A0"
    p-id="4821"></path>
  <path d="M518.965 610.864m-93.895 0a93.895 93.895 0 1 0 187.79 0 93.895 93.895 0 1 0-187.79 0Z" fill="#16289F"
    p-id="4822"></path>
  <path d="M518.965 618.25m-93.895 0a93.895 93.895 0 1 0 187.79 0 93.895 93.895 0 1 0-187.79 0Z" fill="#16279D"
    p-id="4823"></path>
  <path d="M518.965 625.636m-93.895 0a93.895 93.895 0 1 0 187.79 0 93.895 93.895 0 1 0-187.79 0Z" fill="#15269C"
    p-id="4824"></path>
  <path d="M518.965 633.023m-93.895 0a93.895 93.895 0 1 0 187.79 0 93.895 93.895 0 1 0-187.79 0Z" fill="#15259B"
    p-id="4825"></path>
  <path d="M518.965 640.409m-93.895 0a93.895 93.895 0 1 0 187.79 0 93.895 93.895 0 1 0-187.79 0Z" fill="#142499"
    p-id="4826"></path>
  <path d="M518.965 647.796m-93.895 0a93.895 93.895 0 1 0 187.79 0 93.895 93.895 0 1 0-187.79 0Z" fill="#142398"
    p-id="4827"></path>
  <path d="M518.965 655.182m-93.895 0a93.895 93.895 0 1 0 187.79 0 93.895 93.895 0 1 0-187.79 0Z" fill="#132297"
    p-id="4828"></path>
  <path d="M518.965 662.569m-93.895 0a93.895 93.895 0 1 0 187.79 0 93.895 93.895 0 1 0-187.79 0Z" fill="#132195"
    p-id="4829"></path>
  <path d="M518.965 669.955m-93.895 0a93.895 93.895 0 1 0 187.79 0 93.895 93.895 0 1 0-187.79 0Z" fill="#122094"
    p-id="4830"></path>
  <path d="M518.965 677.342m-93.895 0a93.895 93.895 0 1 0 187.79 0 93.895 93.895 0 1 0-187.79 0Z" fill="#111F92"
    p-id="4831"></path>
  <path d="M518.965 684.728m-93.895 0a93.895 93.895 0 1 0 187.79 0 93.895 93.895 0 1 0-187.79 0Z" fill="#111E91"
    p-id="4832"></path>
  <path d="M518.965 692.115m-93.895 0a93.895 93.895 0 1 0 187.79 0 93.895 93.895 0 1 0-187.79 0Z" fill="#101D90"
    p-id="4833"></path>
  <path d="M518.965 699.501m-93.895 0a93.895 93.895 0 1 0 187.79 0 93.895 93.895 0 1 0-187.79 0Z" fill="#101B8E"
    p-id="4834"></path>
  <path d="M518.965 706.888m-93.895 0a93.895 93.895 0 1 0 187.79 0 93.895 93.895 0 1 0-187.79 0Z" fill="#0F1A8D"
    p-id="4835"></path>
  <path d="M518.965 714.274m-93.895 0a93.895 93.895 0 1 0 187.79 0 93.895 93.895 0 1 0-187.79 0Z" fill="#0F198C"
    p-id="4836"></path>
  <path d="M518.965 721.66m-93.895 0a93.895 93.895 0 1 0 187.79 0 93.895 93.895 0 1 0-187.79 0Z" fill="#0E188A"
    p-id="4837"></path>
  <path d="M518.965 729.047m-93.895 0a93.895 93.895 0 1 0 187.79 0 93.895 93.895 0 1 0-187.79 0Z" fill="#0E1789"
    p-id="4838"></path>
  <path d="M518.965 736.433m-93.895 0a93.895 93.895 0 1 0 187.79 0 93.895 93.895 0 1 0-187.79 0Z" fill="#0D1688"
    p-id="4839"></path>
  <path d="M518.965 743.82m-93.895 0a93.895 93.895 0 1 0 187.79 0 93.895 93.895 0 1 0-187.79 0Z" fill="#0D1586"
    p-id="4840"></path>
  <path d="M518.965 751.206m-93.895 0a93.895 93.895 0 1 0 187.79 0 93.895 93.895 0 1 0-187.79 0Z" fill="#0C1485"
    p-id="4841"></path>
  <path d="M518.965 758.593m-93.895 0a93.895 93.895 0 1 0 187.79 0 93.895 93.895 0 1 0-187.79 0Z" fill="#0B1384"
    p-id="4842"></path>
  <path d="M518.965 765.979m-93.895 0a93.895 93.895 0 1 0 187.79 0 93.895 93.895 0 1 0-187.79 0Z" fill="#0B1282"
    p-id="4843"></path>
  <path d="M518.965 773.366m-93.895 0a93.895 93.895 0 1 0 187.79 0 93.895 93.895 0 1 0-187.79 0Z" fill="#0A1181"
    p-id="4844"></path>
  <path d="M518.965 780.752m-93.895 0a93.895 93.895 0 1 0 187.79 0 93.895 93.895 0 1 0-187.79 0Z" fill="#0A107F"
    p-id="4845"></path>
  <path d="M518.965 788.139m-93.895 0a93.895 93.895 0 1 0 187.79 0 93.895 93.895 0 1 0-187.79 0Z" fill="#090E7E"
    p-id="4846"></path>
  <path d="M518.965 795.525m-93.895 0a93.895 93.895 0 1 0 187.79 0 93.895 93.895 0 1 0-187.79 0Z" fill="#090D7D"
    p-id="4847"></path>
  <path d="M518.965 802.911m-93.895 0a93.895 93.895 0 1 0 187.79 0 93.895 93.895 0 1 0-187.79 0Z" fill="#080C7B"
    p-id="4848"></path>
  <path d="M518.965 810.298m-93.895 0a93.895 93.895 0 1 0 187.79 0 93.895 93.895 0 1 0-187.79 0Z" fill="#080B7A"
    p-id="4849"></path>
  <path d="M518.965 817.684m-93.895 0a93.895 93.895 0 1 0 187.79 0 93.895 93.895 0 1 0-187.79 0Z" fill="#070A79"
    p-id="4850"></path>
  <path d="M518.965 825.071m-93.895 0a93.895 93.895 0 1 0 187.79 0 93.895 93.895 0 1 0-187.79 0Z" fill="#070977"
    p-id="4851"></path>
  <path d="M518.965 832.457m-93.895 0a93.895 93.895 0 1 0 187.79 0 93.895 93.895 0 1 0-187.79 0Z" fill="#060876"
    p-id="4852"></path>
</svg>