<svg t="1625576364668" class="icon" viewBox="0 0 1024 1024" version="1.1" xmlns="http://www.w3.org/2000/svg" p-id="2997" width="200" height="200"><path d="M594.243451 598.385208c-11.044684-11.044684-24.061633-19.328197-37.867488-25.244992-14.200308-5.522342-29.189522-8.677966-44.57319-8.677966-15.77812 0-30.767334 2.761171-44.573189 8.677966-14.200308 5.916795-27.217257 14.594761-37.867488 25.244992-11.044684 11.044684-19.328197 24.061633-25.244993 37.867488-5.522342 14.200308-8.677966 29.189522-8.677966 44.57319 0 15.77812 2.761171 30.767334 8.677966 44.57319 5.916795 14.200308 14.594761 27.217257 25.244993 37.867488 11.044684 11.044684 24.061633 19.328197 37.867488 25.244992 14.200308 5.522342 29.189522 8.677966 44.573189 8.677966 15.77812 0 30.767334-2.761171 44.57319-8.677966 14.200308-5.916795 27.217257-14.594761 37.867488-25.244992 11.044684-11.044684 19.328197-24.061633 25.244993-37.867488 5.522342-14.200308 8.677966-29.189522 8.677966-44.57319 0-15.383667-3.155624-30.372881-8.677966-44.57319-5.916795-14.200308-14.594761-27.217257-25.244993-37.867488z m7.494608 119.51926c-4.733436 11.439137-11.83359 22.483821-20.90601 31.556241s-19.72265 16.172573-31.55624 20.906009c-11.439137 4.733436-24.061633 7.494607-37.078582 7.494607s-25.244992-2.761171-37.078583-7.494607c-11.439137-4.733436-22.483821-11.83359-31.55624-20.906009s-16.172573-19.72265-20.90601-31.556241c-4.733436-11.439137-7.494607-24.061633-7.494607-37.078582s2.761171-25.244992 7.494607-37.078582c4.733436-11.439137 11.83359-22.483821 20.90601-31.556241s19.72265-16.172573 31.55624-20.906009c11.439137-4.733436 24.061633-7.494607 37.078583-7.494607s25.244992 2.761171 37.078582 7.494607c11.439137 4.733436 22.483821 11.83359 31.55624 20.906009s16.172573 19.72265 20.90601 31.556241c4.733436 11.439137 7.494607 24.061633 7.494607 37.078582s-2.761171 25.244992-7.494607 37.078582z" fill="#F2F2F2" p-id="2998"></path><path d="M620.671803 571.956857c-14.594761-14.594761-31.55624-26.033898-50.095532-33.528506-18.539291-7.88906-38.261941-11.83359-58.773498-11.83359-20.117103 0-40.234206 3.94453-58.773497 11.83359-18.539291 7.88906-35.895223 19.328197-50.095532 33.528506-14.594761 14.594761-26.033898 31.55624-33.528505 50.095531-7.88906 18.539291-11.83359 38.261941-11.83359 58.773498 0 20.117103 3.94453 40.234206 11.83359 58.773498s19.328197 35.895223 33.528505 50.095531c14.594761 14.594761 31.55624 26.033898 50.095532 33.528506 18.539291 7.88906 38.261941 11.83359 58.773497 11.83359 20.117103 0 40.234206-3.94453 58.773498-11.83359 18.539291-7.88906 35.895223-19.328197 50.095532-33.528506 14.594761-14.594761 26.033898-31.55624 33.528505-50.095531 7.88906-18.539291 11.83359-38.261941 11.83359-58.773498s-3.94453-40.234206-11.83359-58.773498-19.328197-35.895223-33.528505-50.095531z m16.172573 160.542373c-6.705701 16.172573-16.567026 31.161787-29.189522 43.784283s-27.61171 22.483821-43.784284 29.189522-33.922958 10.255778-51.673343 10.255779-35.50077-3.550077-51.673344-10.255779c-16.172573-6.705701-31.161787-16.567026-43.784284-29.189522-12.622496-12.622496-22.483821-27.61171-29.189522-43.784283s-10.255778-33.922958-10.255778-51.673344 3.550077-35.50077 10.255778-51.673344c6.705701-16.172573 16.567026-31.161787 29.189522-43.784283 12.622496-12.622496 27.61171-22.483821 43.784284-29.189522s33.922958-10.255778 51.673344-10.255779 35.50077 3.550077 51.673343 10.255779c16.172573 6.705701 31.161787 16.567026 43.784284 29.189522s22.483821 27.61171 29.189522 43.784283c6.705701 16.172573 10.255778 33.922958 10.255778 51.673344s-3.550077 35.50077-10.255778 51.673344z" fill="#F2F2F2" p-id="2999"></path><path d="M647.88906 545.134052c-17.750385-17.750385-39.050847-31.950693-62.323575-41.417565-23.272727-9.466872-48.123267-14.594761-73.368258-14.594761s-50.095532 5.127889-73.368259 14.594761-44.57319 23.66718-62.323575 41.417565-31.950693 39.050847-41.417566 62.323575c-9.466872 23.272727-14.594761 48.123267-14.594761 73.368259s5.127889 50.095532 14.594761 73.368259c9.466872 23.272727 23.66718 44.57319 41.417566 62.323575s39.050847 31.950693 62.323575 41.417565 48.123267 14.594761 73.368259 14.594761 50.095532-5.127889 73.368258-14.594761 44.57319-23.66718 62.323575-41.417565 31.950693-39.050847 41.417566-62.323575c9.466872-23.272727 14.594761-48.123267 14.594761-73.368259 0-25.244992-5.127889-50.489985-14.594761-73.368259-9.466872-23.272727-23.66718-44.57319-41.417566-62.323575z m24.061633 201.959939c-8.677966 20.906009-21.300462 39.839753-37.473035 56.012326-15.77812 16.172573-35.106317 28.795069-56.012327 37.473036-20.906009 8.677966-43.389831 13.016949-66.268104 13.016949-22.878274 0-45.362096-4.338983-66.268105-13.016949s-39.839753-21.300462-56.012327-37.473036c-16.172573-15.77812-28.795069-35.106317-37.473035-56.012326s-13.016949-43.389831-13.01695-66.268105 4.338983-45.362096 13.01695-66.268105 21.300462-39.839753 37.473035-56.012326c15.77812-16.172573 35.106317-28.795069 56.012327-37.473036s43.389831-13.016949 66.268105-13.016949 45.362096 4.338983 66.268104 13.016949 39.839753 21.300462 56.012327 37.473036c16.172573 15.77812 28.795069 35.106317 37.473035 56.012326s13.016949 43.389831 13.01695 66.268105-4.338983 45.362096-13.01695 66.268105z" fill="#F2F2F2" p-id="3000"></path><path d="M674.711864 518.311248c-21.300462-21.300462-46.939908-38.261941-74.551617-49.701079-28.006163-11.439137-57.984592-17.355932-87.96302-17.355932s-60.35131 5.916795-87.963021 17.355932-53.251156 28.400616-74.551617 49.701079c-21.300462 21.300462-38.261941 46.939908-49.701079 74.551618-11.439137 28.006163-17.355932 57.984592-17.355932 87.96302s5.916795 60.35131 17.355932 87.96302 28.400616 53.251156 49.701079 74.551618 46.939908 38.261941 74.551617 49.701078c28.006163 11.439137 57.984592 17.355932 87.963021 17.355933 29.978428 0 60.35131-5.916795 87.96302-17.355933s53.251156-28.400616 74.551617-49.701078c21.300462-21.300462 38.261941-46.939908 49.701079-74.551618 11.439137-28.006163 17.355932-57.984592 17.355932-87.96302s-5.916795-60.35131-17.355932-87.96302c-11.439137-27.61171-28.400616-53.251156-49.701079-74.551618z m31.950694 243.377504c-10.650231 25.244992-26.428351 48.51772-45.756549 68.24037s-42.600924 35.106317-68.24037 45.756548-53.251156 16.172573-80.862866 16.172573c-28.006163 0-55.223421-5.522342-80.862865-16.172573-25.244992-10.650231-48.51772-26.428351-68.24037-45.756548s-35.106317-42.600924-45.756549-68.24037c-10.650231-25.639445-16.172573-53.251156-16.172573-80.862866 0-28.006163 5.522342-55.223421 16.172573-80.862866 10.650231-25.244992 26.428351-48.51772 45.756549-68.24037s42.600924-35.106317 68.24037-45.756548 53.251156-16.172573 80.862865-16.172573c28.006163 0 55.223421 5.522342 80.862866 16.172573 25.244992 10.650231 48.51772 26.428351 68.24037 45.756548s35.106317 42.600924 45.756549 68.24037 16.172573 53.251156 16.172573 80.862866c0 28.006163-5.522342 55.223421-16.172573 80.862866z" fill="#F2F2F2" p-id="3001"></path><path d="M701.140216 491.488444c-24.850539-24.850539-54.434515-44.57319-86.779661-57.984592-32.345146-13.411402-67.451464-20.511556-102.557782-20.511556s-70.212635 7.100154-102.557781 20.511556c-32.345146 13.411402-61.929122 33.134052-86.779661 57.984592s-44.57319 54.434515-57.984591 86.779661c-13.411402 32.345146-20.511556 67.451464-20.511557 102.557781s7.100154 70.212635 20.511557 102.557781 33.134052 61.929122 57.984591 86.779661 54.434515 44.57319 86.779661 57.984592 67.451464 20.511556 102.557781 20.511556 70.212635-7.100154 102.557782-20.511556 61.929122-33.134052 86.779661-57.984592 44.57319-54.434515 57.984591-86.779661 20.511556-67.451464 20.511557-102.557781-7.100154-70.212635-20.511557-102.557781-33.134052-61.929122-57.984591-86.779661z m40.628659 284.400616c-12.622496 30.372881-31.161787 57.984592-54.040061 80.862866-23.272727 23.272727-50.884438 41.417565-80.862866 54.040062s-62.718028 18.933744-95.063175 18.933744-65.084746-6.311248-95.063174-18.933744c-30.372881-12.622496-57.984592-31.161787-80.862866-54.040062-23.272727-23.272727-41.417565-50.884438-54.040061-80.862866s-18.933744-62.718028-18.933744-95.063174 6.311248-65.084746 18.933744-95.063174c12.622496-30.372881 31.161787-57.984592 54.040061-80.862866 23.272727-23.272727 50.884438-41.417565 80.862866-54.040062s62.718028-18.933744 95.063174-18.933744 65.084746 6.311248 95.063175 18.933744c30.372881 12.622496 57.984592 31.161787 80.862866 54.040062 23.272727 23.272727 41.417565 50.884438 54.040061 80.862866s18.933744 62.718028 18.933744 95.063174-6.311248 65.084746-18.933744 95.063174z" fill="#F2F2F2" p-id="3002"></path><path d="M727.96302 465.060092c-28.006163-28.400616-61.929122-50.884438-99.007704-66.268104-36.684129-15.383667-76.918336-23.272727-116.758089-23.272728-39.4453 0-79.679507 7.88906-116.75809 23.272728s-70.607088 37.867488-99.007704 66.268104c-28.400616 28.006163-50.884438 61.929122-66.268105 99.007705-15.383667 36.684129-23.272727 76.918336-23.272727 116.758089 0 39.4453 7.88906 79.679507 23.272727 116.758089 15.383667 37.078582 37.867488 70.607088 66.268105 99.007705 28.006163 28.400616 61.929122 50.884438 99.007704 66.268104C432.123267 978.243451 472.357473 986.132512 512.197227 986.132512c39.4453 0 79.679507-7.88906 116.758089-23.272728s70.607088-37.867488 99.007704-66.268104c28.400616-28.006163 50.884438-61.929122 66.268105-99.007705 15.383667-36.684129 23.272727-76.918336 23.272727-116.758089s-7.88906-80.07396-23.272727-116.758089c-15.383667-37.078582-37.867488-70.607088-66.268105-99.007705z m48.912173 325.423729c-14.200308 34.711864-35.50077 66.662558-61.929122 93.090909-26.822804 26.428351-58.379045 47.728814-93.090909 61.929122-34.711864 14.200308-72.1849 21.694915-109.657935 21.694915s-74.946071-7.100154-109.657936-21.694915c-34.711864-14.200308-66.662558-35.50077-93.090909-61.929122-26.428351-26.822804-47.728814-58.379045-61.929122-93.090909s-21.694915-72.1849-21.694915-109.657935 7.100154-74.946071 21.694915-109.657935c14.200308-34.711864 35.50077-66.662558 61.929122-93.090909 26.822804-26.428351 58.379045-47.728814 93.090909-61.929122s72.1849-21.694915 109.657936-21.694915 74.946071 7.100154 109.657935 21.694915c34.711864 14.200308 66.662558 35.50077 93.090909 61.929122 26.428351 26.822804 47.728814 58.379045 61.929122 93.090909 14.200308 34.711864 21.694915 72.1849 21.694915 109.657935s-7.100154 74.946071-21.694915 109.657935z" fill="#F2F2F2" p-id="3003"></path><path d="M829.337442 549.473035c-17.355932-41.417565-42.995378-79.679507-74.551618-111.235747-31.55624-31.950693-69.423729-57.195686-111.235747-74.551618-41.417565-17.355932-86.779661-26.033898-131.35285-26.033898s-89.935285 8.677966-131.352851 26.033898-79.679507 42.995378-111.235747 74.551618c-31.950693 31.55624-57.195686 69.423729-74.551618 111.235747-17.355932 41.417565-26.033898 86.779661-26.033899 131.352851s8.677966 89.935285 26.033899 131.352851 42.995378 79.679507 74.551618 111.235747c31.55624 31.950693 69.423729 57.195686 111.235747 74.551618 41.417565 17.355932 86.779661 26.033898 131.352851 26.033898s89.935285-8.677966 131.35285-26.033898 79.679507-42.995378 111.235747-74.551618c31.950693-31.55624 57.195686-69.423729 74.551618-111.235747 17.355932-41.417565 26.033898-86.779661 26.033899-131.352851s-8.677966-89.935285-26.033899-131.352851z m-17.750385 255.605547c-16.172573 39.4453-40.234206 75.340524-70.212635 105.318953-29.978428 29.978428-65.873652 54.040062-105.318952 70.212634-39.4453 16.567026-82.046225 24.850539-124.252697 24.85054s-84.807396-8.677966-124.252696-24.85054-75.340524-40.234206-105.318952-70.212634-54.040062-65.873652-70.212635-105.318953c-16.567026-39.4453-24.850539-82.046225-24.850539-124.252696s8.677966-84.807396 24.850539-124.252696 40.234206-75.340524 70.212635-105.318953 65.873652-54.040062 105.318952-70.212635c39.4453-16.567026 82.046225-24.850539 124.252696-24.850539s84.807396 8.677966 124.252697 24.850539 75.340524 40.234206 105.318952 70.212635c29.978428 29.978428 54.040062 65.873652 70.212635 105.318953 16.567026 39.4453 24.850539 82.046225 24.850539 124.252696s-8.677966 84.807396-24.850539 124.252696z" fill="#F2F2F2" p-id="3004"></path><path d="M607.654854 585.368259c-12.622496-12.622496-27.61171-22.483821-43.784284-29.189522s-33.922958-10.255778-51.673343-10.255779-35.50077 3.550077-51.673344 10.255779c-16.172573 6.705701-31.161787 16.567026-43.784284 29.189522s-22.483821 27.61171-29.189522 43.784283-10.255778 33.922958-10.255778 51.673344 3.550077 35.50077 10.255778 51.673344c6.705701 16.172573 16.567026 31.161787 29.189522 43.784283 12.622496 12.622496 27.61171 22.483821 43.784284 29.189522s33.922958 10.255778 51.673344 10.255779 35.50077-3.550077 51.673343-10.255779c16.172573-6.705701 31.161787-16.567026 43.784284-29.189522s22.483821-27.61171 29.189522-43.784283c6.705701-16.172573 10.255778-33.922958 10.255778-51.673344 0-18.144838-3.550077-35.50077-10.255778-51.673344-6.705701-16.172573-16.567026-31.161787-29.189522-43.784283z m11.83359 140.030817c-5.916795 14.200308-14.594761 27.217257-25.244993 37.867488-11.044684 11.044684-24.061633 19.328197-37.867488 25.244992-14.200308 5.522342-29.189522 8.677966-44.57319 8.677966-15.77812 0-30.767334-2.761171-44.573189-8.677966-14.200308-5.916795-27.217257-14.594761-37.867488-25.244992-11.044684-11.044684-19.328197-24.061633-25.244993-37.867488-5.522342-14.200308-8.677966-29.189522-8.677966-44.57319 0-15.77812 2.761171-30.767334 8.677966-44.57319 5.916795-14.200308 14.594761-27.217257 25.244993-37.867488 11.044684-11.044684 24.061633-19.328197 37.867488-25.244992 14.200308-5.522342 29.189522-8.677966 44.573189-8.677966 15.77812 0 30.767334 2.761171 44.57319 8.677966 14.200308 5.916795 27.217257 14.594761 37.867488 25.244992 11.044684 11.044684 19.328197 24.061633 25.244993 37.867488 5.522342 14.200308 8.677966 29.189522 8.677966 44.57319 0 15.77812-2.761171 30.767334-8.677966 44.57319z" fill="" p-id="3005"></path><path d="M634.477658 558.545455c-15.77812-16.172573-35.106317-28.795069-56.012327-37.473036-20.906009-8.677966-43.389831-13.016949-66.268104-13.016949-22.878274 0-45.362096 4.338983-66.268105 13.016949s-39.839753 21.300462-56.012327 37.473036c-16.172573 15.77812-28.795069 35.106317-37.473035 56.012326s-13.016949 43.389831-13.01695 66.268105 4.338983 45.362096 13.01695 66.268105 21.300462 39.839753 37.473035 56.012326c15.77812 16.172573 35.106317 28.795069 56.012327 37.473036s43.389831 13.016949 66.268105 13.016949 45.362096-4.338983 66.268104-13.016949 39.839753-21.300462 56.012327-37.473036c16.172573-15.77812 28.795069-35.106317 37.473035-56.012326s13.016949-43.389831 13.01695-66.268105-4.338983-45.362096-13.01695-66.268105c-8.677966-20.906009-21.300462-39.839753-37.473035-56.012326z m19.72265 181.053929c-7.88906 18.539291-19.328197 35.895223-33.528505 50.095531-14.594761 14.594761-31.55624 26.033898-50.095532 33.528506-18.539291 7.88906-38.261941 11.83359-58.773498 11.83359-20.117103 0-40.234206-3.94453-58.773497-11.83359-18.539291-7.88906-35.895223-19.328197-50.095532-33.528506-14.594761-14.594761-26.033898-31.55624-33.528505-50.095531-7.88906-18.539291-11.83359-38.261941-11.83359-58.773498 0-20.117103 3.94453-40.234206 11.83359-58.773498s19.328197-35.895223 33.528505-50.095531c14.594761-14.594761 31.55624-26.033898 50.095532-33.528506 18.539291-7.88906 38.261941-11.83359 58.773497-11.83359 20.117103 0 40.234206 3.94453 58.773498 11.83359 18.539291 7.88906 35.895223 19.328197 50.095532 33.528506 14.594761 14.594761 26.033898 31.55624 33.528505 50.095531 7.88906 18.539291 11.83359 38.261941 11.83359 58.773498 0 20.117103-3.94453 40.234206-11.83359 58.773498z" fill="" p-id="3006"></path><path d="M660.906009 531.72265c-19.328197-19.72265-42.600924-35.106317-68.24037-45.756548S539.414484 469.793529 511.802773 469.793529c-28.006163 0-55.223421 5.522342-80.862865 16.172573-25.244992 10.650231-48.51772 26.428351-68.24037 45.756548s-35.106317 42.600924-45.756549 68.24037c-10.650231 25.639445-16.172573 53.251156-16.172573 80.862866 0 28.006163 5.522342 55.223421 16.172573 80.862866 10.650231 25.244992 26.428351 48.51772 45.756549 68.24037S405.300462 865.035439 430.939908 875.68567s53.251156 16.172573 80.862865 16.172573c28.006163 0 55.223421-5.522342 80.862866-16.172573 25.244992-10.650231 48.51772-26.428351 68.24037-45.756548s35.106317-42.600924 45.756549-68.24037 16.172573-53.251156 16.172573-80.862866-5.522342-55.223421-16.172573-80.862866c-10.650231-25.244992-26.428351-48.51772-45.756549-68.24037z m28.400617 222.471495c-9.466872 23.272727-23.66718 44.57319-41.417566 62.323575s-39.050847 31.950693-62.323575 41.417565-48.123267 14.594761-73.368258 14.594761-50.095532-5.127889-73.368259-14.594761-44.57319-23.66718-62.323575-41.417565-31.950693-39.050847-41.417566-62.323575c-9.466872-23.272727-14.594761-48.123267-14.594761-73.368259 0-25.244992 5.127889-50.095532 14.594761-73.368259 9.466872-23.272727 23.66718-44.57319 41.417566-62.323575s39.050847-31.950693 62.323575-41.417565c23.272727-9.466872 48.123267-14.594761 73.368259-14.594761s50.095532 5.127889 73.368258 14.594761 44.57319 23.66718 62.323575 41.417565 31.950693 39.050847 41.417566 62.323575c9.466872 23.272727 14.594761 48.123267 14.594761 73.368259s-5.127889 50.095532-14.594761 73.368259z" fill="" p-id="3007"></path><path d="M687.728814 504.899846c-23.272727-23.272727-50.884438-41.417565-80.862866-54.040062s-62.718028-18.933744-95.063175-18.933744-65.084746 6.311248-95.063174 18.933744c-30.372881 12.622496-57.984592 31.161787-80.862866 54.040062-23.272727 23.272727-41.417565 50.884438-54.040061 80.862866s-18.933744 62.718028-18.933744 95.063174 6.311248 65.084746 18.933744 95.063174c12.622496 30.372881 31.161787 57.984592 54.040061 80.862866 23.272727 23.272727 50.884438 41.417565 80.862866 54.040062s62.718028 18.933744 95.063174 18.933744 65.084746-6.311248 95.063175-18.933744c30.372881-12.622496 57.984592-31.161787 80.862866-54.040062 23.272727-23.272727 41.417565-50.884438 54.040061-80.862866s18.933744-62.718028 18.933744-95.063174-6.311248-65.084746-18.933744-95.063174c-12.622496-30.372881-31.161787-57.984592-54.040061-80.862866z m36.684129 263.88906c-11.439137 27.61171-28.400616 53.251156-49.701079 74.551618-21.300462 21.300462-46.939908 38.261941-74.551617 49.701078-28.006163 11.439137-57.984592 17.355932-87.96302 17.355933s-60.35131-5.916795-87.963021-17.355933-53.251156-28.400616-74.551617-49.701078c-21.300462-21.300462-38.261941-46.939908-49.701079-74.551618-11.439137-28.006163-17.355932-57.984592-17.355932-87.96302s5.916795-60.35131 17.355932-87.96302 28.400616-53.251156 49.701079-74.551618c21.300462-21.300462 46.939908-38.261941 74.551617-49.701079 28.006163-11.439137 57.984592-17.355932 87.963021-17.355932 29.978428 0 60.35131 5.916795 87.96302 17.355932s53.251156 28.400616 74.551617 49.701079c21.300462 21.300462 38.261941 46.939908 49.701079 74.551618 11.439137 28.006163 17.355932 57.984592 17.355932 87.96302 0 29.978428-5.916795 60.35131-17.355932 87.96302z" fill="" p-id="3008"></path><path d="M714.946071 478.077042c-26.822804-26.428351-58.379045-47.728814-93.090909-61.929122S549.670262 394.453005 512.197227 394.453005s-74.946071 7.100154-109.657936 21.694915c-34.711864 14.200308-66.662558 35.50077-93.090909 61.929122C283.020031 504.899846 261.719569 536.456086 247.51926 571.167951s-21.694915 72.1849-21.694915 109.657935 7.100154 74.946071 21.694915 109.657935c14.200308 34.711864 35.50077 66.662558 61.929122 93.090909 26.822804 26.428351 58.379045 47.728814 93.090909 61.929122 34.711864 14.200308 72.1849 21.694915 109.657936 21.694915s74.946071-7.100154 109.657935-21.694915c34.711864-14.200308 66.662558-35.50077 93.090909-61.929122 26.428351-26.822804 47.728814-58.379045 61.929122-93.090909 14.200308-34.711864 21.694915-72.1849 21.694915-109.657935s-7.494607-74.946071-21.694915-109.657935-35.50077-66.662558-61.929122-93.090909z m44.178736 305.306625c-13.411402 32.345146-33.134052 61.929122-57.984591 86.779661s-54.434515 44.57319-86.779661 57.984592-67.451464 20.511556-102.557782 20.511556-70.212635-7.100154-102.557781-20.511556-61.929122-33.134052-86.779661-57.984592-44.57319-54.434515-57.984591-86.779661-20.511556-67.451464-20.511557-102.557781 7.100154-70.212635 20.511557-102.557781 33.134052-61.929122 57.984591-86.779661 54.434515-44.57319 86.779661-57.984592c32.345146-13.411402 67.451464-20.511556 102.557781-20.511556s70.212635 7.100154 102.557782 20.511556c32.345146 13.411402 61.929122 33.134052 86.779661 57.984592 24.850539 24.850539 44.57319 54.434515 57.984591 86.779661s20.511556 67.451464 20.511557 102.557781-7.100154 70.212635-20.511557 102.557781z" fill="" p-id="3009"></path><path d="M811.587057 556.57319c-16.172573-39.4453-40.234206-75.340524-70.212635-105.318953s-65.873652-54.040062-105.318952-70.212635c-39.4453-16.567026-82.046225-24.850539-124.252697-24.850539s-84.807396 8.677966-124.252696 24.850539-75.340524 40.234206-105.318952 70.212635c-29.978428 29.978428-54.040062 65.873652-70.212635 105.318953-16.567026 39.4453-24.850539 82.046225-24.850539 124.252696s8.677966 84.807396 24.850539 124.252696 40.234206 75.340524 70.212635 105.318953c29.978428 29.978428 65.873652 54.040062 105.318952 70.212634 39.4453 16.567026 82.046225 24.850539 124.252696 24.85054s84.807396-8.677966 124.252697-24.85054 75.340524-40.234206 105.318952-70.212634c29.978428-29.978428 54.040062-65.873652 70.212635-105.318953 16.567026-39.4453 24.850539-82.046225 24.850539-124.252696s-8.283513-84.807396-24.850539-124.252696z m-17.355932 241.010785c-15.383667 37.078582-37.867488 70.607088-66.268105 99.007705-28.006163 28.400616-61.929122 50.884438-99.007704 66.268104-36.684129 15.383667-76.918336 23.272727-116.758089 23.272728s-80.07396-7.88906-116.75809-23.272728c-37.078582-15.383667-70.607088-37.867488-99.007704-66.268104-28.400616-28.006163-50.884438-61.929122-66.268105-99.007705-15.383667-36.684129-23.272727-76.918336-23.272727-116.758089 0-39.4453 7.88906-79.679507 23.272727-116.758089 15.383667-37.078582 37.867488-70.607088 66.268105-99.007705 28.006163-28.400616 61.929122-50.884438 99.007704-66.268104 36.684129-15.383667 76.918336-23.272727 116.75809-23.272728 39.4453 0 79.679507 7.88906 116.758089 23.272728s70.607088 37.867488 99.007704 66.268104c28.400616 28.006163 50.884438 61.929122 66.268105 99.007705 15.383667 36.684129 23.272727 76.918336 23.272727 116.758089 0 39.4453-7.88906 79.679507-23.272727 116.758089z" fill="" p-id="3010"></path><path d="M576.493066 290.317411h-18.933744c0-6.311248-1.183359-11.83359-3.550077-16.961479-1.972265-5.127889-5.522342-10.255778-9.466872-14.594761-4.338983-4.338983-9.072419-7.494607-14.594761-9.466872-5.127889-2.366718-10.650231-3.155624-16.961479-3.550077-6.311248 0-11.83359 1.183359-16.96148 3.550077-5.127889 1.972265-10.255778 5.522342-14.594761 9.466872-4.338983 4.338983-7.494607 9.072419-9.466872 14.594761-2.366718 5.127889-3.155624 10.650231-3.550077 16.961479 0 6.311248 1.183359 11.83359 3.550077 16.96148 1.972265 5.127889 5.522342 10.255778 9.466872 14.594761 4.338983 4.338983 9.072419 7.494607 14.594761 9.466872 5.127889 2.366718 10.650231 3.155624 16.96148 3.550077 6.311248 0 11.83359-1.183359 16.961479-3.550077 5.127889-1.972265 10.255778-5.522342 14.594761-9.466872 4.338983-4.338983 7.494607-9.072419 9.466872-14.594761 2.366718-5.127889 3.155624-10.650231 3.550077-16.96148h18.933744c0 8.677966-1.577812 16.567026-4.733436 24.061634-3.155624 7.494607-7.88906 14.594761-13.805855 20.511556s-13.016949 10.650231-20.511556 13.805855c-7.494607 3.155624-15.77812 4.733436-24.061633 4.733436-8.677966 0-16.567026-1.577812-24.061634-4.733436-7.494607-3.155624-14.594761-7.88906-20.511556-13.805855s-10.650231-13.016949-13.805855-20.511556c-3.155624-7.494607-4.733436-15.77812-4.733436-24.061634 0-8.677966 1.577812-16.567026 4.733436-24.061633 3.155624-7.494607 7.88906-14.594761 13.805855-20.511556s13.016949-10.650231 20.511556-13.805855c7.494607-3.155624 15.77812-4.733436 24.061634-4.733436 8.677966 0 16.567026 1.577812 24.061633 4.733436s14.594761 7.88906 20.511556 13.805855 10.650231 13.016949 13.805855 20.511556c2.761171 7.494607 4.733436 15.77812 4.733436 24.061633z" fill="#F2F2F2" p-id="3011"></path><path d="M512.986133 189.337442c-26.428351 0-52.46225 10.650231-71.001541 29.583976-18.933744 18.933744-29.583975 44.57319-29.583976 71.395993 0 26.428351 10.650231 52.46225 29.583976 71.395994s44.57319 29.583975 71.395994 29.583976c26.428351 0 52.46225-10.650231 71.395993-29.583976s29.583975-44.57319 29.583976-71.395994c0-26.428351-10.650231-52.46225-29.978429-71.395993-18.933744-18.933744-44.57319-29.583975-71.395993-29.583976z m82.440677 100.979969c0 11.044684-2.366718 21.694915-6.311248 31.556241s-10.255778 19.328197-17.750385 26.822804c-7.88906 7.494607-16.961479 13.805855-26.822804 17.750385-9.861325 4.338983-20.511556 6.311248-31.55624 6.311248s-21.694915-2.366718-31.556241-6.311248-19.328197-10.255778-26.822804-17.750385c-7.494607-7.88906-13.805855-16.961479-17.750385-26.822804-4.338983-9.861325-6.311248-20.511556-6.311248-31.556241s2.366718-21.694915 6.311248-31.55624 10.255778-19.328197 17.750385-26.822804c7.88906-7.494607 16.961479-13.805855 26.822804-17.750385 9.861325-4.338983 20.511556-6.311248 31.556241-6.311249s21.694915 2.366718 31.55624 6.311249 19.328197 10.255778 26.822804 17.750385c7.494607 7.88906 13.805855 16.961479 17.750385 26.822804 4.338983 9.861325 6.311248 20.511556 6.311248 31.55624z" fill="#F2F2F2" p-id="3012"></path><path d="M611.599384 192.098613c-12.622496-12.622496-28.006163-22.878274-44.967643-29.978428s-35.106317-10.650231-53.251155-10.650231-36.289676 3.550077-53.251156 10.650231c-16.567026 6.705701-31.950693 16.961479-44.967643 29.978428-12.622496 12.622496-22.878274 28.006163-29.978428 44.967643s-10.650231 35.106317-10.650231 53.251155 3.550077 36.289676 10.650231 53.251156c6.705701 16.567026 16.961479 31.950693 29.978428 44.967643 12.622496 12.622496 28.006163 22.878274 44.967643 29.978428 16.961479 7.100154 35.106317 10.650231 53.251156 10.650231s36.289676-3.550077 53.251155-10.650231c16.567026-6.705701 31.950693-16.961479 44.967643-29.978428 12.622496-12.622496 22.878274-28.006163 29.978428-44.967643 7.100154-16.961479 10.650231-35.106317 10.650231-53.251156s-3.550077-36.289676-10.650231-53.251155c-6.705701-16.567026-16.961479-31.950693-29.978428-44.967643z m-13.411402 183.026194c-22.089368 22.483821-53.251156 35.106317-84.807396 35.106318s-62.323575-12.622496-84.807396-35.106318C406.089368 353.035439 393.466872 321.873652 393.466872 290.317411s12.622496-62.323575 35.106318-84.807396c22.089368-22.483821 53.251156-35.106317 84.807396-35.106317s62.323575 12.622496 84.807396 35.106317c22.483821 22.089368 35.106317 53.251156 35.106317 84.807396s-12.622496 62.323575-35.106317 84.807396z" fill="#F2F2F2" p-id="3013"></path><path d="M638.422188 165.275809c-16.172573-16.172573-35.895223-29.583975-57.195686-38.261942-21.694915-8.677966-44.57319-13.411402-67.845916-13.411402s-46.545455 4.338983-67.845917 13.411402c-21.300462 8.677966-40.628659 22.089368-57.195686 38.261942C372.16641 181.448382 358.755008 201.171032 350.077042 222.471495c-8.677966 21.694915-13.411402 44.57319-13.411403 67.845916s4.338983 46.545455 13.411403 67.845917c8.677966 21.300462 22.089368 40.628659 38.261941 57.195686 16.172573 16.172573 35.895223 29.583975 57.195686 38.261941 21.694915 8.677966 44.57319 13.411402 67.845917 13.411402 23.272727 0 46.545455-4.338983 67.845916-13.411402 21.300462-8.677966 40.628659-22.089368 57.195686-38.261941 16.172573-16.172573 29.583975-35.895223 38.261941-57.195686 8.677966-21.694915 13.411402-44.57319 13.411403-67.845917 0-22.878274-4.733436-46.151002-13.411403-67.845916-8.677966-21.300462-22.089368-40.628659-38.261941-57.195686z m20.511556 185.392912c-7.88906 18.933744-19.72265 36.684129-34.317411 51.278891s-32.345146 26.428351-51.278891 34.317411c-18.933744 8.283513-39.839753 12.228043-60.351309 12.228043-20.511556-0.394453-41.417565-4.338983-60.35131-12.228043s-36.684129-19.72265-51.278891-34.317411-26.428351-32.345146-34.317411-51.278891c-8.283513-18.933744-12.228043-39.839753-12.228043-60.35131 0.394453-20.511556 4.338983-41.417565 12.228043-60.351309s19.72265-36.684129 34.317411-51.278891 32.345146-26.428351 51.278891-34.317411c18.933744-8.283513 39.839753-12.228043 60.35131-12.228043 20.511556 0.394453 41.417565 4.338983 60.351309 12.228043s36.684129 19.72265 51.278891 34.317411 26.428351 32.345146 34.317411 51.278891c8.283513 18.933744 12.228043 39.839753 12.228043 60.351309-0.394453 20.511556-4.338983 41.417565-12.228043 60.35131z" fill="#F2F2F2" p-id="3014"></path><path d="M665.244992 138.453005c-20.117103-19.72265-43.784284-35.895223-69.818182-46.545455-26.033898-10.650231-54.040062-16.172573-82.046224-16.172573-28.006163 0-56.012327 5.522342-82.046225 16.172573C405.300462 102.557781 381.238829 118.730354 361.516179 138.453005c-19.72265 20.117103-35.895223 43.784284-46.545455 69.818181S298.798151 262.311248 298.798151 290.317411s5.522342 56.012327 16.172573 82.046225 26.822804 50.095532 46.545455 69.818182c20.117103 19.72265 43.784284 35.895223 69.818182 46.545455 26.033898 10.650231 54.040062 16.172573 82.046225 16.172573s56.012327-5.522342 82.046224-16.172573c26.033898-10.650231 50.095532-26.822804 69.818182-46.545455 19.72265-20.117103 35.895223-43.784284 46.545455-69.818182s16.172573-54.040062 16.172573-82.046225c0-28.006163-5.522342-56.012327-16.172573-82.046225-10.650231-26.033898-26.822804-50.095532-46.545455-69.818181z m28.79507 226.810477c-9.861325 23.66718-24.456086 45.362096-42.600925 63.506934-18.144838 18.144838-39.839753 32.739599-63.506934 42.600925s-49.306626 14.989214-74.94607 14.989214-51.278891-5.127889-74.946071-14.989214-45.362096-24.456086-63.506934-42.600925c-18.144838-18.144838-32.739599-39.839753-42.600925-63.506934s-14.989214-49.306626-14.989214-74.946071 5.127889-51.278891 14.989214-74.94607 24.456086-45.362096 42.600925-63.506934 39.839753-32.739599 63.506934-42.600925 49.306626-14.989214 74.946071-14.989214 51.278891 5.127889 74.94607 14.989214 45.362096 24.456086 63.506934 42.600925 32.739599 39.839753 42.600925 63.506934 14.989214 49.306626 14.989214 74.94607-5.127889 51.278891-14.989214 74.946071z" fill="#F2F2F2" p-id="3015"></path><path d="M691.673344 111.6302c-23.272727-23.272727-51.278891-42.206471-82.046225-54.828967-30.372881-12.622496-63.901387-19.328197-96.640986-19.328198s-65.873652 6.705701-96.640987 19.328198-58.773498 31.55624-82.046225 54.828967-42.206471 51.278891-54.828967 82.046225c-12.622496 30.372881-19.328197 63.901387-19.328197 96.640986s6.705701 65.873652 19.328197 96.640987 31.55624 58.773498 54.828967 82.046224 51.278891 42.206471 82.046225 54.828968c30.372881 12.622496 63.901387 19.328197 96.640987 19.328197s65.873652-6.705701 96.640986-19.328197 58.773498-31.55624 82.046225-54.828968 42.206471-51.278891 54.828967-82.046224c12.622496-30.372881 19.328197-63.901387 19.328197-96.640987s-6.705701-65.873652-19.328197-96.640986-31.55624-58.773498-54.828967-82.046225z m37.473035 268.228043c-11.439137 28.400616-28.795069 54.040062-50.489985 75.734977-21.694915 21.300462-47.334361 38.656394-75.734976 50.489985s-59.167951 17.750385-89.540832 17.750385-61.140216-5.916795-89.540833-17.750385c-28.400616-11.439137-54.040062-28.795069-75.734976-50.489985-21.300462-21.694915-38.656394-47.334361-50.489985-75.734977s-17.750385-59.167951-17.750385-89.540832 5.916795-61.140216 17.750385-89.540832c11.439137-28.400616 28.795069-54.040062 50.489985-75.734977 21.694915-21.300462 47.334361-38.656394 75.734976-50.489984s59.167951-17.750385 89.540833-17.750385 61.140216 5.916795 89.540832 17.750385c28.400616 11.439137 54.040062 28.795069 75.734976 50.489984 21.300462 21.694915 38.656394 47.334361 50.489985 75.734977s17.750385 59.167951 17.750385 89.540832-5.916795 61.140216-17.750385 89.540832z" fill="#F2F2F2" p-id="3016"></path><path d="M781.608629 179.476117c-14.594761-35.50077-36.289676-67.451464-63.112481-94.274268s-59.167951-48.51772-94.274268-63.112481S550.853621 0 512.986133 0c-37.473035 0-75.734977 7.494607-111.235748 21.694915-35.50077 14.594761-67.451464 36.289676-94.274268 63.112481s-48.51772 59.167951-63.112481 94.274268-22.089368 73.368259-22.089368 111.235747 7.494607 76.12943 22.089368 111.235748c14.594761 35.50077 36.289676 67.451464 63.112481 94.274268 26.822804 26.822804 59.167951 48.51772 94.274268 63.112481 35.106317 14.594761 73.368259 22.089368 111.235748 22.089368s76.12943-7.494607 111.235747-22.089368c35.50077-14.594761 67.451464-36.289676 94.274268-63.112481 26.822804-26.822804 48.51772-59.167951 63.112481-94.274268s22.089368-73.368259 22.089368-111.235748c0-37.473035-7.494607-75.734977-22.089368-110.841294zM764.252696 394.453005c-13.411402 32.739599-33.528505 62.718028-58.773497 87.96302-24.850539 24.850539-54.828968 44.967643-87.96302 58.773497-33.134052 13.411402-69.029276 20.511556-104.135593 20.511557-35.50077 0-71.395994-6.705701-104.135594-20.511557-32.739599-13.411402-62.718028-33.528505-87.96302-58.773497-24.850539-24.850539-44.967643-54.828968-58.773497-87.96302-13.411402-33.134052-20.511556-69.029276-20.511557-104.135594 0-35.50077 6.705701-71.395994 20.511557-104.135593 13.411402-32.739599 33.528505-62.718028 58.773497-87.96302C346.132512 73.368259 376.11094 53.251156 409.244992 39.4453c33.134052-13.411402 69.029276-20.511556 104.135594-20.511556 35.50077 0 71.395994 6.705701 104.135593 20.511556 32.739599 13.411402 62.718028 33.528505 87.96302 58.773498 24.850539 24.850539 44.967643 54.828968 58.773497 87.96302 13.411402 33.134052 20.511556 69.029276 20.511557 104.135593 0 35.50077-6.705701 71.395994-20.511557 104.135594z" fill="#F2F2F2" p-id="3017"></path><path d="M544.542373 214.187982c-9.861325-4.338983-20.511556-6.311248-31.55624-6.311249s-21.694915 2.366718-31.556241 6.311249-19.328197 10.255778-26.822804 17.750385c-7.494607 7.88906-13.805855 16.961479-17.750385 26.822804-4.338983 9.861325-6.311248 20.511556-6.311248 31.55624s2.366718 21.694915 6.311248 31.556241 10.255778 19.328197 17.750385 26.822804c7.88906 7.494607 16.961479 13.805855 26.822804 17.750385 9.861325 4.338983 20.511556 6.311248 31.556241 6.311248s21.694915-2.366718 31.55624-6.311248 19.328197-10.255778 26.822804-17.750385c7.494607-7.88906 13.805855-16.961479 17.750385-26.822804 4.338983-9.861325 6.311248-20.511556 6.311248-31.556241 0-10.650231-2.366718-21.300462-6.311248-31.55624-3.94453-9.861325-10.255778-19.328197-17.750385-26.822804-7.88906-7.494607-16.961479-13.805855-26.822804-17.750385z m31.950693 76.129429c0 8.283513-1.577812 16.567026-4.733436 24.061634-3.155624 7.494607-7.88906 14.594761-13.805855 20.511556s-13.016949 10.650231-20.511556 13.805855-15.383667 4.733436-24.061633 4.733436c-8.283513 0-16.567026-1.577812-24.061634-4.733436-7.494607-3.155624-14.594761-7.88906-20.511556-13.805855s-10.650231-13.016949-13.805855-20.511556c-3.155624-7.494607-4.733436-15.383667-4.733436-24.061634 0-8.283513 1.577812-16.567026 4.733436-24.061633 3.155624-7.494607 7.88906-14.594761 13.805855-20.511556s13.016949-10.650231 20.511556-13.805855c7.494607-3.155624 15.383667-4.733436 24.061634-4.733436 8.283513 0 16.567026 1.577812 24.061633 4.733436s14.594761 7.88906 20.511556 13.805855 10.650231 13.016949 13.805855 20.511556c3.155624 7.494607 4.733436 15.383667 4.733436 24.061633z" fill="" p-id="3018"></path><path d="M513.380586 170.403698c-31.55624 0-62.323575 12.622496-84.807396 35.106317-22.483821 22.089368-35.106317 53.251156-35.106318 84.807396s12.622496 62.323575 35.106318 84.807396c22.089368 22.483821 53.251156 35.106317 84.807396 35.106318s62.323575-12.622496 84.807396-35.106318c22.483821-22.089368 35.106317-53.251156 35.106317-84.807396s-13.016949-62.323575-35.106317-84.807396-53.251156-35.106317-84.807396-35.106317z m71.395993 191.309707c-18.933744 18.933744-44.57319 29.583975-71.395993 29.583976-26.428351 0-52.46225-10.650231-71.395994-29.583976-18.933744-18.933744-29.583975-44.57319-29.583976-71.395994 0-26.428351 10.650231-52.46225 29.583976-71.395993S486.557781 189.337442 513.380586 189.337442c26.428351 0 52.46225 10.650231 71.395993 29.583976 18.933744 18.933744 29.583975 44.57319 29.583976 71.395993 0 26.428351-10.650231 52.46225-29.583976 71.395994z" fill="" p-id="3019"></path><path d="M624.616333 178.687211c-14.594761-14.594761-32.345146-26.428351-51.278891-34.317411-18.933744-8.283513-39.839753-12.228043-60.351309-12.228043-20.511556 0.394453-41.417565 4.338983-60.35131 12.228043s-36.684129 19.72265-51.278891 34.317411-26.428351 32.345146-34.317411 51.278891c-8.283513 18.933744-12.228043 39.839753-12.228043 60.351309 0.394453 20.511556 4.338983 41.417565 12.228043 60.35131s19.72265 36.684129 34.317411 51.278891 32.345146 26.428351 51.278891 34.317411c18.933744 8.283513 39.839753 12.228043 60.35131 12.228043 20.511556-0.394453 41.417565-4.338983 60.351309-12.228043s36.684129-19.72265 51.278891-34.317411 26.428351-32.345146 34.317411-51.278891c8.283513-18.933744 12.228043-39.839753 12.228043-60.35131s-4.338983-41.023112-12.228043-60.351309c-7.88906-18.933744-19.72265-36.684129-34.317411-51.278891z m16.961479 164.881356c-6.705701 16.567026-16.961479 31.950693-29.978428 44.967643-12.622496 12.622496-28.006163 22.878274-44.967643 29.978428-16.961479 7.100154-35.106317 10.650231-53.251155 10.650231s-36.289676-3.550077-53.251156-10.650231c-16.567026-6.705701-31.950693-16.961479-44.967643-29.978428-12.622496-12.622496-22.878274-28.006163-29.978428-44.967643s-10.650231-35.106317-10.650231-53.251156 3.550077-36.289676 10.650231-53.251155c6.705701-16.567026 16.961479-31.950693 29.978428-44.967643 12.622496-12.622496 28.006163-22.878274 44.967643-29.978428s35.106317-10.650231 53.251156-10.650231 36.289676 3.550077 53.251155 10.650231c16.567026 6.705701 31.950693 16.961479 44.967643 29.978428 12.622496 12.622496 22.878274 28.006163 29.978428 44.967643 7.100154 16.961479 10.650231 35.106317 10.650231 53.251155s-3.550077 36.289676-10.650231 53.251156z" fill="" p-id="3020"></path><path d="M651.439137 151.864407c-18.144838-18.144838-39.839753-32.739599-63.506934-42.600925s-49.306626-14.989214-74.94607-14.989214-51.278891 5.127889-74.946071 14.989214-45.362096 24.456086-63.506934 42.600925-32.739599 39.839753-42.600925 63.506934-14.989214 49.306626-14.989214 74.94607 5.127889 51.278891 14.989214 74.946071 24.456086 45.362096 42.600925 63.506934 39.839753 32.739599 63.506934 42.600925 49.306626 14.989214 74.946071 14.989214 51.278891-5.127889 74.94607-14.989214 45.362096-24.456086 63.506934-42.600925c18.144838-18.144838 32.739599-39.839753 42.600925-63.506934s14.989214-49.306626 14.989214-74.946071c0-25.244992-5.127889-50.884438-14.989214-74.94607-9.861325-23.66718-24.456086-45.362096-42.600925-63.506934z m25.244992 206.298921c-8.677966 21.300462-22.089368 40.628659-38.261941 57.195686-16.172573 16.172573-35.895223 29.583975-57.195686 38.261941-21.694915 8.677966-44.57319 13.411402-67.845916 13.411402-23.272727 0-46.545455-4.338983-67.845917-13.411402-21.300462-8.677966-40.628659-22.089368-57.195686-38.261941-16.172573-16.172573-29.583975-35.895223-38.261941-57.195686-8.677966-21.694915-13.411402-44.57319-13.411403-67.845917 0-23.272727 4.338983-46.545455 13.411403-67.845916 8.677966-21.300462 22.089368-40.628659 38.261941-57.195686 16.172573-16.172573 35.895223-29.583975 57.195686-38.261942 21.694915-8.677966 44.57319-13.411402 67.845917-13.411402 23.272727 0 46.545455 4.338983 67.845916 13.411402 21.300462 8.677966 40.628659 22.089368 57.195686 38.261942 16.172573 16.172573 29.583975 35.895223 38.261941 57.195686 8.677966 21.694915 13.411402 44.57319 13.411403 67.845916 0 23.272727-4.338983 46.545455-13.411403 67.845917z" fill="" p-id="3021"></path><path d="M678.656394 125.041602c-21.694915-21.300462-47.334361-38.656394-75.734976-50.489984s-59.167951-17.750385-89.540832-17.750385-61.140216 5.916795-89.540833 17.750385c-28.400616 11.439137-54.040062 28.795069-75.734976 50.489984-21.300462 21.694915-38.656394 47.334361-50.489985 75.734977s-17.750385 59.167951-17.750385 89.540832 5.916795 61.140216 17.750385 89.540832c11.439137 28.400616 28.795069 54.040062 50.489985 75.734977 21.694915 21.300462 47.334361 38.656394 75.734976 50.489985s59.167951 17.750385 89.540833 17.750385 61.140216-5.916795 89.540832-17.750385c28.400616-11.439137 54.040062-28.795069 75.734976-50.489985 21.300462-21.694915 38.656394-47.334361 50.489985-75.734977s17.750385-59.167951 17.750385-89.540832-6.311248-61.140216-17.750385-89.540832c-11.439137-28.400616-28.795069-54.040062-50.489985-75.734977z m33.134053 247.322034c-10.650231 26.033898-26.822804 50.095532-46.545455 69.818182-20.117103 19.72265-43.784284 35.895223-69.818182 46.545455-26.033898 10.650231-54.040062 16.172573-82.046224 16.172573-28.006163 0-56.012327-5.522342-82.046225-16.172573-26.033898-10.650231-50.095532-26.822804-69.818182-46.545455-19.72265-20.117103-35.895223-43.784284-46.545455-69.818182-10.650231-26.033898-16.172573-54.040062-16.172573-82.046225s5.522342-56.012327 16.172573-82.046225c10.650231-26.033898 26.822804-50.095532 46.545455-69.818181C381.633282 118.730354 405.300462 102.557781 431.334361 91.90755s54.040062-16.172573 82.046225-16.172573 56.012327 5.522342 82.046224 16.172573c26.033898 10.650231 50.095532 26.822804 69.818182 46.545455 19.72265 20.117103 35.895223 43.784284 46.545455 69.818181s16.172573 54.040062 16.172573 82.046225-5.522342 56.012327-16.172573 82.046225z" fill="" p-id="3022"></path><path d="M764.252696 186.181818c-13.411402-32.739599-33.528505-62.718028-58.773497-87.96302-24.850539-24.850539-54.828968-44.967643-87.96302-58.773498-33.134052-13.411402-69.029276-20.511556-104.135593-20.511556-35.50077 0-71.395994 6.705701-104.135594 20.511556-33.134052 13.805855-63.112481 33.922958-87.96302 59.167951-24.850539 24.850539-44.967643 54.828968-58.773497 87.96302-13.411402 33.134052-20.511556 69.029276-20.511557 104.135593 0 35.50077 6.705701 71.395994 20.511557 104.135594 13.411402 32.739599 33.528505 62.718028 58.773497 87.96302 24.850539 24.850539 54.828968 44.967643 87.96302 58.773497 33.134052 13.411402 69.029276 20.511556 104.135594 20.511557 35.50077 0 71.395994-6.705701 104.135593-20.511557 32.739599-13.411402 62.718028-33.528505 87.96302-58.773497 24.850539-24.850539 44.967643-54.828968 58.773497-87.96302 13.411402-33.134052 20.511556-69.423729 20.511557-104.530047s-7.100154-71.001541-20.511557-104.135593z m-17.750385 201.171033c-12.622496 30.767334-31.55624 58.773498-54.828967 82.046225s-51.278891 42.206471-82.046225 54.828967c-30.372881 12.622496-63.901387 19.328197-96.640986 19.328197s-65.873652-6.705701-96.640987-19.328197c-30.767334-12.622496-58.773498-31.55624-82.046225-54.828967s-42.206471-51.278891-54.828967-82.046225c-12.622496-30.372881-19.328197-63.901387-19.328197-96.640987s6.705701-65.873652 19.328197-96.640986c12.622496-30.767334 31.55624-58.773498 54.828967-82.046225 23.66718-23.66718 51.278891-42.206471 82.046225-55.22342 30.372881-12.622496 63.901387-19.328197 96.640987-19.328198s65.873652 6.705701 96.640986 19.328198c30.767334 12.622496 58.773498 31.55624 82.046225 54.828967s42.206471 51.278891 54.828967 82.046225c12.622496 30.372881 19.328197 63.901387 19.328197 96.640986s-6.705701 66.268105-19.328197 97.03544z" fill="" p-id="3023"></path></svg>