<svg t="1625576741154" class="icon" viewBox="0 0 1024 1024" version="1.1" xmlns="http://www.w3.org/2000/svg" p-id="6262" width="200" height="200"><path d="M325.536 191.886m-93.895 0a93.895 93.895 0 1 0 187.79 0 93.895 93.895 0 1 0-187.79 0Z" fill="#3D75FF" p-id="6263"></path><path d="M335.832 191.886m-93.895 0a93.895 93.895 0 1 0 187.79 0 93.895 93.895 0 1 0-187.79 0Z" fill="#3C74FE" p-id="6264"></path><path d="M346.127 191.886m-93.895 0a93.895 93.895 0 1 0 187.79 0 93.895 93.895 0 1 0-187.79 0Z" fill="#3C73FC" p-id="6265"></path><path d="M356.422 191.886m-93.895 0a93.895 93.895 0 1 0 187.79 0 93.895 93.895 0 1 0-187.79 0Z" fill="#3B72FB" p-id="6266"></path><path d="M366.718 191.886m-93.895 0a93.895 93.895 0 1 0 187.79 0 93.895 93.895 0 1 0-187.79 0Z" fill="#3B71FA" p-id="6267"></path><path d="M377.013 191.886m-93.895 0a93.895 93.895 0 1 0 187.79 0 93.895 93.895 0 1 0-187.79 0Z" fill="#3A70F8" p-id="6268"></path><path d="M387.308 191.886m-93.895 0a93.895 93.895 0 1 0 187.79 0 93.895 93.895 0 1 0-187.79 0Z" fill="#3A6FF7" p-id="6269"></path><path d="M397.603 191.886m-93.895 0a93.895 93.895 0 1 0 187.79 0 93.895 93.895 0 1 0-187.79 0Z" fill="#396DF6" p-id="6270"></path><path d="M407.899 191.886m-93.895 0a93.895 93.895 0 1 0 187.79 0 93.895 93.895 0 1 0-187.79 0Z" fill="#396CF4" p-id="6271"></path><path d="M418.194 191.886m-93.895 0a93.895 93.895 0 1 0 187.79 0 93.895 93.895 0 1 0-187.79 0Z" fill="#386BF3" p-id="6272"></path><path d="M428.489 191.886m-93.895 0a93.895 93.895 0 1 0 187.79 0 93.895 93.895 0 1 0-187.79 0Z" fill="#386AF1" p-id="6273"></path><path d="M438.785 191.886m-93.895 0a93.895 93.895 0 1 0 187.79 0 93.895 93.895 0 1 0-187.79 0Z" fill="#3769F0" p-id="6274"></path><path d="M449.08 191.886m-93.895 0a93.895 93.895 0 1 0 187.79 0 93.895 93.895 0 1 0-187.79 0Z" fill="#3668EF" p-id="6275"></path><path d="M459.375 191.886m-93.895 0a93.895 93.895 0 1 0 187.79 0 93.895 93.895 0 1 0-187.79 0Z" fill="#3667ED" p-id="6276"></path><path d="M469.671 191.886m-93.895 0a93.895 93.895 0 1 0 187.79 0 93.895 93.895 0 1 0-187.79 0Z" fill="#3566EC" p-id="6277"></path><path d="M479.966 191.886m-93.895 0a93.895 93.895 0 1 0 187.79 0 93.895 93.895 0 1 0-187.79 0Z" fill="#3565EB" p-id="6278"></path><path d="M490.261 191.886m-93.895 0a93.895 93.895 0 1 0 187.79 0 93.895 93.895 0 1 0-187.79 0Z" fill="#3464E9" p-id="6279"></path><path d="M500.557 191.886m-93.895 0a93.895 93.895 0 1 0 187.79 0 93.895 93.895 0 1 0-187.79 0Z" fill="#3463E8" p-id="6280"></path><path d="M510.852 191.886m-93.895 0a93.895 93.895 0 1 0 187.79 0 93.895 93.895 0 1 0-187.79 0Z" fill="#3362E7" p-id="6281"></path><path d="M521.147 191.886m-93.895 0a93.895 93.895 0 1 0 187.79 0 93.895 93.895 0 1 0-187.79 0Z" fill="#3360E5" p-id="6282"></path><path d="M531.443 191.886m-93.895 0a93.895 93.895 0 1 0 187.79 0 93.895 93.895 0 1 0-187.79 0Z" fill="#325FE4" p-id="6283"></path><path d="M541.738 191.886m-93.895 0a93.895 93.895 0 1 0 187.79 0 93.895 93.895 0 1 0-187.79 0Z" fill="#325EE3" p-id="6284"></path><path d="M552.033 191.886m-93.895 0a93.895 93.895 0 1 0 187.79 0 93.895 93.895 0 1 0-187.79 0Z" fill="#315DE1" p-id="6285"></path><path d="M562.329 191.886m-93.895 0a93.895 93.895 0 1 0 187.79 0 93.895 93.895 0 1 0-187.79 0Z" fill="#305CE0" p-id="6286"></path><path d="M572.624 191.886m-93.895 0a93.895 93.895 0 1 0 187.79 0 93.895 93.895 0 1 0-187.79 0Z" fill="#305BDE" p-id="6287"></path><path d="M582.919 191.886m-93.895 0a93.895 93.895 0 1 0 187.79 0 93.895 93.895 0 1 0-187.79 0Z" fill="#2F5ADD" p-id="6288"></path><path d="M593.215 191.886m-93.895 0a93.895 93.895 0 1 0 187.79 0 93.895 93.895 0 1 0-187.79 0Z" fill="#2F59DC" p-id="6289"></path><path d="M603.51 191.886m-93.895 0a93.895 93.895 0 1 0 187.79 0 93.895 93.895 0 1 0-187.79 0Z" fill="#2E58DA" p-id="6290"></path><path d="M613.805 191.886m-93.895 0a93.895 93.895 0 1 0 187.79 0 93.895 93.895 0 1 0-187.79 0Z" fill="#2E57D9" p-id="6291"></path><path d="M624.1 191.886m-93.895 0a93.895 93.895 0 1 0 187.79 0 93.895 93.895 0 1 0-187.79 0Z" fill="#2D56D8" p-id="6292"></path><path d="M634.396 191.886m-93.895 0a93.895 93.895 0 1 0 187.79 0 93.895 93.895 0 1 0-187.79 0Z" fill="#2D55D6" p-id="6293"></path><path d="M644.851 191.948m-93.895 0a93.895 93.895 0 1 0 187.79 0 93.895 93.895 0 1 0-187.79 0Z" fill="#2C54D5" p-id="6294"></path><path d="M655.197 194.227m-93.895 0a93.895 93.895 0 1 0 187.79 0 93.895 93.895 0 1 0-187.79 0Z" fill="#2C52D4" p-id="6295"></path><path d="M663.919 199.338m-93.895 0a93.895 93.895 0 1 0 187.79 0 93.895 93.895 0 1 0-187.79 0Z" fill="#2B51D2" p-id="6296"></path><path d="M670.63 206.669m-93.895 0a93.895 93.895 0 1 0 187.79 0 93.895 93.895 0 1 0-187.79 0Z" fill="#2A50D1" p-id="6297"></path><path d="M674.942 215.608m-93.895 0a93.895 93.895 0 1 0 187.79 0 93.895 93.895 0 1 0-187.79 0Z" fill="#2A4FD0" p-id="6298"></path><path d="M676.469 225.546m-93.895 0a93.895 93.895 0 1 0 187.79 0 93.895 93.895 0 1 0-187.79 0Z" fill="#294ECE" p-id="6299"></path><path d="M674.824 235.868m-93.895 0a93.895 93.895 0 1 0 187.79 0 93.895 93.895 0 1 0-187.79 0Z" fill="#294DCD" p-id="6300"></path><path d="M670.546 245.552m-93.895 0a93.895 93.895 0 1 0 187.79 0 93.895 93.895 0 1 0-187.79 0Z" fill="#284CCB" p-id="6301"></path><path d="M666.139 254.856m-93.895 0a93.895 93.895 0 1 0 187.79 0 93.895 93.895 0 1 0-187.79 0Z" fill="#284BCA" p-id="6302"></path><path d="M661.732 264.16m-93.895 0a93.895 93.895 0 1 0 187.79 0 93.895 93.895 0 1 0-187.79 0Z" fill="#274AC9" p-id="6303"></path><path d="M657.324 273.465m-93.895 0a93.895 93.895 0 1 0 187.79 0 93.895 93.895 0 1 0-187.79 0Z" fill="#2749C7" p-id="6304"></path><path d="M652.917 282.769m-93.895 0a93.895 93.895 0 1 0 187.79 0 93.895 93.895 0 1 0-187.79 0Z" fill="#2648C6" p-id="6305"></path><path d="M648.51 292.073m-93.895 0a93.895 93.895 0 1 0 187.79 0 93.895 93.895 0 1 0-187.79 0Z" fill="#2647C5" p-id="6306"></path><path d="M644.103 301.377m-93.895 0a93.895 93.895 0 1 0 187.79 0 93.895 93.895 0 1 0-187.79 0Z" fill="#2546C3" p-id="6307"></path><path d="M639.695 310.682m-93.895 0a93.895 93.895 0 1 0 187.79 0 93.895 93.895 0 1 0-187.79 0Z" fill="#2444C2" p-id="6308"></path><path d="M635.288 319.986m-93.895 0a93.895 93.895 0 1 0 187.79 0 93.895 93.895 0 1 0-187.79 0Z" fill="#2443C1" p-id="6309"></path><path d="M630.881 329.29m-93.895 0a93.895 93.895 0 1 0 187.79 0 93.895 93.895 0 1 0-187.79 0Z" fill="#2342BF" p-id="6310"></path><path d="M626.473 338.594m-93.895 0a93.895 93.895 0 1 0 187.79 0 93.895 93.895 0 1 0-187.79 0Z" fill="#2341BE" p-id="6311"></path><path d="M622.066 347.899m-93.895 0a93.895 93.895 0 1 0 187.79 0 93.895 93.895 0 1 0-187.79 0Z" fill="#2240BD" p-id="6312"></path><path d="M617.659 357.203m-93.895 0a93.895 93.895 0 1 0 187.79 0 93.895 93.895 0 1 0-187.79 0Z" fill="#223FBB" p-id="6313"></path><path d="M613.252 366.507m-93.895 0a93.895 93.895 0 1 0 187.79 0 93.895 93.895 0 1 0-187.79 0Z" fill="#213EBA" p-id="6314"></path><path d="M608.844 375.812m-93.895 0a93.895 93.895 0 1 0 187.79 0 93.895 93.895 0 1 0-187.79 0Z" fill="#213DB8" p-id="6315"></path><path d="M604.437 385.116m-93.895 0a93.895 93.895 0 1 0 187.79 0 93.895 93.895 0 1 0-187.79 0Z" fill="#203CB7" p-id="6316"></path><path d="M600.03 394.42m-93.895 0a93.895 93.895 0 1 0 187.79 0 93.895 93.895 0 1 0-187.79 0Z" fill="#203BB6" p-id="6317"></path><path d="M595.622 403.724m-93.895 0a93.895 93.895 0 1 0 187.79 0 93.895 93.895 0 1 0-187.79 0Z" fill="#1F3AB4" p-id="6318"></path><path d="M591.215 413.029m-93.895 0a93.895 93.895 0 1 0 187.79 0 93.895 93.895 0 1 0-187.79 0Z" fill="#1F39B3" p-id="6319"></path><path d="M586.808 422.333m-93.895 0a93.895 93.895 0 1 0 187.79 0 93.895 93.895 0 1 0-187.79 0Z" fill="#1E37B2" p-id="6320"></path><path d="M582.401 431.637m-93.895 0a93.895 93.895 0 1 0 187.79 0 93.895 93.895 0 1 0-187.79 0Z" fill="#1D36B0" p-id="6321"></path><path d="M577.993 440.941m-93.895 0a93.895 93.895 0 1 0 187.79 0 93.895 93.895 0 1 0-187.79 0Z" fill="#1D35AF" p-id="6322"></path><path d="M573.586 450.246m-93.895 0a93.895 93.895 0 1 0 187.79 0 93.895 93.895 0 1 0-187.79 0Z" fill="#1C34AE" p-id="6323"></path><path d="M569.179 459.55m-93.895 0a93.895 93.895 0 1 0 187.79 0 93.895 93.895 0 1 0-187.79 0Z" fill="#1C33AC" p-id="6324"></path><path d="M564.771 468.854m-93.895 0a93.895 93.895 0 1 0 187.79 0 93.895 93.895 0 1 0-187.79 0Z" fill="#1B32AB" p-id="6325"></path><path d="M560.364 478.158m-93.895 0a93.895 93.895 0 1 0 187.79 0 93.895 93.895 0 1 0-187.79 0Z" fill="#1B31AA" p-id="6326"></path><path d="M555.957 487.463m-93.895 0a93.895 93.895 0 1 0 187.79 0 93.895 93.895 0 1 0-187.79 0Z" fill="#1A30A8" p-id="6327"></path><path d="M551.55 496.767m-93.895 0a93.895 93.895 0 1 0 187.79 0 93.895 93.895 0 1 0-187.79 0Z" fill="#1A2FA7" p-id="6328"></path><path d="M547.142 506.071m-93.895 0a93.895 93.895 0 1 0 187.79 0 93.895 93.895 0 1 0-187.79 0Z" fill="#192EA5" p-id="6329"></path><path d="M542.735 515.376m-93.895 0a93.895 93.895 0 1 0 187.79 0 93.895 93.895 0 1 0-187.79 0Z" fill="#192DA4" p-id="6330"></path><path d="M538.328 524.68m-93.895 0a93.895 93.895 0 1 0 187.79 0 93.895 93.895 0 1 0-187.79 0Z" fill="#182CA3" p-id="6331"></path><path d="M533.92 533.984m-93.895 0a93.895 93.895 0 1 0 187.79 0 93.895 93.895 0 1 0-187.79 0Z" fill="#172BA1" p-id="6332"></path><path d="M529.513 543.288m-93.895 0a93.895 93.895 0 1 0 187.79 0 93.895 93.895 0 1 0-187.79 0Z" fill="#1729A0" p-id="6333"></path><path d="M525.106 552.593m-93.895 0a93.895 93.895 0 1 0 187.79 0 93.895 93.895 0 1 0-187.79 0Z" fill="#16289F" p-id="6334"></path><path d="M520.699 561.897m-93.895 0a93.895 93.895 0 1 0 187.79 0 93.895 93.895 0 1 0-187.79 0Z" fill="#16279D" p-id="6335"></path><path d="M516.291 571.201m-93.895 0a93.895 93.895 0 1 0 187.79 0 93.895 93.895 0 1 0-187.79 0Z" fill="#15269C" p-id="6336"></path><path d="M511.884 580.505m-93.895 0a93.895 93.895 0 1 0 187.79 0 93.895 93.895 0 1 0-187.79 0Z" fill="#15259B" p-id="6337"></path><path d="M507.477 589.81m-93.895 0a93.895 93.895 0 1 0 187.79 0 93.895 93.895 0 1 0-187.79 0Z" fill="#142499" p-id="6338"></path><path d="M503.069 599.114m-93.895 0a93.895 93.895 0 1 0 187.79 0 93.895 93.895 0 1 0-187.79 0Z" fill="#142398" p-id="6339"></path><path d="M498.662 608.418m-93.895 0a93.895 93.895 0 1 0 187.79 0 93.895 93.895 0 1 0-187.79 0Z" fill="#132297" p-id="6340"></path><path d="M494.255 617.722m-93.895 0a93.895 93.895 0 1 0 187.79 0 93.895 93.895 0 1 0-187.79 0Z" fill="#132195" p-id="6341"></path><path d="M489.848 627.027m-93.895 0a93.895 93.895 0 1 0 187.79 0 93.895 93.895 0 1 0-187.79 0Z" fill="#122094" p-id="6342"></path><path d="M485.44 636.331m-93.895 0a93.895 93.895 0 1 0 187.79 0 93.895 93.895 0 1 0-187.79 0Z" fill="#111F92" p-id="6343"></path><path d="M481.033 645.635m-93.895 0a93.895 93.895 0 1 0 187.79 0 93.895 93.895 0 1 0-187.79 0Z" fill="#111E91" p-id="6344"></path><path d="M476.626 654.94m-93.895 0a93.895 93.895 0 1 0 187.79 0 93.895 93.895 0 1 0-187.79 0Z" fill="#101D90" p-id="6345"></path><path d="M472.218 664.244m-93.895 0a93.895 93.895 0 1 0 187.79 0 93.895 93.895 0 1 0-187.79 0Z" fill="#101B8E" p-id="6346"></path><path d="M467.811 673.548m-93.895 0a93.895 93.895 0 1 0 187.79 0 93.895 93.895 0 1 0-187.79 0Z" fill="#0F1A8D" p-id="6347"></path><path d="M463.404 682.852m-93.895 0a93.895 93.895 0 1 0 187.79 0 93.895 93.895 0 1 0-187.79 0Z" fill="#0F198C" p-id="6348"></path><path d="M458.997 692.157m-93.895 0a93.895 93.895 0 1 0 187.79 0 93.895 93.895 0 1 0-187.79 0Z" fill="#0E188A" p-id="6349"></path><path d="M454.589 701.461m-93.895 0a93.895 93.895 0 1 0 187.79 0 93.895 93.895 0 1 0-187.79 0Z" fill="#0E1789" p-id="6350"></path><path d="M450.182 710.765m-93.895 0a93.895 93.895 0 1 0 187.79 0 93.895 93.895 0 1 0-187.79 0Z" fill="#0D1688" p-id="6351"></path><path d="M445.775 720.069m-93.895 0a93.895 93.895 0 1 0 187.79 0 93.895 93.895 0 1 0-187.79 0Z" fill="#0D1586" p-id="6352"></path><path d="M441.367 729.374m-93.895 0a93.895 93.895 0 1 0 187.79 0 93.895 93.895 0 1 0-187.79 0Z" fill="#0C1485" p-id="6353"></path><path d="M436.96 738.678m-93.895 0a93.895 93.895 0 1 0 187.79 0 93.895 93.895 0 1 0-187.79 0Z" fill="#0B1384" p-id="6354"></path><path d="M432.553 747.982m-93.895 0a93.895 93.895 0 1 0 187.79 0 93.895 93.895 0 1 0-187.79 0Z" fill="#0B1282" p-id="6355"></path><path d="M428.146 757.286m-93.895 0a93.895 93.895 0 1 0 187.79 0 93.895 93.895 0 1 0-187.79 0Z" fill="#0A1181" p-id="6356"></path><path d="M423.738 766.591m-93.895 0a93.895 93.895 0 1 0 187.79 0 93.895 93.895 0 1 0-187.79 0Z" fill="#0A107F" p-id="6357"></path><path d="M419.331 775.895m-93.895 0a93.895 93.895 0 1 0 187.79 0 93.895 93.895 0 1 0-187.79 0Z" fill="#090E7E" p-id="6358"></path><path d="M414.924 785.199m-93.895 0a93.895 93.895 0 1 0 187.79 0 93.895 93.895 0 1 0-187.79 0Z" fill="#090D7D" p-id="6359"></path><path d="M410.516 794.504m-93.895 0a93.895 93.895 0 1 0 187.79 0 93.895 93.895 0 1 0-187.79 0Z" fill="#080C7B" p-id="6360"></path><path d="M406.109 803.808m-93.895 0a93.895 93.895 0 1 0 187.79 0 93.895 93.895 0 1 0-187.79 0Z" fill="#080B7A" p-id="6361"></path><path d="M401.702 813.112m-93.895 0a93.895 93.895 0 1 0 187.79 0 93.895 93.895 0 1 0-187.79 0Z" fill="#070A79" p-id="6362"></path><path d="M397.295 822.416m-93.895 0a93.895 93.895 0 1 0 187.79 0 93.895 93.895 0 1 0-187.79 0Z" fill="#070977" p-id="6363"></path><path d="M392.887 831.721m-93.895 0a93.895 93.895 0 1 0 187.79 0 93.895 93.895 0 1 0-187.79 0Z" fill="#060876" p-id="6364"></path></svg>