<svg t="1625576355741" class="icon" viewBox="0 0 1024 1024" version="1.1" xmlns="http://www.w3.org/2000/svg" p-id="2838" width="200" height="200"><path d="M184.972845 22.567493V3.223928L548.470681 0.402991l80.195199-0.402991h11.283746l10.880756 0.805982 10.880755 0.805982 5.641874 0.402991c1.611964 0.402991 3.223928 0.402991 5.238882 0.805982 6.850846 1.208973 13.701692 2.820937 20.149547 4.029909 3.626919 0.805982 6.447855 2.014955 9.268792 2.820937l9.268792 2.820936 17.328611 7.253837 16.92562 8.865801c5.238882 3.626919 10.880756 6.850846 16.119638 10.477765 4.835891 4.029909 10.477765 7.656828 15.313656 12.089728 9.671783 8.46281 18.940575 18.134593 26.597402 28.612358 4.029909 5.238882 8.059819 10.477765 11.283747 16.119638l5.238882 8.46281 4.432901 8.865801c1.611964 2.820937 3.223928 5.641873 4.4329 8.8658l3.626918 8.865801c2.820937 6.044864 4.4329 12.089728 6.447856 18.537584 0.402991 1.611964 1.208973 3.223928 1.611963 4.835891l1.208973 4.835892 2.014955 9.671782c1.208973 6.447855 1.611964 12.89571 2.820937 18.940575 0.402991 6.447855 0.805982 12.89571 1.208973 18.940575-0.402991 6.447855-0.805982 12.492719-0.805982 18.940574l-2.417946 18.537584-2.014955 9.268792-1.208973 4.835891-1.208972 4.835891c-2.014955 6.447855-4.4329 12.89571-6.850847 19.343566l-1.611963 4.835891-2.417946 4.835892-4.835891 9.671782-4.835892 9.671783c-1.611964 3.223928-4.029909 6.447855-5.641873 9.671783l-11.686738 19.343565-35.463203 59.23967-375.184573 624.232979-16.522629-10.074774 373.572609-623.829988 33.448249-56.015742 10.880756-18.134592c1.611964-2.820937 3.626919-6.044864 5.238882-8.865801l4.835891-9.268792 4.835892-9.268792 2.417945-4.4329 1.611964-4.432901c2.417946-6.044864 4.4329-12.089728 6.447855-18.134592 1.208973-3.223928 1.611964-5.641873 2.417946-8.865801l2.014955-8.46281 2.820936-17.328611c0.402991-6.044864 0.805982-11.686738 1.208973-17.731602-0.402991-6.044864 0-12.089728-0.402991-17.731601-0.805982-6.044864-1.208973-12.089728-2.417945-18.134593l-1.611964-8.865801-0.805982-4.4329c-0.402991-1.611964-0.805982-2.820937-1.208973-4.432901-2.014955-5.641873-3.223928-11.686738-6.044864-17.328611l-3.626919-8.46281c-1.208973-2.820937-2.820937-5.641873-4.029909-8.46281l-4.02991-8.059818-4.835891-7.656829c-3.223928-5.238882-6.850846-10.074774-10.880756-14.910665-7.656828-9.671783-16.119638-18.537584-25.388429-26.194411-4.4329-4.029909-9.671783-7.253837-14.507675-10.880756-4.835891-3.223928-10.074774-6.447855-15.313656-9.671783L716.517906 36.269185 699.995277 30.224321l-8.059819-2.820937c-2.820937-0.805982-5.641873-2.014955-8.8658-2.417945-6.044864-1.208973-12.492719-2.417946-18.940575-3.626919-1.611964-0.402991-3.223928-0.402991-4.835891-0.805982l-5.238883-0.402991h-10.074773l-10.074774-0.402991H623.426997L548.470681 20.149547l-363.497836 2.417946z" fill="#F2F2F2" p-id="2839"></path><path d="M184.972845 41.911059V22.567493L548.470681 20.149547l74.956316-0.805981h10.477765l10.074774 0.40299 10.074773 0.402991 5.238883 0.402991c1.611964 0 3.223928 0.402991 4.835891 0.805982 6.447855 1.208973 12.492719 2.417946 18.940575 3.626919 3.223928 0.402991 6.044864 1.611964 8.8658 2.417945l8.46281 2.417946 16.522629 6.044864 15.716647 7.656828c4.835891 3.223928 10.074774 6.044864 15.313656 9.671783l14.507674 10.880756c9.268792 8.059819 17.731602 16.522629 25.38843 26.194411 3.626919 4.835891 7.656828 9.671783 10.880756 14.910666l4.835891 7.656828 4.02991 8.059819c1.208973 2.820937 2.820937 5.238882 4.029909 8.462809l3.626919 8.46281c2.417946 5.641873 4.029909 11.686738 6.044864 17.328611 0.402991 1.611964 0.805982 2.820937 1.208973 4.432901l0.805982 4.4329 1.611963 8.865801c1.208973 6.044864 1.611964 12.089728 2.417946 18.134593 0.402991 6.044864 0.402991 12.089728 0.402991 17.731601-0.402991 6.044864-0.805982 11.686738-1.208973 17.731602l-2.820936 17.328611-2.014955 8.46281c-0.805982 2.820937-1.208973 5.641873-2.417946 8.865801-2.014955 6.044864-4.4329 12.089728-6.447855 18.134592l-1.611964 4.432901-2.417945 4.4329-4.835892 9.268792-4.835891 9.268792c-1.611964 2.820937-3.626919 6.044864-5.238883 8.865801l-10.880755 18.134592-33.448249 56.015742-374.378591 624.232979-16.522629-10.074773L732.234553 380.020464l31.836285-53.194805 10.074774-16.522629c1.611964-2.820937 3.223928-5.641873 4.835891-8.059819l4.432901-8.46281 4.4329-8.46281 2.014955-4.029909 1.611964-4.029909c2.417946-5.641873 4.4329-10.880756 6.447855-16.522629 2.014955-5.641873 3.223928-10.477765 4.835891-16.119638l3.223928-16.119638c0.402991-5.641873 1.208973-10.880756 1.611964-16.522629v-16.522629c-0.805982-5.641873-0.805982-11.283747-1.611964-16.92562l-1.611964-8.46281-0.805982-4.029909c-0.402991-1.208973-0.805982-2.820937-1.208973-4.02991-1.611964-5.238882-2.820937-10.880756-5.238882-16.119638l-3.223928-8.059819c-1.208973-2.820937-2.417946-5.238882-3.626918-7.656828l-4.02991-7.656828-4.4329-7.253837c-1.611964-2.417946-2.820937-4.835891-4.835891-7.253837l-5.238883-6.850846c-6.850846-8.865801-14.910665-16.92562-23.776466-24.179457-4.4329-3.626919-8.865801-6.447855-13.701692-10.074774l-14.507674-8.462809-14.910665-6.850847-15.313656-5.238882-8.059819-2.014955c-2.820937-0.805982-5.238882-1.611964-8.059819-2.014954-5.641873-1.208973-11.686738-2.014955-17.328611-2.820937-1.611964-0.402991-2.820937-0.402991-4.4329-0.805982l-4.835892-0.402991-9.268792-0.402991-9.268791-0.402991h-9.671783l-70.120425 2.014955-363.497836 2.417946z" fill="" p-id="2840"></path><path d="M184.972845 61.254624v-19.343565l363.497836-2.820937 69.717434-0.402991h9.671783l9.268791 0.402991 9.268792 0.402991 4.835892 0.402991c1.611964 0 2.820937 0.402991 4.4329 0.805982 6.044864 0.805982 11.686738 1.611964 17.328611 2.820936 2.820937 0.402991 5.641873 1.208973 8.059819 2.014955l8.059819 2.014955 15.313656 5.238882 14.910665 6.850846 14.507674 8.46281c4.4329 3.223928 9.268792 6.447855 13.701692 10.074774 8.865801 7.253837 16.92562 15.313656 23.776466 24.179457L776.563558 108.807556c1.611964 2.014955 3.223928 4.835891 4.835891 7.253837l4.4329 7.253837 4.02991 7.656828c1.208973 2.417946 2.820937 5.238882 3.626918 7.656828l3.223928 8.059819c2.417946 5.238882 3.626919 10.880756 5.238882 16.119638 0.402991 1.208973 0.805982 2.820937 1.208973 4.02991l0.805982 4.029909 1.611964 8.46281c0.805982 5.641873 1.208973 11.283747 1.611964 16.92562 0.402991 5.641873 0 11.283747 0 16.522629-0.402991 5.641873-1.208973 10.880756-1.611964 16.522629l-3.223928 16.119638c-1.611964 5.238882-2.820937 10.477765-4.835891 16.119638s-4.029909 10.880756-6.447855 16.522628l-1.611964 4.02991-2.014955 4.029909-4.4329 8.46281-4.432901 8.46281c-1.611964 2.820937-3.223928 5.641873-4.835891 8.059819l-10.074774 16.522629-31.433294 52.388823-373.572609 623.829989-16.522629-10.074774 373.572609-623.829988 29.821331-49.970878 8.8658-14.910665c1.611964-2.417946 3.223928-4.835891 4.432901-7.656828l4.029909-7.656828 4.02991-7.656828 2.014955-3.626919 1.611963-3.626918c2.014955-4.835891 4.4329-10.074774 6.447856-14.910665 2.014955-4.835891 3.223928-9.671783 4.835891-14.507674l3.626919-14.507675c0.805982-5.238882 1.611964-10.074774 2.014954-15.313656 0-5.238882 0.402991-10.477765 0.402991-15.313656-0.402991-5.238882-0.402991-10.477765-1.208973-15.716647l-1.208972-7.656828-0.805982-4.029909-1.208973-3.626919c-1.611964-4.835891-2.820937-10.074774-4.835892-14.910665l-2.820936-7.253837c-0.805982-2.417946-2.417946-4.835891-3.223928-7.253837l-3.626918-6.850846-4.432901-6.850846c-1.611964-2.014955-2.820937-4.4329-4.4329-6.447855l-4.835892-6.044865c-6.447855-8.059819-14.104683-15.716647-22.164502-22.164502-4.029909-3.223928-8.46281-6.044864-12.89571-8.865801-4.4329-2.820937-8.865801-4.835891-13.701692-7.656828l-14.104684-5.641873-14.507674-4.029909c-5.238882-1.208973-9.671783-2.417946-15.313656-3.223928-5.238882-0.805982-10.880756-1.611964-16.119638-2.014955l-4.029909-0.402991h-4.432901l-8.46281-0.402991-8.462809-0.402991h-8.865801l-64.075561 0.402991-363.094845 2.014955z" fill="#F2F2F2" p-id="2841"></path><path d="M185.375836 80.59819v-19.343566l363.497836-2.820936 64.075561-0.402991h8.8658l8.46281 0.402991 8.46281 0.40299h4.432901l4.029909 0.402991c5.238882 0.805982 10.880756 1.208973 16.119638 2.014955 5.238882 0.805982 10.074774 2.014955 15.313656 3.223928l14.507674 4.029909 14.104684 5.641874c4.4329 2.417946 9.268792 4.835891 13.701692 7.656828s8.865801 5.641873 12.89571 8.8658c8.059819 6.447855 15.716647 13.701692 22.164502 22.164503l4.835892 6.044864c1.611964 2.014955 2.820937 4.4329 4.4329 6.447855l4.432901 6.850846 3.626918 6.850846c1.208973 2.417946 2.417946 4.835891 3.223928 7.253837l2.820936 7.253837c2.014955 4.835891 3.223928 10.074774 4.835892 14.910665l1.208973 3.626919 0.805981 4.029909 1.208973 7.656828c0.805982 5.238882 0.805982 10.477765 1.208973 15.716647 0 5.238882-0.402991 10.477765-0.402991 15.313657-0.805982 5.238882-1.611964 10.074774-2.014955 15.313656l-3.626918 14.507674-4.835892 14.507674c-2.014955 4.835891-4.029909 10.074774-6.447855 14.910665l-1.611963 3.626918-2.014955 3.626919-4.02991 7.656828-4.029909 7.656828c-1.208973 2.417946-2.820937 4.835891-4.432901 7.656828l-8.8658 14.910665-29.821331 49.970878-374.378591 625.038961-16.522629-10.074774 373.57261-623.829988 28.209366-46.74695c10.880756-18.134593 21.761511-36.269185 29.015348-54.000787 2.014955-4.4329 3.626919-8.865801 5.238883-13.298701l4.029909-13.298702c0.805982-4.4329 2.014955-9.268792 2.417946-13.701692 0.402991-4.835891 0.805982-9.268792 0.805982-14.104683 0-18.940575-4.4329-38.28414-13.298702-55.612751l-3.223927-6.447855-4.02991-6.044865c-1.208973-2.014955-2.417946-4.029909-4.029909-6.044864l-4.432901-5.641873c-6.044864-7.656828-13.298701-14.104683-20.955529-19.746557-3.626919-2.820937-8.059819-5.238882-12.089728-8.059818-4.029909-2.417946-8.46281-4.4329-12.895711-6.447856l-13.298701-4.835891-13.701692-3.223928c-4.835891-0.805982-9.268792-1.611964-14.104684-2.014954l-14.910665-1.611964c-2.417946-0.402991-4.835891-0.402991-7.656828-0.402991l-7.656828-0.402991c-5.238882 0-10.477765-0.402991-15.716647 0l-58.836678 0.402991-362.691854 1.611964z" fill="" p-id="2842"></path><path d="M185.375836 99.941755V80.59819l363.497836-2.820937 58.836678-0.402991h15.716647l7.656828 0.402991c2.417946 0 5.238882 0 7.656828 0.402991l14.910665 1.611964c4.835891 0.402991 9.268792 1.611964 14.104684 2.014955l13.701692 3.223927 13.298701 4.835892c4.029909 2.014955 8.46281 4.029909 12.89571 6.447855 4.029909 2.820937 8.059819 4.835891 12.089729 8.059819 7.656828 5.641873 14.910665 12.492719 20.955529 19.746556l4.432901 5.641873c1.611964 2.014955 2.820937 4.029909 4.029909 6.044865l4.02991 6.044864 3.223927 6.447855c8.46281 17.328611 13.298701 36.672176 13.298702 55.612751 0 4.835891-0.402991 9.671783-0.805982 14.104683-0.805982 4.835891-1.611964 9.268792-2.417946 13.701692l-4.02991 13.298702c-1.611964 4.4329-3.223928 8.865801-5.238882 13.298701-7.253837 18.134593-18.134593 36.269185-29.015348 54.000787l-28.209367 46.74695-374.378591 625.038961-16.522629-10.074774 373.57261-623.829988 26.194411-43.523022c9.671783-16.119638 19.343566-32.239276 27.000394-47.955923 2.014955-4.029909 3.626919-8.059819 5.641873-11.686738l4.432901-12.089728c0.805982-4.029909 2.014955-8.46281 3.223927-12.492719 0.402991-4.4329 1.208973-8.46281 1.208973-12.895711 0.805982-17.328611-3.223928-35.463203-10.880756-51.17985-7.656828-15.716647-19.746556-29.82133-33.851239-39.896104-3.626919-2.417946-7.656828-4.4329-11.283747-6.850846-4.029909-2.014955-8.059819-3.626919-12.089728-5.238883l-12.49272-3.626918-12.89571-2.014955c-4.4329-0.402991-8.46281-0.805982-12.89571-1.208973l-13.298702-0.805982c-4.4329-0.402991-9.268792-0.402991-13.701692-0.402991H603.27745l-53.597796 0.402991-364.303818 1.208973z" fill="#F2F2F2" p-id="2843"></path><path d="M185.375836 119.285321v-19.343566l363.497836-2.820936 53.597796-0.402991h13.701692c4.4329 0 9.268792 0 13.701692 0.402991l13.298702 0.805981c4.4329 0.402991 8.46281 0.805982 12.89571 1.208973l12.89571 2.014955 12.49272 3.626919c4.029909 1.611964 8.059819 3.626919 12.089728 5.238882 3.626919 2.417946 7.656828 4.4329 11.283747 6.850846 14.507674 10.074774 26.194412 24.179457 33.85124 39.896104 7.656828 15.716647 11.686738 33.448249 10.880755 51.17985-0.402991 4.4329-0.805982 8.46281-1.208973 12.895711-0.805982 4.029909-2.014955 8.46281-3.223927 12.492719l-4.432901 12.089729c-1.611964 4.029909-3.626919 7.656828-5.641873 11.686737-7.656828 16.119638-17.328611 32.239276-27.000394 47.955923l-26.194411 43.523022L309.094057 974.029122l-16.522628-10.074773 373.572609-623.829989 24.179457-40.702085c8.46281-14.104683 16.92562-28.209366 24.582448-41.911059l5.641873-10.477765 4.835891-10.880755c1.208973-3.626919 2.417946-7.656828 3.626919-11.283747 0.402991-4.029909 1.611964-7.656828 2.014954-11.686737 1.208973-15.716647-1.611964-32.239276-8.8658-46.343959-6.850846-14.507674-17.731602-27.000394-31.030303-35.463204-13.298701-8.865801-29.015348-13.701692-44.731996-14.104683-15.716647-0.805982-31.836285-0.805982-48.358914-0.805982l-48.761904 0.402991-363.900827 2.417946z" fill="" p-id="2844"></path><path d="M185.778827 138.628886v-19.343565l363.497836-2.417946 47.955923-0.402991c16.119638 0 32.642267 0 48.358913 0.805982 15.716647 0.402991 31.433294 5.238882 44.731996 14.104683s24.179457 21.35852 31.030303 35.463204c6.850846 14.507674 10.074774 30.627312 8.865801 46.343959-0.402991 4.029909-1.208973 7.656828-2.014955 11.686737-1.208973 3.626919-2.417946 7.656828-3.626919 11.283747l-4.835891 10.880755-5.641873 10.477765c-7.656828 14.104683-16.119638 28.209366-24.582448 41.911059l-24.179457 40.702085-373.169618 624.23298-16.522629-10.074774L649.218418 330.452578l43.926013-73.344353 5.238883-8.865801 4.835891-9.268792c1.208973-3.223928 2.417946-6.447855 3.223928-10.074773 0.805982-3.626919 1.611964-6.850846 2.014954-10.477765 1.611964-14.104683-1.208973-28.209366-7.253837-40.702086-6.044864-12.492719-15.716647-23.373475-27.403384-31.030303-11.686738-7.656828-25.791421-11.283747-39.896104-11.283746l-84.628099 0.805982-363.497836 2.417945z" fill="#F2F2F2" p-id="2845"></path><path d="M185.778827 157.972452v-19.343566l363.497836-2.820936 84.628099-0.805982c14.104683 0 28.209366 3.626919 39.896104 11.283746 11.686738 7.253837 21.35852 18.134593 27.403384 31.030303 6.044864 12.492719 8.865801 27.000394 7.253837 40.702086-0.402991 3.626919-1.208973 6.850846-2.014954 10.477765-1.208973 3.223928-2.417946 6.447855-3.223928 10.074773l-4.835891 9.268792-5.238883 8.865801L649.218418 330.452578 275.645809 954.282566l-16.522629-10.074774 373.572609-623.829988 38.28414-64.478552 4.432901-7.656828 4.029909-7.656828 2.820937-8.46281c0.402991-2.820937 1.208973-5.641873 1.611964-8.46281 1.208973-11.686738-0.805982-23.373475-6.044865-33.851239-5.238882-10.477765-12.89571-19.343566-22.970484-25.791421-9.671783-6.447855-21.35852-9.268792-33.045258-9.268792l-72.53837 0.402991-363.497836 2.820937z" fill="" p-id="2846"></path><path d="M186.181818 177.316017v-19.343565l363.497836-2.820937 72.53837-0.402991c11.686738 0 23.373475 3.223928 33.045258 9.268792 9.671783 6.044864 17.731602 15.313656 22.970484 25.791421 5.238882 10.477765 7.253837 22.567493 6.044864 33.851239-0.402991 2.820937-1.208973 5.641873-1.611963 8.46281l-2.820937 8.46281-4.029909 7.656828-4.432901 7.656828-38.28414 64.478552-373.9756 623.829988-16.522629-10.074774L615.770169 310.30303l33.045258-55.20976 3.626919-6.044864 3.223927-6.044864 2.417946-6.447855c0.402991-2.417946 0.805982-4.4329 1.208973-6.850846 1.208973-9.268792-0.805982-18.940575-4.835892-27.000394-4.029909-8.46281-10.477765-15.716647-18.537583-20.552538-8.059819-4.835891-17.328611-7.656828-26.597403-7.656828l-60.045651 0.402991-363.094845 2.417945z" fill="#F2F2F2" p-id="2847"></path><path d="M186.181818 196.659583V177.316017l363.497836-2.820936 60.045651-0.402991c9.268792 0 18.537584 2.417946 26.597403 7.656828 8.059819 4.835891 14.104683 12.089728 18.537583 20.552538 4.029909 8.46281 5.641873 17.731602 4.835892 27.000394-0.402991 2.417946-0.805982 4.4329-1.208973 6.850846l-2.417946 6.447855-3.223928 6.044864-3.626918 6.044864-33.448249 55.612751-373.169618 624.232979-16.522629-10.074773L599.24754 300.631248l27.403385-45.940969 2.820936-4.4329 2.417946-4.835891 1.611964-4.835892c0.402991-1.611964 0.805982-3.223928 0.805982-5.238882 0.805982-6.850846-0.402991-14.104683-3.626919-20.552538-3.223928-6.447855-7.656828-11.686738-13.701692-15.313657-6.044864-3.626919-12.89571-5.641873-19.746556-5.641873l-47.552932 0.402991-363.497836 2.417946z" fill="" p-id="2848"></path><path d="M186.181818 216.003148v-19.343565l363.497836-2.820937 47.552932-0.402991c6.850846 0 14.104683 2.014955 19.746556 5.641874 6.044864 3.626919 10.880756 9.268792 13.701692 15.313656 3.223928 6.447855 4.4329 13.298701 3.626919 20.552538-0.402991 1.611964-0.805982 3.626919-0.805982 5.238882l-1.611964 4.835892-2.417946 4.835891-2.820936 4.4329-27.403385 46.34396-373.169618 623.829988-16.522629-10.074774L583.127902 290.556474l22.164503-37.075167c1.208973-2.014955 2.417946-4.029909 3.223927-6.044865l1.208973-3.223927c0.402991-1.208973 0.402991-2.417946 0.805982-3.626919 0.402991-4.835891-0.402991-9.268792-2.417946-13.701692-4.029909-8.46281-12.89571-14.104683-22.567493-14.104683l-35.866194 0.805982-363.497836 2.417945z" fill="#F2F2F2" p-id="2849"></path><path d="M186.584809 254.690279v-19.343565l363.497836-2.820937h22.970484c4.835891 0 9.268792 2.820937 11.283746 6.850846s1.611964 9.671783-1.208973 13.298702l-16.522628 27.806375L192.629673 904.714679 176.107044 894.639906 549.679654 270.809917l11.283746-18.537583h-10.477764l-363.900827 2.417945z" fill="#F2F2F2" p-id="2850"></path><path d="M186.584809 235.346714v-19.343566l363.094845-2.417945 35.060212-0.402991c9.268792-0.402991 18.537584 5.641873 22.567493 14.104683 2.014955 4.029909 2.820937 8.865801 2.417946 13.701692 0 1.208973-0.402991 2.417946-0.805982 3.626919l-1.208973 3.223927c-1.208973 2.014955-2.014955 4.029909-3.223927 6.044865l-22.164502 37.075167L209.152302 914.386462l-16.522629-10.074774L566.202283 280.4817l16.522628-27.806375c2.820937-3.626919 3.626919-8.865801 1.208973-13.298702-2.014955-4.4329-6.447855-7.253837-11.283746-6.850846h-22.970484l-363.094845 2.820937z" fill="" p-id="2851"></path></svg>