<svg t="1625152957712" class="icon" viewBox="0 0 1024 1024" version="1.1" xmlns="http://www.w3.org/2000/svg"
  p-id="48341" width="200" height="200">
  <path d="M857.2416 296.96V358.912H199.68V296.96h657.6128z m0-141.824v62.0544H157.4912V155.136h699.7504z"
    fill="#FDE0AA" p-id="48342"></path>
  <path
    d="M156.1088 4.864L224.768 375.296c5.1712 26.368 28.3136 45.3632 55.1424 45.3632h477.952c26.88 0 49.9712-18.9952 55.1424-45.3632L881.664 4.864h96.1024c21.4016 0 38.7584 17.3568 38.7584 38.7584V935.936a38.7584 38.7584 0 0 1-38.7584 38.7584H60.0576a38.7584 38.7584 0 0 1-38.7584-38.7584V43.6224c0-21.4016 17.3568-38.7584 38.7584-38.7584h96.0512z m1.1776 752.64a42.1376 42.1376 0 0 0 0 84.3264 42.1376 42.1376 0 0 0 0-84.3264z m741.888 0a42.1376 42.1376 0 0 0 0 84.3264 42.1376 42.1376 0 0 0 0-84.3264z m-494.592 0a42.1376 42.1376 0 0 0 0 84.3264 42.1376 42.1376 0 0 0 0-84.3264z m247.296 0a42.1376 42.1376 0 0 0 0 84.3264 42.1376 42.1376 0 0 0 0-84.3264z m-352.1536-100.4032a42.1376 42.1376 0 0 0 0 84.3264 42.1376 42.1376 0 0 0 0-84.3264z m234.5472 0a42.1376 42.1376 0 0 0 0 84.3264 42.1376 42.1376 0 0 0 0-84.3264z m234.5472 0a42.1376 42.1376 0 0 0 0 84.3264 42.1376 42.1376 0 0 0 0-84.3264z m-611.5328-102.912a42.1376 42.1376 0 0 0 0 84.2752 42.1376 42.1376 0 0 0 0-84.3264z m741.888 0a42.1376 42.1376 0 0 0 0 84.2752 42.1376 42.1376 0 0 0 0-84.3264z m-494.592 0a42.1376 42.1376 0 0 0 0 84.2752 42.1376 42.1376 0 0 0 0-84.3264z m247.296 0a42.1376 42.1376 0 0 0 0 84.2752 42.1376 42.1376 0 0 0 0-84.3264z"
    fill="#FAB22B" p-id="48343"></path>
</svg>