<svg t="1625574550347" class="icon" viewBox="0 0 1024 1024" version="1.1" xmlns="http://www.w3.org/2000/svg" p-id="40556" width="200" height="200"><path d="M693.4528 938.7008H235.9808c-73.5232 0-133.12-59.5968-133.12-133.12V220.3648c0-73.5232 59.5968-133.12 133.12-133.12h457.472c73.5232 0 133.12 59.5968 133.12 133.12v585.2672c0 73.472-59.648 133.0688-133.12 133.0688z" fill="#4BE2AC" p-id="40557"></path><path d="M628.6336 328.9088h-325.12c-22.6304 0-40.96-18.3296-40.96-40.96s18.3296-40.96 40.96-40.96h325.12c22.6304 0 40.96 18.3296 40.96 40.96s-18.3296 40.96-40.96 40.96zM628.6336 491.3152h-325.12c-22.6304 0-40.96-18.3296-40.96-40.96s18.3296-40.96 40.96-40.96h325.12c22.6304 0 40.96 18.3296 40.96 40.96s-18.3296 40.96-40.96 40.96zM459.2128 653.6704h-155.648c-22.6304 0-40.96-18.3296-40.96-40.96s18.3296-40.96 40.96-40.96H459.264c22.6304 0 40.96 18.3296 40.96 40.96s-18.3808 40.96-41.0112 40.96z" fill="#FFFFFF" p-id="40558"></path><path d="M739.1744 745.3696m-189.952 0a189.952 189.952 0 1 0 379.904 0 189.952 189.952 0 1 0-379.904 0Z" fill="#69EDB7" p-id="40559"></path><path d="M739.4304 555.6224c-104.9088 0-189.952 85.0432-189.952 189.952 0 99.9936 77.2608 181.8624 175.36 189.3376 58.368-14.08 101.7856-66.6624 101.7856-129.3824v-228.8128a190.66368 190.66368 0 0 0-87.1936-21.0944z" fill="#06CC76" p-id="40560"></path><path d="M631.9104 846.336l67.84-135.7312 150.8864-66.304-81.7152 133.8368z" fill="#FFFFFF" p-id="40561"></path></svg>