<svg t="1625493374295" class="icon" viewBox="0 0 1024 1024" version="1.1" xmlns="http://www.w3.org/2000/svg" p-id="3245"
  width="200" height="200">
  <path
    d="M151.8 404.6c-5.2 13.9 2.4 22.7 0 75.7-0.7 14.3-61.4 78.8-85.5 145.9-23.9 66.4-27.2 135.9 9.7 163.2s71.3-90.9 75.8-73.7c2 7.5 4.4 15.2 7.3 23.3 11.9 32.2 31.7 67.8 60.5 101.2 5.8 6.8-35.6 19.2-60.4 62-24.8 42.7 7.1 120.5 130.6 120.5 159.4 0 195-56.8 198.3-56.4 11.9 0.9 12.7 0 25.3 0 15.3 0 8.9 1.3 23.3 0 7.7-0.7 85.1 67.8 192.4 56.4 182.7-19.5 154.8-81.4 140.4-120.5-15-40.8-67.9-60-65.6-62.6 43.7-48.9 50.7-79 65.6-123.9 6.1-18.5 48.5 101.6 81.1 73.7 13.6-11.7 40.8-60.3 13.6-163.2-27.2-103-79.8-126.5-78.6-145.9 2.4-40.2 1-68.4-1-75.7-9.7-35.4-30-27.6-30-35.4C854.4 165.4 702.9 0 515.9 0S177.6 165.4 177.6 369.2c0 16.2-14.2 4.2-25.8 35.4"
    p-id="3246"></path>
</svg>