<svg t="1625064151576" class="icon" viewBox="0 0 1024 1024" version="1.1" xmlns="http://www.w3.org/2000/svg" p-id="3107" width="200" height="200"><path d="M929.779 169.611l-65.555 65.554c-35.866-45.543-80.427-84.027-130.903-112.755C666.181 84.198 589.649 64 512 64c-60.452 0-119.129 11.854-174.401 35.232-53.355 22.567-101.26 54.861-142.383 95.983-41.123 41.123-73.417 89.027-95.983 142.383C75.854 392.871 64 451.548 64 512c0 60.451 11.854 119.129 35.232 174.401 22.567 53.355 54.861 101.26 95.983 142.383 41.123 41.123 89.027 73.416 142.383 95.983C392.871 948.146 451.548 960 512 960c80.099 0 158.725-21.412 227.38-61.921 66.576-39.282 122.193-95.427 160.838-162.363 17.673-30.61 7.185-69.752-23.427-87.425-30.609-17.674-69.752-7.185-87.425 23.427-27.638 47.871-67.415 88.025-115.032 116.121C625.37 816.729 569.235 832 512 832c-85.475 0-165.834-33.286-226.274-93.726S192 597.476 192 512c0-85.475 33.286-165.834 93.726-226.274S426.525 192 512 192c55.488 0 110.127 14.404 158.008 41.655 40.545 23.076 75.758 54.956 102.815 92.911l-91.211 91.211c-16.692 16.694-11.096 30.226 12.525 30.224l233.817 0C945.651 448 960 433.658 960 415.938L960 182.137C960 158.527 946.466 152.923 929.779 169.611z" p-id="3108"></path></svg>