<svg t="1625575846892" class="icon" viewBox="0 0 1024 1024" version="1.1" xmlns="http://www.w3.org/2000/svg" p-id="42589" width="200" height="200"><path d="M521.1136 513.0752m-437.248 0a437.248 437.248 0 1 0 874.496 0 437.248 437.248 0 1 0-874.496 0Z" fill="#A5ADF6" p-id="42590"></path><path d="M341.9136 696.2688l119.1424-89.9072v45.9776c0 39.0656 32.3584 63.488 58.2656 43.9808l184.5248-139.264c25.9072-19.5584 25.9072-68.4032 0-87.9616l-184.5248-139.264c-25.9072-19.5584-58.2656 4.864-58.2656 43.9808v45.9776L341.9136 329.8816c-25.9072-19.5584-58.2656 4.864-58.2656 43.9808v278.4768c0 39.0656 32.3584 63.488 58.2656 43.9296z" fill="#635DF7" p-id="42591"></path><path d="M712.7552 690.4832c-22.6304 0-40.96-18.3296-40.96-40.96v-272.896c0-22.6304 18.3296-40.96 40.96-40.96s40.96 18.3296 40.96 40.96v272.896c0 22.6304-18.3808 40.96-40.96 40.96z" fill="#FFFFFF" p-id="42592"></path></svg>