<svg t="1625153372069" class="icon" viewBox="0 0 1024 1024" version="1.1" xmlns="http://www.w3.org/2000/svg"
  p-id="92196" width="200" height="200">
  <path
    d="M69.560558 299.323535H189.20186a25.332093 25.332093 0 0 0 25.349954-25.344v-34.42307a25.332093 25.332093 0 0 0-25.349954-25.349953H69.560558a25.409488 25.409488 0 0 0-25.349953 25.349953V273.860465a25.36186 25.36186 0 0 0 25.349953 25.46307z m888.367628 392.442046l-148.837209-82.670139a42.698419 42.698419 0 0 0-41.275535 0l-148.837209 82.670139a42.501953 42.501953 0 0 0-21.86121 37.209303v162.56a42.638884 42.638884 0 0 0 21.86121 37.209302l148.837209 82.676093a42.698419 42.698419 0 0 0 41.275535 0l148.837209-82.676093a42.501953 42.501953 0 0 0 21.861209-37.209302v-162.56a42.638884 42.638884 0 0 0-21.861209-37.209303z m-169.531535 182.325582c-35.232744 0-63.839256-28.600558-63.839256-63.833303 0-35.232744 28.606512-63.839256 63.839256-63.839255 35.232744 0 63.833302 28.606512 63.833302 63.839255 0 35.232744-28.600558 63.833302-63.833302 63.833303zM189.20186 809.674419a25.332093 25.332093 0 0 0 25.349954-25.349954v-34.417116a25.332093 25.332093 0 0 0-25.349954-25.349954H69.560558a25.409488 25.409488 0 0 0-25.349953 25.349954v34.417116A25.409488 25.409488 0 0 0 69.560558 809.674419H189.20186z"
    fill="#007BF2" p-id="92197"></path>
  <path
    d="M615.370419 975.490977l-16.973396-9.769675a84.319256 84.319256 0 0 1-43.841488-73.954232v-162.905303c0-30.58307 16.628093-59.070512 43.841488-74.418604l148.83721-82.443907c12.323721-7.203721 26.74307-10.579349 41.275534-10.579349 14.419349 0 28.487442 3.369674 41.281489 10.579349l69.76893 38.721488c16.973395 9.305302 37.786791-3.024372 37.786791-22.087442V44.204651c0-23.373395-19.18214-42.561488-42.555535-42.561488H129.327628c-23.373395 0-42.561488 19.188093-42.561488 42.561488v84.997954c0 23.373395 19.188093 42.561488 42.561488 42.561488H214.325581c23.373395 0 42.555535 19.18214 42.555535 42.555535v84.652651c0 23.837767-19.18214 42.906791-42.555535 42.906791H129.327628c-23.373395 0-42.561488 19.18214-42.561488 42.555535v255.118883c0 23.373395 19.188093 42.555535 42.561488 42.555535H214.325581c23.373395 0 42.555535 19.188093 42.555535 42.561489v84.646697c0 23.837767-19.18214 42.906791-42.555535 42.906791H129.327628c-23.373395 0-42.561488 19.188093-42.561488 42.561488v84.997954c0 23.373395 19.188093 42.561488 42.561488 42.561488H601.302326a25.534512 25.534512 0 0 0 25.463069-25.469023c0-9.067163-4.643721-16.628093-11.394976-21.390884zM341.885023 197.114047a25.409488 25.409488 0 0 1 25.349954-25.344h417.089488A25.409488 25.409488 0 0 1 809.674419 197.114047v34.304a25.409488 25.409488 0 0 1-25.349954 25.349953H367.234977a25.409488 25.409488 0 0 1-25.349954-25.349953V197.12z m0 212.212093a25.409488 25.409488 0 0 1 25.349954-25.349954h417.089488A25.409488 25.409488 0 0 1 809.674419 409.32614v34.304a25.409488 25.409488 0 0 1-25.349954 25.344H367.234977a25.409488 25.409488 0 0 1-25.349954-25.344v-34.304zM512 656.765023a25.409488 25.409488 0 0 1-25.349953 25.349954H367.234977a25.409488 25.409488 0 0 1-25.349954-25.349954v-34.298046a25.409488 25.409488 0 0 1 25.349954-25.349954h119.41507A25.409488 25.409488 0 0 1 512 622.466977v34.298046z"
    fill="#007BF2" p-id="92198"></path>
</svg>