<svg t="1625153574195" class="icon" viewBox="0 0 1077 1024" version="1.1" xmlns="http://www.w3.org/2000/svg"
  p-id="107044" width="200" height="200">
  <path
    d="M616.286316 525.150316c-15.629474 26.031158-44.193684 43.762526-77.338948 43.762526a89.842526 89.842526 0 0 1-77.285052-43.762526h154.624z m102.29221-380.766316v87.525053H359.316211V144.437895h359.262315z m269.41979 30.666105H808.421053V58.314105C808.421053 30.127158 784.869053 0 718.848 0H359.100632C293.025684 0 269.473684 30.127158 269.473684 58.314105v116.736H90.004211c-49.690947 0-89.896421 39.181474-90.004211 87.525053v177.152h1077.894737V262.575158c0-48.289684-40.313263-87.525053-89.896421-87.525053z"
    fill="#4993F5" p-id="107045"></path>
  <path
    d="M987.998316 512c-3.503158 0.916211-6.844632 2.209684-10.617263 2.209684h-265.162106c-20.102737 79.764211-89.788632 139.048421-173.271579 139.048421-83.429053 0-153.168842-59.284211-173.271579-139.048421H0v417.145263C0 982.393263 40.421053 1024 90.004211 1024h897.994105c49.583158 0 89.842526-41.498947 89.896421-92.698947V514.209684h-89.896421V512z"
    fill="#4993F5" p-id="107046"></path>
</svg>