<svg t="1625493596019" class="icon" viewBox="0 0 1229 1024" version="1.1" xmlns="http://www.w3.org/2000/svg" p-id="6015" width="200" height="200"><path d="M425.6256 678.912v-4.608a346.368 346.368 0 0 1 126.1056-262.656 458.3936 458.3936 0 0 1 299.1104-106.496h9.1648l31.0272 1.536a373.0944 373.0944 0 0 0-140.7488-209.408 510.464 510.464 0 0 0-620.2368 15.872A354.3552 354.3552 0 0 0-0.0512 381.44a316.672 316.672 0 0 0 38.4 143.872 469.0944 469.0944 0 0 0 107.52 135.68l7.68 7.168 0.4096 10.24 5.9392 123.392 75.9296-69.632 10.24-9.728 13.056 5.12a458.1888 458.1888 0 0 0 92.5696 26.624 471.7056 471.7056 0 0 0 85.9648 9.216 331.3664 331.3664 0 0 1-12.288-80.896 8.704 8.704 0 0 0 0.256-3.584z m141.9264-478.208a63.0272 63.0272 0 1 1-60.8256 62.976 62.0032 62.0032 0 0 1 60.8256-62.976zM283.0848 326.656a63.0272 63.0272 0 1 1 61.0304-62.976 62.0032 62.0032 0 0 1-61.0304 62.976z m837.0176 121.856a428.8512 428.8512 0 0 0-538.9312 0 287.3344 287.3344 0 0 0 0 451.072 414.72 414.72 0 0 0 269.5168 95.232 474.9312 474.9312 0 0 0 82.432-7.168 427.6224 427.6224 0 0 0 78.1312-22.528l13.1584-5.12 10.24 9.728 59.136 53.76 4.4032-97.28 0.4096-10.752 7.8848-6.656a396.4928 396.4928 0 0 0 90.6752-114.176A265.0112 265.0112 0 0 0 1229.2096 674.304a298.3424 298.3424 0 0 0-109.1072-225.792zM717.2096 665.6a53.5552 53.5552 0 1 1 51.8144-53.248A52.8384 52.8384 0 0 1 717.2096 665.6z m246.8864 0a53.5552 53.5552 0 1 1 51.8656-53.248 52.6848 52.6848 0 0 1-51.712 53.248z" p-id="6016"></path></svg>